<?xml version="1.0" standalone="no"?>
<!DOCTYPE svg PUBLIC "-//W3C//DTD SVG 1.1//EN" "http://www.w3.org/Graphics/SVG/1.1/DTD/svg11.dtd" >
<svg xmlns="http://www.w3.org/2000/svg" xmlns:xlink="http://www.w3.org/1999/xlink" version="1.1">
<metadata></metadata>
<defs>
<font id="pp_editorial_newregular" horiz-adv-x="958" >
<font-face units-per-em="2048" ascent="1638" descent="-410" />
<missing-glyph horiz-adv-x="425" />
<glyph horiz-adv-x="0" />
<glyph horiz-adv-x="682" />
<glyph unicode=" "  horiz-adv-x="425" />
<glyph unicode="&#x09;" horiz-adv-x="425" />
<glyph unicode="&#xa0;" horiz-adv-x="425" />
<glyph unicode="!" horiz-adv-x="452" d="M106 88q0 49 35 85t86 36q49 0 84 -36t35 -85q0 -51 -35 -86t-84 -35q-51 0 -86 35t-35 86zM119 1544q0 68 27.5 101.5t80.5 33.5q51 0 80 -34.5t29 -100.5q0 -55 -7 -124.5t-16 -145.5q-23 -184 -38 -379t-17 -475h-59q-2 279 -17.5 469t-40.5 385q-8 76 -15 145.5 t-7 124.5z" />
<glyph unicode="&#x22;" horiz-adv-x="698" d="M102 1565q0 55 22.5 84.5t65.5 29.5q88 0 89 -114q0 -51 -8.5 -113.5t-20.5 -130.5q-25 -143 -33 -205h-49q-10 88 -37 225q-29 147 -29 224zM419 1565q0 55 22.5 84.5t65.5 29.5q88 0 89 -114q0 -51 -8.5 -113.5t-20.5 -130.5q-25 -143 -33 -205h-49q-10 88 -37 225 q-29 147 -29 224z" />
<glyph unicode="#" horiz-adv-x="1689" d="M102 434v137h318l151 523h-325v137h364l129 448h142l-129 -448h426l129 448h139l-129 -448h270v-137h-309l-152 -523h318v-137h-357l-137 -475h-139l137 475h-426l-137 -475h-141l137 475h-279zM561 571h426l152 523h-426z" />
<glyph unicode="$" horiz-adv-x="1097" d="M106 1237q0 158 113 254t293 106v140h70v-142q188 -12 333 -129v-323h-47q0 172 -77.5 269t-208.5 108v-596l6 -4q164 -121 242.5 -187.5t126 -150.5t47.5 -195q0 -178 -112 -292.5t-310 -129.5v-160h-70v158q-117 2 -220.5 42t-176.5 93v404h47q0 -147 48 -251t127 -154 t175 -52v672l-29 20q-139 94 -219 168t-119 154t-39 178zM276 1284q0 -82 48.5 -144.5t187.5 -164.5v543q-115 -12 -175.5 -76t-60.5 -158zM582 49q123 16 184 87t61 177q0 98 -59 178t-186 177v-619z" />
<glyph unicode="%" horiz-adv-x="1591" d="M102 1257q0 117 38 213.5t103.5 152.5t143.5 56q76 0 140.5 -56t102.5 -152.5t38 -213.5q0 -115 -38 -211t-102.5 -151t-140.5 -55q-78 0 -143.5 55t-103.5 151.5t-38 210.5zM240 0l1017 1638h89l-1018 -1638h-88zM250 1257q0 -162 31.5 -263t105.5 -101 q70 0 101.5 101.5t31.5 262.5q0 164 -31.5 265.5t-101.5 101.5q-74 0 -105.5 -100.5t-31.5 -266.5zM924 387q0 117 37.5 213t103 152.5t143.5 56.5q76 0 140.5 -56.5t102.5 -152.5t38 -213t-38 -213t-102.5 -151.5t-140.5 -55.5q-78 0 -143.5 55.5t-103 151.5t-37.5 213z M1071 387q0 -164 32 -264t105 -100q70 0 101.5 100t31.5 264t-31.5 265.5t-101.5 101.5q-74 0 -105.5 -100.5t-31.5 -266.5z" />
<glyph unicode="&#x26;" horiz-adv-x="1636" d="M76 389q0 162 98 279.5t295 222.5q-96 227 -96 395q0 131 56 224.5t147.5 141.5t193.5 48q104 0 174 -42t102.5 -106.5t32.5 -136.5q0 -258 -381 -518q59 -121 140 -256q109 -186 186 -287q86 147 145 357q14 66 15 86q0 43 -31 57t-115 14v47h457v-47q-76 0 -117 -12 t-65.5 -45t-42.5 -98q-84 -266 -189 -428q123 -137 232 -138q68 0 111.5 56.5t74.5 177.5h49q-33 -188 -104.5 -293.5t-208.5 -105.5q-145 0 -285 139q-164 -152 -397 -152q-129 0 -237.5 48.5t-174 142.5t-65.5 229zM309 424q0 -174 90 -261t226 -87q143 0 264 110 q-111 129 -252 375q-78 137 -121 230q-111 -82 -159 -167t-48 -200zM571 1327q0 -145 84 -336q293 219 293 434q0 86 -42 137.5t-118 51.5q-98 0 -157.5 -77t-59.5 -210z" />
<glyph unicode="'" horiz-adv-x="380" d="M102 1565q0 55 22.5 84.5t65.5 29.5q88 0 89 -114q0 -51 -8.5 -113.5t-20.5 -130.5q-25 -143 -33 -205h-49q-10 88 -37 225q-29 147 -29 224z" />
<glyph unicode="(" horiz-adv-x="790" d="M102 635q0 389 163 688t429 459v-49q-178 -166 -267 -457t-89 -641q0 -326 100.5 -621t290.5 -477v-49q-283 184 -455 477t-172 670z" />
<glyph unicode=")" horiz-adv-x="790" d="M61 -463q190 182 291 477t101 621q0 350 -89.5 641t-267.5 457v49q266 -160 429 -459t163 -688q0 -377 -172 -670t-455 -477v49z" />
<glyph unicode="*" horiz-adv-x="905" d="M78 1102q0 49 51 80q23 14 51.5 20t57.5 10q51 6 92 16.5t92 37.5q-51 25 -90 36t-94 19q-29 4 -57.5 10t-51.5 21q-51 31 -51 82q0 23 10 43q12 20 32.5 32.5t43.5 12.5q29 0 53 -17q23 -14 42.5 -34.5t37.5 -43.5q31 -41 61.5 -71.5t81.5 -63.5q-2 59 -14 100.5 t-33 86.5q-10 27 -19 55.5t-9 56.5q0 43 25.5 70t62.5 27t62.5 -27t25.5 -70q0 -29 -7.5 -54.5t-21.5 -59.5q-18 -45 -29.5 -86t-13.5 -99q49 31 79 61.5t60 71.5q43 57 80 80q25 16 53 17q47 0 76 -45q12 -18 12 -43q0 -23 -13 -45.5t-40 -36.5q-43 -25 -112 -31 q-55 -8 -93.5 -19.5t-87.5 -35.5q49 -25 90 -35t91 -17q39 -6 64.5 -12t47.5 -20q53 -31 53 -80q0 -23 -12 -45q-27 -43 -76 -43q-27 0 -53 14q-25 14 -44 35.5t-38 44.5q-33 41 -61.5 70.5t-75.5 60.5q6 -92 45 -182q10 -29 18.5 -57.5t8.5 -55.5q0 -43 -26 -69.5 t-62 -26.5q-37 0 -62.5 26.5t-25.5 69.5q0 49 28 113q18 45 29.5 85t15.5 97q-49 -33 -78.5 -62.5t-60.5 -68.5q-18 -23 -37.5 -44.5t-44.5 -35.5q-27 -14 -53 -14q-23 0 -43.5 11t-32.5 32q-10 25 -10 45z" />
<glyph unicode="+" horiz-adv-x="1044" d="M102 539v151h347v344h151v-344h342v-151h-342v-344h-151v344h-347z" />
<glyph unicode="," horiz-adv-x="473" d="M102 86q0 53 36 88t87 35q63 0 107.5 -48t44.5 -130q0 -111 -66.5 -212.5t-206.5 -156.5v55q82 35 138.5 101.5t56.5 134.5q0 41 -27 41q-10 0 -30.5 -8.5t-38.5 -8.5q-43 0 -72 31t-29 78z" />
<glyph unicode="-" horiz-adv-x="911" d="M102 479v148h707v-148h-707z" />
<glyph unicode="." horiz-adv-x="446" d="M102 88q0 49 35 85t86 36q49 0 85 -36t36 -85q0 -51 -36 -86t-85 -35q-51 0 -86 35t-35 86z" />
<glyph unicode="/" horiz-adv-x="677" d="M0 0l537 1679h141l-537 -1679h-141z" />
<glyph unicode="0" horiz-adv-x="1179" d="M94 825q0 238 56.5 430.5t169 304t270.5 111.5t269.5 -111.5t167.5 -304t56 -430.5q0 -242 -56 -436t-167.5 -307t-269.5 -113t-270.5 113t-169 307.5t-56.5 435.5zM330 825q0 -360 62.5 -566t197.5 -206t197.5 207t62.5 565q0 354 -62.5 558t-197.5 204t-197.5 -202.5 t-62.5 -559.5z" />
<glyph unicode="1" horiz-adv-x="716" d="M47 1462l256 133l148 80l28 -28v-1436q0 -70 13.5 -102.5t50.5 -46t116 -13.5v-49h-583v49q86 0 127 13.5t55 46t14 102.5v1137q0 74 -7 101.5t-36 27.5q-37 0 -155 -64z" />
<glyph unicode="2" horiz-adv-x="1067" d="M33 0v49q231 252 373.5 430t230.5 359.5t88 357.5q0 135 -60.5 216t-183.5 81q-145 0 -226 -120t-89 -331h-51q0 188 57 331t163.5 220.5t250.5 77.5q176 0 268 -104.5t92 -268.5q0 -260 -191.5 -533t-496.5 -577v-6h500q67 0 107 17.5t66.5 61.5t57.5 132l47 -16 l-75 -223l-54 -154h-874z" />
<glyph unicode="3" horiz-adv-x="970" d="M33 129q0 37 25.5 60.5t64.5 23.5q37 0 59.5 -19.5t55.5 -60.5q31 -41 61.5 -58.5t85.5 -17.5q70 0 132.5 40t102 125t39.5 214q0 211 -108.5 307.5t-269.5 96.5v47q338 98 337 387q0 109 -56 179.5t-169 70.5q-215 0 -274 -240h-49q27 184 134 285.5t273 101.5 q156 0 256.5 -96t100.5 -262q0 -139 -89.5 -248t-252.5 -172v-6q174 -18 285.5 -126t111.5 -298q0 -150 -72 -262.5t-192.5 -173t-266.5 -60.5q-129 0 -227 44t-98 118z" />
<glyph unicode="4" horiz-adv-x="1126" d="M57 436v182l639 1051h162v-1051h186v-182h-186v-225q0 -70 12.5 -102.5t47 -46t110.5 -13.5v-49h-555v49q78 0 115 13.5t49 46t12 102.5v225h-592zM158 618h491v840l-491 -833v-7z" />
<glyph unicode="5" horiz-adv-x="1007" d="M43 133q0 39 25.5 62.5t64.5 23.5q37 0 59.5 -19.5t55.5 -60.5q31 -39 64.5 -60.5t82.5 -21.5q72 0 136.5 56.5t105.5 170t41 275.5q0 215 -69.5 318.5t-190.5 103.5t-211 -102l-68 49l158 710h588l-43 -182h-482l-90 -436l9 -6q106 88 235 88q113 0 204 -62.5t143 -176 t52 -263.5q0 -201 -74.5 -344t-197.5 -216t-266 -73q-133 0 -232.5 47t-99.5 119z" />
<glyph unicode="6" horiz-adv-x="1128" d="M94 659q0 262 100.5 476.5t293 355.5t462.5 188v-49q-240 -63 -381 -237t-198 -414q53 63 127.5 103t160.5 40q129 0 218.5 -71.5t133.5 -191.5t44 -265q0 -162 -53.5 -305.5t-159 -232.5t-254.5 -89q-154 0 -265.5 86t-170 243t-58.5 363zM330 618q0 -266 67.5 -416.5 t190.5 -150.5q231 0 231 492q0 217 -54 351t-181 134q-72 0 -132.5 -39t-101.5 -112q-20 -129 -20 -259z" />
<glyph unicode="7" horiz-adv-x="1040" d="M51 1243l49 234l33 161h875l-541 -1675l-162 41l486 1446v6h-484q-66 0 -103.5 -17.5t-61 -64.5t-44.5 -141z" />
<glyph unicode="8" horiz-adv-x="1079" d="M94 346q0 100 41 184t107.5 156t171.5 162q-96 90 -152.5 154.5t-89.5 138t-33 164.5q0 106 53.5 189t148.5 130t216 47q174 0 280.5 -93t106.5 -243q0 -86 -36 -152.5t-91 -120.5t-172 -153q129 -112 193.5 -179.5t105.5 -151.5t41 -193q0 -121 -57.5 -217 t-161.5 -151.5t-236 -55.5q-127 0 -226 50t-154.5 138.5t-55.5 196.5zM279 346q0 -123 69.5 -209t192.5 -86q108 0 172.5 76t64.5 203q0 80 -30.5 145.5t-88 130t-163.5 166.5q-111 -111 -164 -213t-53 -213zM340 1354q0 -92 54.5 -175t170.5 -196q106 102 152.5 190.5 t46.5 180.5q0 104 -56.5 166.5t-152.5 62.5t-155.5 -61.5t-59.5 -167.5z" />
<glyph unicode="9" horiz-adv-x="1144" d="M90 1044q0 162 53.5 305.5t159 232.5t254.5 89q154 0 265.5 -86t170 -242.5t58.5 -363.5q0 -262 -100.5 -476t-293 -355.5t-462.5 -188.5v49q240 63 381 237.5t198 413.5q-53 -61 -128 -101t-161 -40q-129 0 -218 70.5t-133 190.5t-44 265zM326 1096q0 -217 54 -351.5 t181 -134.5q72 0 132.5 39t101.5 113q20 129 20 258q0 266 -67.5 416.5t-190.5 150.5q-231 0 -231 -491z" />
<glyph unicode=":" horiz-adv-x="446" d="M102 88q0 49 35 85t86 36q49 0 85 -36t36 -85q0 -51 -36 -86t-85 -35q-51 0 -86 35t-35 86zM102 995q0 49 35 85t86 36q49 0 85 -36t36 -85q0 -51 -36 -86t-85 -35q-51 0 -86 35t-35 86z" />
<glyph unicode=";" horiz-adv-x="473" d="M98 86q0 53 36 88t87 35q63 0 107.5 -48t44.5 -130q0 -111 -66.5 -212.5t-206.5 -156.5v55q82 35 138.5 101.5t56.5 134.5q0 41 -27 41q-10 0 -30.5 -8.5t-38.5 -8.5q-43 0 -72 31t-29 78zM106 997q0 49 35 85t86 36q49 0 85 -36t36 -85q0 -51 -36 -86t-85 -35 q-51 0 -86 35t-35 86z" />
<glyph unicode="&#x3c;" d="M102 524v224l754 237v-160l-627 -186v-6l627 -187v-159z" />
<glyph unicode="=" horiz-adv-x="978" d="M102 353v151h775v-151h-775zM102 725v151h775v-151h-775z" />
<glyph unicode="&#x3e;" d="M102 287v159l625 187v6l-625 186v160l754 -237v-224z" />
<glyph unicode="?" horiz-adv-x="806" d="M90 1579q47 45 129 74.5t172 29.5q98 0 180 -42t131.5 -116.5t49.5 -172.5q0 -100 -60.5 -188.5t-208.5 -215.5q-111 -94 -153.5 -159.5t-42.5 -133.5q0 -45 23.5 -101t56.5 -95h-70q-74 98 -110.5 173t-36.5 142q0 82 45 150.5t157 169.5q131 117 185.5 186.5 t54.5 144.5q0 70 -40 111t-124 41q-111 0 -182.5 -85t-81.5 -232h-60zM236 88q0 49 35.5 85t84.5 36q51 0 86 -36t35 -85q0 -51 -34.5 -86t-86.5 -35q-49 0 -84.5 35t-35.5 86z" />
<glyph unicode="@" horiz-adv-x="2086" d="M102 365q0 313 145.5 581t394.5 427t544 159q227 0 395 -94.5t257 -255t89 -359.5q0 -207 -97 -399.5t-245.5 -312t-290.5 -119.5q-186 0 -186 174q0 80 35 184l55 166h-27q-221 -522 -448 -522q-88 0 -140.5 76.5t-52.5 205.5q0 168 85 365t222.5 331t280.5 134 q98 0 149.5 -66.5t45.5 -162.5h4l53 163q51 0 94 21.5t68 56.5l35 -16l-260 -780q-14 -47 -25.5 -89.5t-11.5 -70.5q0 -82 86 -82q94 0 213 108.5t202.5 281.5t83.5 351t-79.5 324.5t-232 232.5t-361.5 86q-283 0 -509.5 -154.5t-353 -409.5t-126.5 -548q0 -236 96 -407.5 t275 -263t421 -91.5q330 0 581 172t390 478h69q-141 -334 -413.5 -526.5t-630.5 -192.5q-268 0 -467 105.5t-305.5 296t-106.5 442.5zM715 293q0 -154 80 -154q61 0 141 84t152.5 208t111.5 237q41 119 41 188q0 76 -32.5 113t-88.5 37q-90 0 -185 -119t-157.5 -288 t-62.5 -306z" />
<glyph unicode="A" horiz-adv-x="1419" d="M-45 0v49q98 0 141 30t74 122l479 1462h113l483 -1462q33 -92 77 -122t144 -30v-49h-622v49q104 0 143 14.5t39 53.5q0 23 -18 86l-99 315h-549l-100 -317q-20 -61 -20 -86q0 -37 38.5 -51.5t139.5 -14.5v-49h-463zM387 598h496l-242 770h-8z" />
<glyph unicode="B" horiz-adv-x="1306" d="M39 0v49q96 0 141 14.5t60.5 47t15.5 100.5v1216q0 68 -15.5 101t-60.5 47t-141 14v49h641q231 0 364.5 -102t133.5 -303q0 -164 -96.5 -265.5t-252.5 -119.5v-10q193 -12 308.5 -122t115.5 -276q0 -229 -163.5 -334.5t-430.5 -105.5h-620zM483 147q0 -35 37 -49t113 -14 q170 0 280.5 80t110.5 274q0 131 -59.5 212t-147.5 114t-178 33q-104 0 -156 -9v-641zM483 889q51 -8 154 -8q135 0 225 88t90 256q0 164 -89 246.5t-222 82.5q-74 0 -117 -10q-41 -8 -41 -53v-602z" />
<glyph unicode="C" horiz-adv-x="1349" d="M72 805q0 246 83 443.5t234.5 310t345.5 112.5q203 0 336 -127q16 -16 33 -16q23 0 26 35l11 90h47l31 -580h-48q-90 508 -399 508q-139 0 -241.5 -97.5t-155.5 -267t-53 -385.5q0 -215 54 -383.5t155.5 -264t240.5 -95.5q180 0 294 159t148 419h60 q-31 -332 -173.5 -515.5t-395.5 -183.5q-197 0 -340.5 110.5t-218 301t-74.5 426.5z" />
<glyph unicode="D" horiz-adv-x="1507" d="M39 0v49q96 0 141 14.5t60.5 47t15.5 100.5v1216q0 68 -15.5 101t-60.5 47t-141 14v49h590q223 0 408.5 -90t297 -276.5t111.5 -460.5q0 -264 -105.5 -447.5t-286 -273.5t-405.5 -90h-610zM487 172q0 -49 33 -68.5t105 -19.5q190 0 320 92t194.5 253t64.5 368 q0 229 -76.5 401t-208 264t-292.5 92q-68 0 -101 -12q-39 -8 -39 -53v-1317z" />
<glyph unicode="E" horiz-adv-x="1269" d="M39 0v49q96 0 141 14.5t60.5 47t15.5 100.5v1216q0 68 -15.5 101t-60.5 47t-141 14v49h1073l6 -61l39 -352l-57 -6q-16 141 -40 209.5t-65 93t-118 24.5h-293q-47 0 -72 -24.5t-25 -71.5v-563h254q66 0 97.5 17.5t45 67.5t13.5 156h47v-555h-47q0 104 -13.5 154.5t-45 68 t-97.5 17.5h-254v-604q0 -72 18.5 -94.5t78.5 -22.5h290q80 0 129.5 29t87 107.5t78.5 236.5l58 -16l-101 -390l-16 -59h-1071z" />
<glyph unicode="F" horiz-adv-x="1232" d="M39 0v49q96 0 141 14.5t60.5 47t15.5 100.5v1216q0 68 -15.5 101t-60.5 47t-141 14v49h1139l6 -61l28 -354l-55 -4q-12 141 -34.5 210.5t-63.5 93t-119 23.5h-356q-47 0 -72 -24.5t-25 -71.5v-602h279q68 0 100.5 17.5t47 67.5t14.5 157h49v-564h-49q0 106 -14.5 156.5 t-47 67t-100.5 16.5h-279v-555q0 -68 16.5 -100.5t65.5 -47t154 -14.5v-49h-684z" />
<glyph unicode="G" horiz-adv-x="1478" d="M72 809q0 248 84 444.5t240.5 307t367.5 110.5q111 0 200 -31.5t169 -99.5q16 -16 32 -16q23 0 27 35l10 94h49l27 -580h-47q-88 508 -432 508q-152 0 -259.5 -95t-162.5 -264t-55 -386q0 -221 55 -395.5t164.5 -274.5t263.5 -100q106 0 186 48t125 117v404 q0 68 -27.5 100.5t-107.5 47t-248 14.5v49h725v-49q-57 0 -82.5 -13.5t-35 -46t-9.5 -102.5v-393q-90 -127 -234.5 -201t-322.5 -74q-227 0 -386 109.5t-237.5 300t-78.5 432.5z" />
<glyph unicode="H" horiz-adv-x="1607" d="M39 0v49q96 0 141 14.5t60.5 47t15.5 100.5v1216q0 68 -15.5 101t-60.5 47t-141 14v49h653v-49q-90 0 -133 -14t-57.5 -47t-14.5 -101v-518h635v518q0 68 -14 101t-58 47t-135 14v49h656v-49q-96 0 -142.5 -14t-61.5 -47t-15 -101v-1216q0 -68 15 -100.5t61.5 -47 t142.5 -14.5v-49h-656v49q90 0 134.5 14.5t58.5 47t14 100.5v610h-635v-610q0 -68 14.5 -100.5t57.5 -47t133 -14.5v-49h-653z" />
<glyph unicode="I" horiz-adv-x="743" d="M39 0v49q96 0 141 14.5t60.5 47t15.5 100.5v1216q0 68 -15.5 101t-60.5 47t-141 14v49h668v-49q-96 0 -142.5 -14t-62 -47t-15.5 -101v-1216q0 -68 15.5 -100.5t61.5 -47t143 -14.5v-49h-668z" />
<glyph unicode="J" horiz-adv-x="985" d="M47 248q0 61 34 96t83 35q53 0 84 -27.5t31 -75.5q0 -20 -3.5 -45.5t-3.5 -46.5q0 -61 28 -98t83 -37q80 0 111.5 76t31.5 242v1060q0 68 -15 101t-61.5 47t-142.5 14v49h668v-49q-96 0 -142.5 -14t-61.5 -47t-15 -101v-997q0 -242 -97.5 -352.5t-271.5 -110.5 q-109 0 -185.5 40t-115.5 104.5t-39 136.5z" />
<glyph unicode="K" horiz-adv-x="1538" d="M39 0v49q96 0 141 14.5t60.5 47t15.5 100.5v1216q0 68 -15.5 101t-60.5 47t-141 14v49h668v-49q-96 0 -142.5 -14t-62 -47t-15.5 -101v-1216q0 -68 15.5 -100.5t61.5 -47t143 -14.5v-49h-668zM545 868l418 535q71 89 71 126q0 34 -34.5 47t-131.5 13v49h584v-49 q-109 0 -169 -20.5t-120 -91.5l-415 -502l532 -793q55 -82 106.5 -106.5t137.5 -24.5v-51h-643v49q92 0 131 10.5t39 38.5q0 29 -47 99z" />
<glyph unicode="L" horiz-adv-x="1239" d="M39 0v49q96 0 141 14.5t60.5 47t15.5 100.5v1216q0 68 -15.5 101t-60.5 47t-141 14v49h668v-49q-96 0 -142.5 -14t-62 -47t-15.5 -101v-1200q0 -59 10.5 -86.5t37 -38t79.5 -10.5h248q82 0 130 30t84 112.5t75 248.5l57 -14l-94 -412l-12 -57h-1063z" />
<glyph unicode="M" horiz-adv-x="1931" d="M39 0v49q96 0 141 14.5t60.5 47t15.5 100.5v1216q0 68 -15.5 101t-60.5 47t-141 14v49h510l416 -1294h4l417 1294h508v-49q-96 0 -142 -14t-61.5 -47t-15.5 -101v-1216q0 -68 15.5 -100.5t61.5 -47t142 -14.5v-49h-667v49q96 0 141 14.5t60.5 47t15.5 100.5v1309h-6 l-500 -1561h-92l-498 1540h-6v-1288q0 -68 15.5 -100.5t61.5 -47t142 -14.5v-49h-522z" />
<glyph unicode="N" horiz-adv-x="1533" d="M39 0v49q96 0 141 14.5t60.5 47t15.5 100.5v1243l-2 4q-49 80 -95 105.5t-118 25.5v49h375l790 -1280v1069q0 68 -15 101t-60.5 47t-141.5 14v49h522v-49q-96 0 -142 -14t-61.5 -47t-15.5 -101v-1447h-114l-836 1337v-1106q0 -68 16.5 -100.5t63.5 -47t147 -14.5v-49 h-530z" />
<glyph unicode="O" horiz-adv-x="1417" d="M72 819q0 238 79.5 432.5t224 306t331.5 111.5q188 0 334.5 -112.5t226.5 -307t80 -432.5q0 -240 -79 -433.5t-223.5 -305t-332.5 -111.5q-189 0 -335.5 113t-226 307.5t-79.5 431.5zM307 993q0 -227 52.5 -444t153.5 -355.5t243 -138.5q112 0 193 82t122 216t41 292 q0 225 -52 441.5t-154.5 355.5t-241.5 139q-111 0 -192 -82t-123 -217t-42 -289z" />
<glyph unicode="P" horiz-adv-x="1257" d="M39 0v49q96 0 141 14.5t60.5 47t15.5 100.5v1216q0 68 -15.5 101t-60.5 47t-141 14v49h602q276 0 426 -114.5t150 -347.5q0 -238 -147.5 -362t-381.5 -124q-102 0 -203 37v-516q0 -68 16.5 -100.5t63.5 -47t148 -14.5v-49h-674zM485 817q88 -35 179 -35q155 0 239 107.5 t84 286.5q0 184 -91 281t-245 97q-72 0 -129 -22q-37 -14 -37 -55v-660z" />
<glyph unicode="Q" horiz-adv-x="1417" d="M72 819q0 238 79.5 432.5t224 306t331.5 111.5q188 0 334.5 -112.5t226.5 -307t80 -432.5q0 -203 -57.5 -373t-162.5 -286h2q-72 -86 -207 -160t-277 -123t-240 -70l4 -16q182 31 309 31q102 0 258 -29q10 -2 73.5 -13t120.5 -11q88 0 142.5 22.5t91.5 75.5l41 -35 q-33 -109 -101.5 -172.5t-173.5 -63.5q-68 0 -131 17.5t-163 52.5q-104 37 -178 56.5t-154 19.5q-129 0 -281 -55l-41 143q106 20 234.5 57t238.5 82q-184 4 -326.5 118t-220 306.5t-77.5 427.5zM307 993q0 -227 52.5 -444t153.5 -355.5t243 -138.5q113 0 193.5 82 t121.5 216t41 292q0 225 -52 441.5t-154.5 355.5t-241.5 139q-111 0 -192 -82t-123 -217t-42 -289z" />
<glyph unicode="R" horiz-adv-x="1376" d="M39 0v49q96 0 141 14.5t60.5 47t15.5 100.5v1216q0 68 -15.5 101t-60.5 47t-141 14v49h631q268 0 399 -108.5t131 -308.5q0 -195 -116.5 -298.5t-313.5 -134.5q66 -20 112 -67t97 -158l174 -340q37 -72 63.5 -105.5t67.5 -51t115 -17.5v-49h-101q-143 0 -208.5 15.5 t-104.5 61.5t-90 156l-268 543h-31q-41 0 -111 4v-569q0 -68 15.5 -100.5t61.5 -47t143 -14.5v-49h-666zM485 860q55 -6 117 -6q166 0 264.5 88t98.5 272q0 166 -82 253t-232 87q-68 0 -129 -20q-37 -14 -37 -55v-619z" />
<glyph unicode="S" horiz-adv-x="1056" d="M92 -6l4 612h54q8 -150 59 -276.5t139 -201.5t197 -75q123 0 187.5 79t64.5 185q0 88 -41 163t-105.5 135.5t-167.5 138.5q-133 102 -206.5 168.5t-122 155.5t-48.5 202q0 119 53.5 208t145.5 136t209 47q86 0 151.5 -25.5t120.5 -78.5q23 -18 37 -19q27 0 33 41l10 62 h49l25 -539h-51q-16 203 -110.5 339t-250.5 136q-109 0 -171 -68.5t-62 -168.5q0 -76 36 -139.5t98.5 -121t174.5 -141.5q129 -94 207 -168.5t126 -169t48 -213.5q0 -127 -56.5 -224t-155.5 -151.5t-224 -54.5q-90 0 -174 37t-148 100q-23 23 -39 23q-20 0 -26 -39l-19 -94 h-51z" />
<glyph unicode="T" horiz-adv-x="1280" d="M43 1223l27 354l6 61h1128l4 -61l27 -354l-57 -4q-12 143 -35 211.5t-65 92t-122 23.5h-133q-33 0 -50 -18.5t-17 -50.5v-1266q0 -68 15 -100.5t60.5 -47t141.5 -14.5v-49h-668v49q96 0 142.5 14.5t61.5 47t15 100.5v1266q0 69 -67 69h-2h-133q-80 0 -122 -23.5 t-64.5 -93t-33.5 -210.5z" />
<glyph unicode="U" horiz-adv-x="1509" d="M10 1589v49h668v-49q-96 0 -142.5 -14t-61.5 -47t-15 -101v-880q0 -244 91 -355.5t275 -111.5q176 0 271.5 117.5t95.5 355.5v874q0 68 -15.5 101t-61.5 47t-142 14v49h528v-49q-96 0 -142 -14t-61.5 -47t-15.5 -101v-874q0 -258 -116.5 -422t-395.5 -164 q-281 0 -412 157t-131 423v880q0 68 -15 101t-60.5 47t-141.5 14z" />
<glyph unicode="V" horiz-adv-x="1456" d="M-8 1589v49h598v-49q-98 0 -135 -14t-37 -51q0 -20 18 -86l363 -1121h10l356 1121q20 61 21 86q0 37 -38 51t-136 14v49h448v-49q-90 0 -131 -29.5t-72 -121.5l-471 -1471h-102l-491 1471q-31 92 -71 121.5t-130 29.5z" />
<glyph unicode="W" horiz-adv-x="2013" d="M23 1589v49h575v-49q-90 0 -123 -15t-33 -54q0 -25 15 -86l288 -1104h9l231 903l-47 201q-23 96 -56.5 125.5t-111.5 29.5v49h569v-49q-102 0 -139 -17.5t-37 -62.5q0 -16 13 -77l239 -1102h6l287 1104q14 57 14 82q0 41 -36.5 57t-135.5 16v49h439v-49q-61 0 -96 -12 t-56.5 -45t-40.5 -98l-395 -1467h-111l-264 1100l-291 -1100h-108l-408 1469q-18 66 -40.5 97.5t-57.5 43.5t-98 12z" />
<glyph unicode="X" horiz-adv-x="1497" d="M10 0v51q92 0 155.5 41t125.5 146l340 587l-355 629q-47 82 -95 108.5t-132 26.5v49h627v-49q-98 0 -135 -9t-37 -36q0 -14 11 -37.5t28 -52.5l268 -475l285 475q34 57 34 86t-34.5 39t-118.5 10v49h457v-49q-92 0 -142.5 -25.5t-99.5 -107.5l-336 -559l404 -713 q45 -82 94 -108.5t137 -26.5v-49h-631v49q96 0 133 9.5t37 33.5q0 14 -11 39t-28 53l-313 557l-311 -544q-31 -51 -31 -84t37 -48.5t121 -15.5v-49h-484z" />
<glyph unicode="Y" horiz-adv-x="1376" d="M2 1589v49h629v-49q-106 0 -147.5 -11t-41.5 -40q0 -14 10.5 -38.5t22.5 -51.5l297 -608h6l279 606q12 29 22.5 54.5t10.5 39.5q0 27 -36 38t-126 11v49h446v-49q-90 0 -136 -27.5t-87 -115.5l-330 -719v-516q0 -68 15.5 -100.5t61.5 -47t142 -14.5v-49h-667v49 q96 0 141 14.5t60.5 47t15.5 100.5v510l-365 729q-43 86 -89 112.5t-134 26.5z" />
<glyph unicode="Z" horiz-adv-x="1144" d="M55 0v49l736 1497h-402q-80 0 -121 -24.5t-61.5 -94t-26.5 -215.5l-57 2l14 363l2 61h938l-747 -1546h446q80 0 124 27.5t71.5 107.5t48.5 242l57 -6l-51 -406l-8 -57h-963z" />
<glyph unicode="[" horiz-adv-x="602" d="M102 -512v2294h439v-84h-203v-2126h203v-84h-439z" />
<glyph unicode="\" horiz-adv-x="677" d="M0 1679h141l537 -1679h-141z" />
<glyph unicode="]" horiz-adv-x="602" d="M61 -428h203v2126h-203v84h439v-2294h-439v84z" />
<glyph unicode="^" horiz-adv-x="1183" d="M102 797l400 841h176l403 -841h-168l-321 690h-6l-316 -690h-168z" />
<glyph unicode="_" horiz-adv-x="1433" d="M0 -184h1434v-109h-1434v109z" />
<glyph unicode="`" horiz-adv-x="512" d="M55 1651h193l155 -375h-63z" />
<glyph unicode="a" d="M57 209q0 113 70 195.5t167 138t251 125.5l43 18v119q0 127 -40 182t-118 55q-61 0 -99 -29.5t-38 -78.5q0 -18 6 -36.5t8 -23.5q14 -33 15 -61q0 -43 -27 -68.5t-74 -25.5q-53 0 -82.5 34.5t-29.5 92.5q0 76 46 139.5t126.5 101t181.5 37.5q152 0 236.5 -85t84.5 -248 v-605q0 -72 13.5 -98.5t40.5 -26.5q74 0 80 170h47q-10 -264 -191 -264q-186 0 -186 269v36q-35 -145 -114 -225t-189 -80q-106 0 -167 68.5t-61 173.5zM254 264q0 -66 28.5 -103.5t82.5 -37.5q65 0 124.5 63.5t98.5 190.5v241q-160 -82 -247 -160.5t-87 -193.5z" />
<glyph unicode="b" horiz-adv-x="1034" d="M23 1532l157 78l152 78l28 -29v-729h9q126 192 297 192h2q139 0 221 -140t82 -390q0 -291 -114 -457t-322 -166q-94 0 -195.5 35t-179.5 102v1283q0 80 -4 105.5t-29 25.5t-82 -31zM360 170q29 -45 74 -76t101 -31q106 0 163.5 129.5t57.5 364.5q0 211 -51.5 317.5 t-141.5 106.5q-57 0 -109.5 -41t-93.5 -111v-659z" />
<glyph unicode="c" horiz-adv-x="841" d="M66 524q0 172 49 307.5t142 213t222 77.5t209 -74.5t80 -191.5q0 -66 -28.5 -101.5t-80.5 -35.5q-45 0 -70.5 26.5t-25.5 67.5q0 16 2 29.5t4 23.5q8 41 9 66q0 51 -27 77.5t-74 26.5q-104 0 -156.5 -122.5t-52.5 -311.5q0 -211 64.5 -345t185.5 -134q80 0 144.5 74.5 t89.5 253.5h49q-16 -244 -112.5 -364t-244.5 -120q-116 0 -202 71t-131 196.5t-45 289.5z" />
<glyph unicode="d" horiz-adv-x="1040" d="M66 510q0 178 46 317.5t131 217t195 77.5q76 0 136.5 -30.5t95.5 -83.5v383q0 76 -5.5 102.5t-29.5 26.5q-25 0 -86 -31l-21 43l314 156l26 -29v-1415q0 -82 7.5 -110t37.5 -28q23 0 84 23l19 -47l-303 -115l-43 35v168h-8q-41 -94 -112 -148.5t-167 -54.5t-168 67.5 t-110.5 190.5t-38.5 285zM276 559q0 -205 48.5 -326.5t144.5 -121.5q63 0 110.5 42t90.5 119v379q0 160 -48.5 262.5t-140.5 102.5q-102 0 -153.5 -126t-51.5 -331z" />
<glyph unicode="e" horiz-adv-x="884" d="M66 524q0 164 47 300.5t134 217t206 80.5q172 0 262 -144t90 -380h-541v-4q0 -215 65.5 -345t190.5 -130q80 0 146.5 73.5t101.5 245.5h49q-31 -240 -128 -355.5t-247 -115.5q-115 0 -199.5 68.5t-130.5 194.5t-46 294zM266 682h342q0 354 -155 354q-167 0 -187 -354z " />
<glyph unicode="f" horiz-adv-x="671" d="M37 0v49q68 0 99.5 13.5t42.5 46t11 102.5v790h-135v68l135 10v158q0 162 57.5 264.5t146.5 147.5t188 45q71 0 127.5 -22.5t88 -59.5t31.5 -78t-26.5 -69.5t-75.5 -28.5q-35 0 -56.5 18.5t-49.5 61.5q-33 49 -50.5 65t-44.5 16q-66 0 -101.5 -74.5t-35.5 -248.5v-189 h229v-84h-229v-790q0 -70 15.5 -102.5t58.5 -46t133 -13.5v-49h-559z" />
<glyph unicode="g" horiz-adv-x="999" d="M10 -236q0 156 215 252q-121 47 -121 160q0 66 41 119t117 100q-76 51 -117 135t-41 191q0 115 47.5 206t134.5 142t201 51q115 0 203 -53q59 33 120.5 50.5t113.5 17.5q75 0 75 -60q0 -33 -19 -52t-54 -19q-33 0 -64 8t-37 10q-48 15 -79 15q-7 0 -13 -1q61 -53 95 -132 t34 -177q0 -176 -103.5 -285.5t-273.5 -109.5q-94 0 -170 35q-67 -52 -67 -105q0 -33 13 -53.5t60.5 -32.5t141.5 -12h237q162 0 236 -51.5t74 -165.5q0 -113 -77 -212.5t-211 -158.5t-302 -59q-176 0 -293 63.5t-117 183.5zM174 -186q0 -72 72.5 -123t222.5 -51 q125 0 222 35.5t150.5 92t53.5 115.5q0 57 -44 78t-157 21h-254q-90 0 -147 14q-119 -94 -119 -182zM305 793q0 -150 51.5 -265.5t153.5 -115.5q76 0 115 65.5t39 173.5q0 152 -52.5 271.5t-150.5 119.5q-80 0 -118 -71.5t-38 -177.5z" />
<glyph unicode="h" horiz-adv-x="1112" d="M43 1526l160 84l151 78l27 -29v-752h6q76 106 151.5 160.5t174.5 54.5q109 0 166 -75.5t57 -221.5v-614q0 -70 10 -102.5t38 -46t89 -13.5v-49h-459v49q55 0 81 13.5t35 46t9 102.5v604q0 164 -121 164q-61 0 -118.5 -40t-118.5 -118v-610q0 -70 9 -102.5t36 -46 t82 -13.5v-49h-463v49q61 0 90 13.5t39 46t10 102.5l-2 1178q0 78 -4 102.5t-28 24.5q-23 0 -87 -33z" />
<glyph unicode="i" horiz-adv-x="573" d="M55 0v49q63 0 94 13.5t41.5 46t10.5 102.5v631q0 82 -6.5 110.5t-36.5 28.5q-23 0 -78 -23l-19 48l301 120l35 -30v-885q0 -70 10.5 -102.5t41 -46t94.5 -13.5v-49h-488zM150 1448q0 55 37.5 91t95.5 36q57 0 94 -36t37 -91q0 -53 -37 -89t-94 -36q-58 0 -95.5 36 t-37.5 89z" />
<glyph unicode="j" horiz-adv-x="530" d="M-143 -317q0 43 25.5 69.5t74.5 26.5q45 0 69.5 -23.5t36.5 -77.5q10 -45 23.5 -64.5t36.5 -19.5q45 0 61.5 72t16.5 223v953q0 80 -6.5 107.5t-36.5 27.5q-27 0 -88 -25l-21 47l311 127l39 -30v-1178q0 -197 -76.5 -299t-209.5 -102q-113 0 -184.5 47t-71.5 119z M147 1448q0 55 38 91t96 36q57 0 94 -36t37 -91q0 -53 -37 -89t-94 -36q-58 0 -96 36t-38 89z" />
<glyph unicode="k" horiz-adv-x="1101" d="M41 0v49q63 0 94 13.5t41 46t10 102.5v1184q0 76 -5 101.5t-29 25.5q-27 0 -89 -31l-20 45l311 152l31 -29v-1448q0 -70 9 -102.5t35 -46t83 -13.5v-49h-471zM428 618l231 287q45 53 46 84q0 25 -30 36t-91 11v49h465v-49q-80 0 -134.5 -21.5t-113.5 -90.5l-191 -230 l291 -510q47 -82 91 -108.5t114 -26.5v-49h-490v49q59 0 83 6t24 25q0 16 -19.5 52t-29.5 52z" />
<glyph unicode="l" horiz-adv-x="563" d="M41 0v49q63 0 94 13.5t41 46t10 102.5v1184q0 76 -5 101.5t-29 25.5q-27 0 -89 -31l-20 45l311 152l31 -29v-1448q0 -70 10.5 -102.5t40 -46t92.5 -13.5v-49h-487z" />
<glyph unicode="m" horiz-adv-x="1617" d="M53 1001l299 125l39 -30v-189h6q68 102 138.5 158.5t166.5 56.5q90 0 143.5 -55t69.5 -160h7q66 102 136 158.5t167 56.5q106 0 161.5 -75.5t55.5 -219.5v-616q0 -70 10 -102.5t38 -46t89 -13.5v-49h-453v49q53 0 78 13.5t33 46t8 102.5v606q0 162 -115 162 q-53 0 -104 -37t-106 -111v-4v-616q0 -70 8 -102.5t32.5 -46t77.5 -13.5v-49h-436v49q53 0 79 13.5t34 46t8 102.5v606q0 162 -115 162q-55 0 -107 -39t-110 -117v-612q0 -70 8.5 -102.5t34 -46t78.5 -13.5v-49h-457v49q61 0 90 13.5t39.5 46t10.5 102.5v631 q0 82 -6.5 109.5t-34.5 27.5q-23 0 -80 -23z" />
<glyph unicode="n" horiz-adv-x="1124" d="M53 1004l164 65l139 57l39 -30v-189h6q78 106 152 160.5t172 54.5q109 0 167 -76.5t58 -220.5v-614q0 -70 10.5 -102.5t38 -46t86.5 -13.5v-49h-458v49q55 0 80.5 13.5t35 46t9.5 102.5v602q0 166 -121 166q-61 0 -117.5 -40t-118.5 -118v-610q0 -70 9.5 -102.5t35 -46 t80.5 -13.5v-49h-463v49q61 0 90 13.5t39.5 46t10.5 102.5v631q0 84 -6.5 111.5t-34.5 27.5q-27 0 -82 -25z" />
<glyph unicode="o" horiz-adv-x="1009" d="M66 539q0 166 52 299t152.5 208.5t235.5 75.5q131 0 230.5 -72.5t154.5 -202.5t55 -296t-53 -299t-152.5 -209t-234.5 -76q-131 0 -231.5 73t-154.5 203t-54 296zM270 659q0 -147 30 -285t90.5 -227.5t146.5 -89.5q100 0 151 111t51 262q0 147 -29.5 285.5t-89 227.5 t-145.5 89q-102 0 -153.5 -110.5t-51.5 -262.5z" />
<glyph unicode="p" horiz-adv-x="1034" d="M20 -401q63 0 93 12t40.5 46t10.5 103v1082q0 84 -6 111.5t-37 27.5q-23 0 -80 -23l-18 48l307 120l32 -30v-181h9q127 207 288 207q150 0 228 -146.5t78 -391.5q0 -170 -42 -308.5t-122 -219.5t-189 -81q-74 0 -139 38t-106 110h-5v-363q0 -70 10.5 -103.5t41 -45.5 t94.5 -12v-50h-488v50zM362 444q0 -111 27 -195.5t72 -129.5t100 -45q98 0 143.5 135t45.5 344q0 428 -175 428q-59 0 -114 -45t-99 -119v-373z" />
<glyph unicode="q" horiz-adv-x="1007" d="M66 510q0 268 99 440t298 172q135 0 266 -86l102 90l31 -28v-1338q0 -70 10.5 -103.5t41 -45.5t94.5 -12v-50h-504v50q70 0 103.5 12t45 46t11.5 103v412h-9q-96 -203 -272 -203q-143 0 -230 141.5t-87 399.5zM274 549q0 -209 50.5 -323.5t142.5 -114.5q109 0 197 163 v553q-12 94 -60.5 141.5t-109.5 47.5q-117 0 -168.5 -130t-51.5 -337z" />
<glyph unicode="r" horiz-adv-x="808" d="M53 1004l164 65l139 57l37 -30v-197h6q49 92 121 157.5t150 65.5q53 0 81.5 -28.5t28.5 -79.5q0 -57 -29.5 -94t-70.5 -37q-27 0 -42 9t-38 34q-20 20 -31.5 27.5t-29.5 7.5q-37 0 -76 -50.5t-70 -142.5v-545q0 -74 15.5 -108.5t60.5 -49t141 -14.5v-51h-553v49 q61 0 90 13.5t39.5 46t10.5 102.5v631q0 84 -6.5 111.5t-34.5 27.5q-27 0 -82 -25z" />
<glyph unicode="s" horiz-adv-x="765" d="M63 432h46q23 -178 101.5 -278.5t186.5 -100.5q72 0 110 45t38 125q0 47 -18.5 81t-63.5 76t-152 128q-133 104 -183 176t-50 158q0 125 81 202.5t203 77.5q109 0 193 -69q14 -14 29 -15q18 0 24 25l13 45h47l8 -358h-45q-18 125 -86 205.5t-166 80.5q-61 0 -98 -37.5 t-37 -99.5q0 -59 39 -104t157 -140q152 -119 212.5 -198.5t60.5 -190.5q0 -145 -84 -222t-211 -77q-121 0 -223 74q-14 12 -29 12q-14 0 -27 -22l-16 -41h-45z" />
<glyph unicode="t" horiz-adv-x="706" d="M23 1001v76q113 2 180 82t84 225h73v-299h246v-84h-241v-598q0 -152 23.5 -227.5t90.5 -75.5q70 0 103.5 88t33.5 271h58q0 -250 -59.5 -371t-204.5 -121q-125 0 -184.5 87t-59.5 296v651h-143z" />
<glyph unicode="u" horiz-adv-x="1073" d="M18 1004l316 102l28 -27v-796q0 -90 29 -134.5t86 -44.5t116.5 43t113.5 115v578q0 80 -8.5 107.5t-43.5 27.5q-25 0 -80 -17l-14 46l318 102l26 -27v-835q0 -80 8.5 -109t38.5 -29q31 0 84 21l19 -47l-303 -113l-41 35l-4 174l-7 2q-133 -211 -313 -211 q-104 0 -163.5 79t-59.5 216v578q0 78 -9.5 106.5t-41.5 28.5q-25 0 -80 -17z" />
<glyph unicode="v" horiz-adv-x="1011" d="M4 1036v49h475v-49q-68 0 -94.5 -11t-26.5 -44q0 -27 21 -98l172 -600h12l182 600q23 71 23 100q0 31 -24.5 42t-92.5 11v49h355v-49q-72 0 -108 -30.5t-64 -122.5l-279 -899h-111l-278 899q-29 92 -62.5 122.5t-99.5 30.5z" />
<glyph unicode="w" horiz-adv-x="1478" d="M6 1036v49h430v-49q-45 0 -62.5 -9t-17.5 -34q0 -23 25 -110l174 -607h8l150 560l-13 45q-25 94 -52 124.5t-85 30.5v49h428v-49q-55 0 -76.5 -12t-21.5 -47q0 -29 16 -98l140 -603h8l172 607q2 10 12 46t10 54q0 31 -24.5 42t-89.5 11v49h336v-49q-66 0 -100 -30.5 t-58 -122.5l-260 -901h-123l-178 696l-189 -696h-129l-268 901q-29 92 -62.5 122.5t-99.5 30.5z" />
<glyph unicode="x" horiz-adv-x="999" d="M12 0v49q76 0 119 26.5t86 112.5l174 347l-182 362q-43 84 -83 111.5t-103 27.5v49h450v-49q-53 0 -73.5 -6t-20.5 -24q0 -25 45 -109l119 -233l121 233q20 37 33.5 65.5t13.5 43.5q0 18 -22.5 24t-76.5 6v49h338v-49q-66 0 -108.5 -27.5t-85.5 -109.5l-170 -321 l196 -390q43 -84 84 -111.5t111 -27.5v-49h-469v49q57 0 79.5 7t22.5 26q0 16 -19.5 55l-25.5 51l-131 258l-125 -256q-16 -35 -28.5 -62.5t-12.5 -41.5q0 -20 23.5 -28.5t83.5 -8.5v-49h-363z" />
<glyph unicode="y" horiz-adv-x="987" d="M6 1036v49h479v-49q-68 0 -93 -11t-25 -44q0 -27 20 -98l172 -602h10l170 602q20 72 21 98q0 33 -25.5 44t-93.5 11v49h338v-49q-63 0 -96 -30.5t-60 -122.5l-258 -871q-49 -162 -94 -264t-109.5 -163.5t-156.5 -63.5q-74 0 -122 40t-48 101q0 49 28.5 77t73.5 28 q35 0 57.5 -16.5t43.5 -45.5q18 -27 34.5 -37t38.5 -10q76 0 133 221q2 10 2 37q0 72 -18 158l-254 809q-31 94 -64.5 123.5t-103.5 29.5z" />
<glyph unicode="z" horiz-adv-x="829" d="M51 0l4 49l477 952h-219q-78 0 -114.5 -18t-51 -68.5t-14.5 -158.5h-53v329h690v-49l-477 -952h225q76 0 113 21.5t51 81t14 186.5h54v-373h-699z" />
<glyph unicode="{" horiz-adv-x="821" d="M88 633v49q135 0 213 64.5t78 193.5q0 68 -31 199q-37 156 -37 254q0 158 102.5 257t336.5 132v-49q-145 -27 -200.5 -100.5t-55.5 -174.5q0 -51 12 -97t35 -108q27 -74 39 -123t12 -110q0 -117 -50 -194.5t-125 -116.5t-155 -47v-7q80 -8 155 -48t125 -118.5t50 -195.5 q0 -61 -12.5 -115.5t-38.5 -136.5q-23 -72 -35 -123t-12 -104q0 -109 58 -180.5t198 -96.5v-49q-231 33 -335 129t-104 264q0 63 9.5 125t27.5 148q31 150 31 225q0 129 -75 191.5t-216 62.5z" />
<glyph unicode="|" horiz-adv-x="356" d="M102 -328v2007h152v-2007h-152z" />
<glyph unicode="}" horiz-adv-x="821" d="M72 -463q139 25 198.5 96.5t59.5 180.5q0 53 -12.5 104t-34.5 123q-27 82 -39.5 136t-12.5 116q0 117 50.5 195.5t125 118.5t154.5 48v7q-80 8 -154.5 47t-125 116.5t-50.5 194.5q0 61 12.5 110.5t39.5 122.5q23 61 35 107.5t12 97.5q0 227 -258 275v49 q236 -33 338 -132.5t102 -256.5q0 -98 -37 -254q-31 -131 -31 -199q0 -129 78 -193.5t213 -64.5v-49q-291 0 -291 -254q0 -76 31 -225q18 -86 27.5 -147.5t9.5 -125.5q0 -168 -104.5 -264t-335.5 -129v49z" />
<glyph unicode="~" horiz-adv-x="1265" d="M102 475q6 147 77 233.5t188 86.5q68 0 130 -21.5t146 -64.5q92 -43 148.5 -63.5t121.5 -20.5q168 0 201 168h49q-6 -147 -76.5 -233.5t-189.5 -86.5q-66 0 -124 20.5t-148 63.5q-82 41 -143.5 62.5t-131.5 21.5q-168 0 -198 -166h-50z" />
<glyph unicode="&#xa1;" horiz-adv-x="452" d="M106 1004q0 49 35 84.5t86 35.5q49 0 84 -35.5t35 -84.5q0 -51 -35 -86t-84 -35q-51 0 -86 34.5t-35 86.5zM119 -453q0 56 7 125.5t15 145.5q25 197 40.5 385t17.5 467h59q2 -281 17.5 -473.5t37.5 -376.5q8 -76 15.5 -147.5t7.5 -125.5q0 -68 -28.5 -102.5t-80.5 -34.5 q-53 0 -80.5 35t-27.5 102z" />
<glyph unicode="&#xa2;" horiz-adv-x="940" d="M92 524q0 172 49 307.5t142.5 213t222.5 77.5q51 0 94 -12l127 528h70l-133 -555q61 -35 96 -94t35 -133q0 -66 -29 -101.5t-80 -35.5q-39 0 -62.5 19.5t-31.5 49.5l-152 -632q49 -33 107 -33q80 0 143.5 74.5t87.5 253.5h49q-16 -244 -112.5 -364t-243.5 -120 q-43 0 -74 8l-102 -426h-72l109 449q-115 53 -177.5 192.5t-62.5 333.5zM295 602q0 -123 22.5 -222t65.5 -165l192 797q-25 25 -71 24q-104 0 -156.5 -122.5t-52.5 -311.5z" />
<glyph unicode="&#xa3;" horiz-adv-x="1312" d="M102 135q0 86 60.5 135t156.5 49q61 0 132 -26q16 92 16 229q0 117 -18 246h-256v68h243l-24 112q-23 106 -32 160.5t-9 118.5q0 215 104.5 333.5t282.5 118.5q109 0 184.5 -36.5t112.5 -95t37 -117.5q0 -53 -29 -84t-84 -31q-53 0 -83 30.5t-30 92.5q0 74 -19.5 115.5 t-90.5 41.5q-92 0 -137.5 -78.5t-45.5 -224.5q0 -63 10.5 -122.5t32.5 -145.5q29 -115 39 -188h281v-68h-272q6 -57 6 -123q0 -240 -76 -416q70 -33 130 -51t126 -18q133 0 213 87t129 234h51q-33 -141 -64.5 -241.5t-107.5 -189.5t-197 -89q-90 0 -168.5 40t-175.5 112 q-109 -152 -251 -152q-76 0 -126.5 47t-50.5 127zM195 137q0 -39 22.5 -64.5t63.5 -25.5q98 0 145 139q-78 49 -133 50q-45 0 -71.5 -27t-26.5 -72z" />
<glyph unicode="&#xa4;" horiz-adv-x="1339" d="M102 276l193 193q-90 123 -90 276q0 154 90 277l-193 192l99 99l192 -193q119 90 277 90q152 0 276 -92l193 195l98 -99l-195 -192q92 -121 93 -277q-1 -151 -93 -276l195 -193l-98 -98l-193 195q-125 -92 -276 -92q-156 0 -277 92l-192 -195zM344 745q0 -88 43 -162.5 t117 -118.5t166 -44t165.5 44t116.5 118.5t43 162.5q0 90 -43 164t-116.5 118t-165.5 44t-166 -44t-117 -117.5t-43 -164.5z" />
<glyph unicode="&#xa5;" horiz-adv-x="1556" d="M92 1589v49h629v-49q-106 0 -147.5 -11t-41.5 -40q0 -14 10.5 -38.5t22.5 -51.5l297 -608h4l281 606q12 29 22.5 54.5t10.5 39.5q0 29 -36 39t-128 10v49h446v-49q-90 0 -135 -27.5t-86 -115.5l-283 -617h431v-69h-463l-15 -33v-145h478v-70h-478v-301q0 -68 15.5 -100.5 t60.5 -47t141 -14.5v-49h-667v49q96 0 142 14.5t61.5 47t15.5 100.5v301h-512v70h512v139l-18 39h-494v69h459l-312 621q-43 86 -89 112.5t-134 26.5z" />
<glyph unicode="&#xa6;" horiz-adv-x="356" d="M102 -328v820h152v-820h-152zM102 860v819h152v-819h-152z" />
<glyph unicode="&#xa7;" horiz-adv-x="921" d="M102 754q0 106 55.5 186t145.5 152q-113 131 -113 274q0 100 43 170t114 105.5t149 35.5q86 0 152.5 -31.5t102 -82t35.5 -101.5q0 -43 -24.5 -71.5t-65.5 -28.5q-43 0 -68.5 26.5t-25.5 77.5q0 66 -27.5 105t-103.5 39q-82 0 -129 -54.5t-47 -140.5q0 -82 53 -152.5 t195 -189.5q106 -90 162.5 -147.5t85 -120t28.5 -141.5q0 -105 -55 -185t-148 -151q115 -133 115 -275q0 -100 -43 -170.5t-112.5 -106.5t-149.5 -36q-86 0 -153.5 31.5t-103.5 82t-36 101.5q0 45 24.5 73.5t65.5 28.5q45 0 69.5 -26.5t24.5 -79.5q0 -66 29 -103.5 t105 -37.5q82 0 129 54t47 140q0 80 -53.5 150.5t-194.5 191.5q-106 88 -162.5 146.5t-85.5 121t-29 140.5zM213 819q0 -66 26.5 -116t80 -100t172.5 -150q55 -47 90 -86q61 55 93 110t32 121q0 63 -27 114.5t-80 102.5t-166 148q-70 61 -96 90q-63 -55 -94 -111.5 t-31 -122.5z" />
<glyph unicode="&#xa8;" horiz-adv-x="849" d="M110 1425q0 49 36 85t85 36t85 -35.5t36 -85.5q0 -49 -36 -84.5t-85 -35.5t-85 35.5t-36 84.5zM499 1425q0 49 36 85t85 36t85 -35.5t36 -85.5q0 -49 -36 -84.5t-85 -35.5t-85 35.5t-36 84.5z" />
<glyph unicode="&#xa9;" horiz-adv-x="1884" d="M94 817q0 242 111.5 441.5t305.5 314.5t433 115q236 0 429.5 -116t305 -314.5t111.5 -440.5q0 -236 -111.5 -434.5t-305 -315t-429.5 -116.5q-238 0 -432.5 116.5t-306 315.5t-111.5 434zM164 817q0 -219 101.5 -402.5t279.5 -289t399 -105.5q215 0 393.5 106.5 t280.5 289t102 401.5t-102 402.5t-280.5 291t-393.5 107.5q-221 0 -399 -107.5t-279.5 -291t-101.5 -402.5zM422 815q0 152 67.5 273.5t184.5 190.5t260 69q100 0 164.5 -25t130.5 -66q4 -2 21.5 -13t27.5 -11q12 0 16 14.5t4 59.5h48l30 -379h-47q-20 162 -121.5 249 t-251.5 87q-104 0 -188 -55.5t-132 -157t-48 -236.5t49 -236.5t137 -155.5t203 -54q152 0 262.5 93t157.5 263h49q-53 -207 -180 -324.5t-330 -117.5q-150 0 -266.5 68.5t-182 189.5t-65.5 274z" />
<glyph unicode="&#xab;" horiz-adv-x="929" d="M94 600l348 494h50l-216 -494l216 -500h-50zM438 600l348 494h50l-216 -494l216 -500h-50z" />
<glyph unicode="&#xac;" horiz-adv-x="1220" d="M102 762v151h1016v-600h-151v449h-865z" />
<glyph unicode="&#xad;" horiz-adv-x="911" d="M102 479v148h707v-148h-707z" />
<glyph unicode="&#xae;" horiz-adv-x="1886" d="M94 823q0 240 111.5 437.5t305.5 312.5t431 115q238 0 432.5 -115t306 -312.5t111.5 -437.5t-112.5 -439.5t-307 -316t-430.5 -116.5q-238 0 -431.5 116.5t-305 316.5t-111.5 439zM164 819q0 -219 101.5 -402.5t279.5 -290t397 -106.5q217 0 396.5 106.5t281.5 290 t102 402.5t-102 402.5t-281.5 290t-396.5 106.5q-219 0 -397 -106.5t-279.5 -290t-101.5 -402.5zM516 289v49q47 0 69.5 14.5t31 47t8.5 100.5v643q0 68 -8.5 100.5t-31 47t-69.5 14.5v49h363q164 0 285.5 -61.5t121.5 -227.5q0 -115 -70.5 -190.5t-205.5 -102.5 q33 -12 61.5 -43t58.5 -88l89 -154q51 -92 92 -120.5t114 -30.5v-47h-145q-72 0 -113 27.5t-75 93.5l-187 350q-14 -2 -49 -2h-90v-258q0 -68 9 -100.5t35 -47t79 -14.5v-49h-373zM766 823h72q133 0 211.5 62.5t78.5 175.5q0 115 -67.5 171t-179.5 56q-70 0 -115 -16v-449z " />
<glyph unicode="&#xaf;" horiz-adv-x="808" d="M119 1372v103h571v-103h-571z" />
<glyph unicode="&#xb0;" horiz-adv-x="780" d="M61 1374q0 139 92.5 230.5t235.5 91.5t236.5 -91.5t93.5 -230.5q0 -141 -93.5 -232t-236.5 -91t-235.5 91t-92.5 232zM188 1374q0 -92 56.5 -151.5t144.5 -59.5t145.5 59.5t57.5 151.5q0 90 -57.5 149.5t-145.5 59.5t-144.5 -59.5t-56.5 -149.5z" />
<glyph unicode="&#xb1;" horiz-adv-x="1046" d="M102 690v152h347v344h151v-344h342v-152h-342v-344h-151v344h-347zM104 160v159h840v-159h-840z" />
<glyph unicode="&#xb4;" horiz-adv-x="512" d="M109 1276l155 375h193l-285 -375h-63z" />
<glyph unicode="&#xb6;" horiz-adv-x="1323" d="M102 1247q0 190 127 290.5t340 100.5h652v-49q-96 0 -142.5 -14t-62 -47t-15.5 -101v-1878h-96v2005h-237v-2005h-99v1307q-213 0 -340 100.5t-127 290.5z" />
<glyph unicode="&#xb7;" horiz-adv-x="446" d="M102 817q0 49 35 85t86 36q49 0 85 -36t36 -85q0 -51 -36 -86t-85 -35q-51 0 -86 35t-35 86z" />
<glyph unicode="&#xb8;" horiz-adv-x="681" d="M94 -508l12 47q23 -2 62 -2q121 0 186.5 41t65.5 125q0 74 -53.5 105.5t-151.5 33.5l104 178h80l-61 -124q104 -8 168.5 -52.5t64.5 -132.5q0 -111 -105.5 -169t-258.5 -58q-63 0 -113 8z" />
<glyph unicode="&#xbb;" horiz-adv-x="929" d="M94 100l215 500l-215 494h49l349 -494l-349 -500h-49zM438 100l215 500l-215 494h49l349 -494l-349 -500h-49z" />
<glyph unicode="&#xbc;" horiz-adv-x="1587" d="M127 1540l286 131l19 -18v-854q0 -43 8 -62.5t33.5 -28t79.5 -8.5v-28h-404v28q57 0 85 8.5t37 28t9 62.5v671q0 43 -6 60.5t-27 17.5q-27 0 -108 -37zM234 0l1017 1638h89l-1018 -1638h-88zM794 262v113l412 622h106v-622h121v-113h-121v-135q0 -61 21.5 -80t93.5 -19 v-28h-369v28q53 0 78 8.5t33 28t8 62.5v135h-383zM860 375h317v489l-317 -485v-4z" />
<glyph unicode="&#xbd;" horiz-adv-x="1783" d="M127 1540l286 131l19 -18v-854q0 -43 8 -62.5t33.5 -28t79.5 -8.5v-28h-404v28q57 0 85 8.5t37 28t9 62.5v671q0 43 -6 60.5t-27 17.5q-27 0 -108 -37zM254 0l1017 1638h89l-1018 -1638h-88zM1034 0v28q147 156 233.5 258.5t138.5 206t52 203.5q0 86 -41 135t-120 49 q-92 0 -145.5 -69.5t-57.5 -186.5h-35q0 168 84 271.5t227 103.5q115 0 176.5 -63.5t61.5 -167.5q0 -143 -111.5 -299t-306.5 -342v-8h303q60 0 86.5 24.5t54.5 102.5l27 -11l-47 -133l-37 -102h-543z" />
<glyph unicode="&#xbe;" horiz-adv-x="1751" d="M166 754q0 24 17.5 39.5t42.5 15.5q27 0 40 -11.5t33 -39.5q18 -25 41 -36t58 -11q76 0 129 52t53 165q0 125 -71.5 182t-178.5 57v31q221 55 221 227q0 66 -36.5 109t-108.5 43q-141 0 -182 -145h-33q16 115 87 177t181 62q102 0 170 -59.5t68 -161.5 q0 -84 -59.5 -149.5t-166.5 -100.5v-4q117 -12 190 -75.5t73 -176.5q0 -135 -101.5 -213t-251.5 -78q-86 0 -150.5 28t-64.5 73zM410 0l1017 1638h89l-1018 -1638h-88zM958 262v113l412 622h106v-622h121v-113h-121v-135q0 -61 21.5 -80t93.5 -19v-28h-369v28q53 0 78 8.5 t33 28t8 62.5v135h-383zM1024 375h317v489l-317 -485v-4z" />
<glyph unicode="&#xbf;" horiz-adv-x="806" d="M53 -262q0 100 60.5 189t208.5 216q111 92 154.5 158t43.5 133q0 45 -23.5 100.5t-56.5 96.5h70q74 -96 110.5 -172t36.5 -144q0 -80 -45 -148.5t-157 -170.5q-129 -113 -184.5 -183.5t-55.5 -146.5q0 -70 39 -111.5t123 -41.5q111 0 183.5 85t82.5 232h59l13 -317 q-45 -45 -128 -75t-171 -30q-98 0 -181 41t-132.5 116t-49.5 173zM330 1004q0 49 34.5 84.5t86.5 35.5q49 0 83.5 -35.5t34.5 -84.5q0 -51 -34.5 -86t-83.5 -35q-51 0 -86 34.5t-35 86.5z" />
<glyph unicode="&#xc0;" horiz-adv-x="1419" d="M-45 0v49q98 0 141 30t74 122l479 1462h113l483 -1462q33 -92 77 -122t144 -30v-49h-622v49q104 0 143 14.5t39 53.5q0 23 -18 86l-99 315h-549l-100 -317q-20 -61 -20 -86q0 -37 38.5 -51.5t139.5 -14.5v-49h-463zM387 598h496l-242 770h-8zM444 2155h193l155 -375h-63z " />
<glyph unicode="&#xc1;" horiz-adv-x="1419" d="M-45 0v49q98 0 141 30t74 122l479 1462h113l483 -1462q33 -92 77 -122t144 -30v-49h-622v49q104 0 143 14.5t39 53.5q0 23 -18 86l-99 315h-549l-100 -317q-20 -61 -20 -86q0 -37 38.5 -51.5t139.5 -14.5v-49h-463zM387 598h496l-242 770h-8zM639 1780l155 375h193 l-285 -375h-63z" />
<glyph unicode="&#xc2;" horiz-adv-x="1419" d="M-45 0v49q98 0 141 30t74 122l479 1462h113l483 -1462q33 -92 77 -122t144 -30v-49h-622v49q104 0 143 14.5t39 53.5q0 23 -18 86l-99 315h-549l-100 -317q-20 -61 -20 -86q0 -37 38.5 -51.5t139.5 -14.5v-49h-463zM387 598h496l-242 770h-8zM416 1780l194 375h199 l195 -375h-66l-229 268l-230 -268h-63z" />
<glyph unicode="&#xc3;" horiz-adv-x="1419" d="M-45 0v49q98 0 141 30t74 122l479 1462h113l483 -1462q33 -92 77 -122t144 -30v-49h-622v49q104 0 143 14.5t39 53.5q0 23 -18 86l-99 315h-549l-100 -317q-20 -61 -20 -86q0 -37 38.5 -51.5t139.5 -14.5v-49h-463zM387 598h496l-242 770h-8zM387 1790q12 125 50 203 t124 78q47 0 83 -18.5t85 -55.5q47 -35 78 -51.5t68 -16.5q53 0 76.5 37t31.5 109h50q-12 -125 -50.5 -203t-124.5 -78q-47 0 -82.5 19.5t-87.5 56.5q-47 35 -76.5 50.5t-64.5 15.5q-53 0 -76.5 -37t-33.5 -109h-50z" />
<glyph unicode="&#xc4;" horiz-adv-x="1419" d="M-45 0v49q98 0 141 30t74 122l479 1462h113l483 -1462q33 -92 77 -122t144 -30v-49h-622v49q104 0 143 14.5t39 53.5q0 23 -18 86l-99 315h-549l-100 -317q-20 -61 -20 -86q0 -37 38.5 -51.5t139.5 -14.5v-49h-463zM387 598h496l-242 770h-8zM395 1929q0 49 36 85t85 36 t85 -35.5t36 -85.5q0 -49 -36 -84.5t-85 -35.5t-85 35.5t-36 84.5zM784 1929q0 49 36 85t85 36t85 -35.5t36 -85.5q0 -49 -36 -84.5t-85 -35.5t-85 35.5t-36 84.5z" />
<glyph unicode="&#xc5;" horiz-adv-x="1419" d="M-45 0v49q98 0 141 30t74 122l479 1462h113l483 -1462q33 -92 77 -122t144 -30v-49h-622v49q104 0 143 14.5t39 53.5q0 23 -18 86l-99 315h-549l-100 -317q-20 -61 -20 -86q0 -37 38.5 -51.5t139.5 -14.5v-49h-463zM387 598h496l-242 770h-8zM499 1999q0 86 60.5 143.5 t150.5 57.5q88 0 147.5 -57.5t59.5 -143.5q0 -88 -59.5 -146.5t-147.5 -58.5q-90 0 -150.5 58.5t-60.5 146.5zM577 1999q0 -57 38 -94t95 -37q56 0 93.5 37t37.5 94q0 55 -37.5 92t-93.5 37q-57 0 -95 -37t-38 -92z" />
<glyph unicode="&#xc6;" horiz-adv-x="1849" d="M-45 0v49q96 0 143 27.5t84 118.5l529 1249q29 68 28 92q0 31 -35.5 42t-130.5 11v49h1113l6 -63l34 -330l-55 -6q-14 131 -38.5 196.5t-65.5 88t-119 22.5h-279q-82 0 -82 -82v-577h228q63 0 95 17.5t46 67.5t14 156h48v-555h-48q0 104 -14 154.5t-46 68t-95 17.5h-228 v-604q0 -72 18.5 -94.5t78.5 -22.5h270q80 0 129 29t86 107.5t78 236.5l59 -16l-100 -390l-16 -59h-1053v49q96 0 142 14.5t61.5 47t15.5 100.5v321h-440l-144 -337q-12 -29 -20 -53.5t-8 -39.5q0 -31 35.5 -42t128.5 -11v-49h-453zM449 612h407v949h-6z" />
<glyph unicode="&#xc7;" horiz-adv-x="1349" d="M72 805q0 246 83 443.5t234.5 310t345.5 112.5q203 0 336 -127q16 -16 33 -16q23 0 26 35l11 90h47l31 -580h-48q-90 508 -399 508q-139 0 -241.5 -97.5t-155.5 -267t-53 -385.5q0 -215 54 -383.5t155.5 -264t240.5 -95.5q180 0 294 159t148 419h60q-31 -328 -170 -511.5 t-389 -187.5l-35 -73q102 -8 166.5 -51.5t64.5 -131.5q0 -113 -106.5 -171t-261.5 -58q-37 0 -107 8l13 49q23 -2 65 -2q119 0 183.5 41t64.5 123q0 76 -54.5 107.5t-150.5 33.5l74 129q-174 20 -301 135t-192.5 296.5t-65.5 402.5z" />
<glyph unicode="&#xc8;" horiz-adv-x="1269" d="M39 0v49q96 0 141 14.5t60.5 47t15.5 100.5v1216q0 68 -15.5 101t-60.5 47t-141 14v49h1073l6 -61l39 -352l-57 -6q-16 141 -40 209.5t-65 93t-118 24.5h-293q-47 0 -72 -24.5t-25 -71.5v-563h254q66 0 97.5 17.5t45 67.5t13.5 156h47v-555h-47q0 104 -13.5 154.5t-45 68 t-97.5 17.5h-254v-604q0 -72 18.5 -94.5t78.5 -22.5h290q80 0 129.5 29t87 107.5t78.5 236.5l58 -16l-101 -390l-16 -59h-1071zM379 2155h193l155 -375h-63z" />
<glyph unicode="&#xc9;" horiz-adv-x="1269" d="M39 0v49q96 0 141 14.5t60.5 47t15.5 100.5v1216q0 68 -15.5 101t-60.5 47t-141 14v49h1073l6 -61l39 -352l-57 -6q-16 141 -40 209.5t-65 93t-118 24.5h-293q-47 0 -72 -24.5t-25 -71.5v-563h254q66 0 97.5 17.5t45 67.5t13.5 156h47v-555h-47q0 104 -13.5 154.5t-45 68 t-97.5 17.5h-254v-604q0 -72 18.5 -94.5t78.5 -22.5h290q80 0 129.5 29t87 107.5t78.5 236.5l58 -16l-101 -390l-16 -59h-1071zM574 1780l155 375h193l-285 -375h-63z" />
<glyph unicode="&#xca;" horiz-adv-x="1269" d="M39 0v49q96 0 141 14.5t60.5 47t15.5 100.5v1216q0 68 -15.5 101t-60.5 47t-141 14v49h1073l6 -61l39 -352l-57 -6q-16 141 -40 209.5t-65 93t-118 24.5h-293q-47 0 -72 -24.5t-25 -71.5v-563h254q66 0 97.5 17.5t45 67.5t13.5 156h47v-555h-47q0 104 -13.5 154.5t-45 68 t-97.5 17.5h-254v-604q0 -72 18.5 -94.5t78.5 -22.5h290q80 0 129.5 29t87 107.5t78.5 236.5l58 -16l-101 -390l-16 -59h-1071zM352 1780l194 375h199l195 -375h-66l-229 268l-230 -268h-63z" />
<glyph unicode="&#xcb;" horiz-adv-x="1269" d="M39 0v49q96 0 141 14.5t60.5 47t15.5 100.5v1216q0 68 -15.5 101t-60.5 47t-141 14v49h1073l6 -61l39 -352l-57 -6q-16 141 -40 209.5t-65 93t-118 24.5h-293q-47 0 -72 -24.5t-25 -71.5v-563h254q66 0 97.5 17.5t45 67.5t13.5 156h47v-555h-47q0 104 -13.5 154.5t-45 68 t-97.5 17.5h-254v-604q0 -72 18.5 -94.5t78.5 -22.5h290q80 0 129.5 29t87 107.5t78.5 236.5l58 -16l-101 -390l-16 -59h-1071zM331 1929q0 49 36 85t85 36t85 -35.5t36 -85.5q0 -49 -36 -84.5t-85 -35.5t-85 35.5t-36 84.5zM720 1929q0 49 36 85t85 36t85 -35.5t36 -85.5 q0 -49 -36 -84.5t-85 -35.5t-85 35.5t-36 84.5z" />
<glyph unicode="&#xcc;" horiz-adv-x="743" d="M39 0v49q96 0 141 14.5t60.5 47t15.5 100.5v1216q0 68 -15.5 101t-60.5 47t-141 14v49h668v-49q-96 0 -142.5 -14t-62 -47t-15.5 -101v-1216q0 -68 15.5 -100.5t61.5 -47t143 -14.5v-49h-668zM104 2155h193l155 -375h-63z" />
<glyph unicode="&#xcd;" horiz-adv-x="743" d="M39 0v49q96 0 141 14.5t60.5 47t15.5 100.5v1216q0 68 -15.5 101t-60.5 47t-141 14v49h668v-49q-96 0 -142.5 -14t-62 -47t-15.5 -101v-1216q0 -68 15.5 -100.5t61.5 -47t143 -14.5v-49h-668zM302 1780l155 375h193l-285 -375h-63z" />
<glyph unicode="&#xce;" horiz-adv-x="743" d="M39 0v49q96 0 141 14.5t60.5 47t15.5 100.5v1216q0 68 -15.5 101t-60.5 47t-141 14v49h668v-49q-96 0 -142.5 -14t-62 -47t-15.5 -101v-1216q0 -68 15.5 -100.5t61.5 -47t143 -14.5v-49h-668zM78 1780l194 375h199l195 -375h-66l-229 268l-230 -268h-63z" />
<glyph unicode="&#xcf;" horiz-adv-x="743" d="M39 0v49q96 0 141 14.5t60.5 47t15.5 100.5v1216q0 68 -15.5 101t-60.5 47t-141 14v49h668v-49q-96 0 -142.5 -14t-62 -47t-15.5 -101v-1216q0 -68 15.5 -100.5t61.5 -47t143 -14.5v-49h-668zM57 1929q0 49 36 85t85 36t85 -35.5t36 -85.5q0 -49 -36 -84.5t-85 -35.5 t-85 35.5t-36 84.5zM446 1929q0 49 36 85t85 36t85 -35.5t36 -85.5q0 -49 -36 -84.5t-85 -35.5t-85 35.5t-36 84.5z" />
<glyph unicode="&#xd0;" horiz-adv-x="1507" d="M39 0v49q96 0 141 14.5t60.5 47t15.5 100.5v616h-174v68h174v532q0 68 -15.5 101t-60.5 47t-141 14v49h590q223 0 408.5 -90t297 -276.5t111.5 -460.5q0 -264 -105.5 -447.5t-286 -273.5t-405.5 -90h-610zM487 172q0 -49 33 -68.5t105 -19.5q190 0 320 92t194.5 253 t64.5 368q0 229 -76.5 401t-208 264t-292.5 92q-68 0 -101 -12q-39 -8 -39 -53v-594h367v-68h-367v-655z" />
<glyph unicode="&#xd1;" horiz-adv-x="1533" d="M39 0v49q96 0 141 14.5t60.5 47t15.5 100.5v1243l-2 4q-49 80 -95 105.5t-118 25.5v49h375l790 -1280v1069q0 68 -15 101t-60.5 47t-141.5 14v49h522v-49q-96 0 -142 -14t-61.5 -47t-15.5 -101v-1447h-114l-836 1337v-1106q0 -68 16.5 -100.5t63.5 -47t147 -14.5v-49 h-530zM452 1790q12 125 50 203t124 78q47 0 83 -18.5t85 -55.5q47 -35 78 -51.5t68 -16.5q53 0 76.5 37t31.5 109h50q-12 -125 -50.5 -203t-124.5 -78q-47 0 -82.5 19.5t-87.5 56.5q-47 35 -76.5 50.5t-64.5 15.5q-53 0 -76.5 -37t-33.5 -109h-50z" />
<glyph unicode="&#xd2;" horiz-adv-x="1417" d="M72 819q0 238 79.5 432.5t224 306t331.5 111.5q188 0 334.5 -112.5t226.5 -307t80 -432.5q0 -240 -79 -433.5t-223.5 -305t-332.5 -111.5q-189 0 -335.5 113t-226 307.5t-79.5 431.5zM307 993q0 -227 52.5 -444t153.5 -355.5t243 -138.5q112 0 193 82t122 216t41 292 q0 225 -52 441.5t-154.5 355.5t-241.5 139q-111 0 -192 -82t-123 -217t-42 -289zM444 2155h193l155 -375h-63z" />
<glyph unicode="&#xd3;" horiz-adv-x="1417" d="M72 819q0 238 79.5 432.5t224 306t331.5 111.5q188 0 334.5 -112.5t226.5 -307t80 -432.5q0 -240 -79 -433.5t-223.5 -305t-332.5 -111.5q-189 0 -335.5 113t-226 307.5t-79.5 431.5zM307 993q0 -227 52.5 -444t153.5 -355.5t243 -138.5q112 0 193 82t122 216t41 292 q0 225 -52 441.5t-154.5 355.5t-241.5 139q-111 0 -192 -82t-123 -217t-42 -289zM641 1780l155 375h193l-285 -375h-63z" />
<glyph unicode="&#xd4;" horiz-adv-x="1417" d="M72 819q0 238 79.5 432.5t224 306t331.5 111.5q188 0 334.5 -112.5t226.5 -307t80 -432.5q0 -240 -79 -433.5t-223.5 -305t-332.5 -111.5q-189 0 -335.5 113t-226 307.5t-79.5 431.5zM307 993q0 -227 52.5 -444t153.5 -355.5t243 -138.5q112 0 193 82t122 216t41 292 q0 225 -52 441.5t-154.5 355.5t-241.5 139q-111 0 -192 -82t-123 -217t-42 -289zM418 1780l194 375h199l195 -375h-66l-229 268l-230 -268h-63z" />
<glyph unicode="&#xd5;" horiz-adv-x="1417" d="M72 819q0 238 79.5 432.5t224 306t331.5 111.5q188 0 334.5 -112.5t226.5 -307t80 -432.5q0 -240 -79 -433.5t-223.5 -305t-332.5 -111.5q-189 0 -335.5 113t-226 307.5t-79.5 431.5zM307 993q0 -227 52.5 -444t153.5 -355.5t243 -138.5q112 0 193 82t122 216t41 292 q0 225 -52 441.5t-154.5 355.5t-241.5 139q-111 0 -192 -82t-123 -217t-42 -289zM389 1790q12 125 50 203t124 78q47 0 83 -18.5t85 -55.5q47 -35 78 -51.5t68 -16.5q53 0 76.5 37t31.5 109h50q-12 -125 -50.5 -203t-124.5 -78q-47 0 -82.5 19.5t-87.5 56.5 q-47 35 -76.5 50.5t-64.5 15.5q-53 0 -76.5 -37t-33.5 -109h-50z" />
<glyph unicode="&#xd6;" horiz-adv-x="1417" d="M72 819q0 238 79.5 432.5t224 306t331.5 111.5q188 0 334.5 -112.5t226.5 -307t80 -432.5q0 -240 -79 -433.5t-223.5 -305t-332.5 -111.5q-189 0 -335.5 113t-226 307.5t-79.5 431.5zM307 993q0 -227 52.5 -444t153.5 -355.5t243 -138.5q112 0 193 82t122 216t41 292 q0 225 -52 441.5t-154.5 355.5t-241.5 139q-111 0 -192 -82t-123 -217t-42 -289zM397 1929q0 49 36 85t85 36t85 -35.5t36 -85.5q0 -49 -36 -84.5t-85 -35.5t-85 35.5t-36 84.5zM786 1929q0 49 36 85t85 36t85 -35.5t36 -85.5q0 -49 -36 -84.5t-85 -35.5t-85 35.5t-36 84.5z " />
<glyph unicode="&#xd7;" horiz-adv-x="907" d="M102 838l107 106l246 -246l243 244l107 -106l-244 -244l242 -244l-107 -104l-241 239l-244 -241l-107 106l244 244z" />
<glyph unicode="&#xd8;" horiz-adv-x="1417" d="M72 819q0 238 79.5 432.5t224 306t331.5 111.5q213 0 374 -145l146 252l57 -31l-156 -270q104 -117 162 -288t58 -370q0 -240 -79 -433.5t-223.5 -305t-332.5 -111.5q-213 0 -371 142l-149 -259l-58 33l158 275q-104 119 -162.5 289.5t-58.5 371.5zM307 993 q0 -164 27.5 -327.5t81.5 -294.5l555 962q-57 117 -135 182.5t-172 65.5q-111 0 -192 -82t-123 -217t-42 -289zM451 297q123 -242 305 -242q112 0 193 82t122 216t41 292q0 160 -27.5 321.5t-78.5 293.5z" />
<glyph unicode="&#xd9;" horiz-adv-x="1509" d="M10 1589v49h668v-49q-96 0 -142.5 -14t-61.5 -47t-15 -101v-880q0 -244 91 -355.5t275 -111.5q176 0 271.5 117.5t95.5 355.5v874q0 68 -15.5 101t-61.5 47t-142 14v49h528v-49q-96 0 -142 -14t-61.5 -47t-15.5 -101v-874q0 -258 -116.5 -422t-395.5 -164 q-281 0 -412 157t-131 423v880q0 68 -15 101t-60.5 47t-141.5 14zM545 2155h193l155 -375h-63z" />
<glyph unicode="&#xda;" horiz-adv-x="1509" d="M10 1589v49h668v-49q-96 0 -142.5 -14t-61.5 -47t-15 -101v-880q0 -244 91 -355.5t275 -111.5q176 0 271.5 117.5t95.5 355.5v874q0 68 -15.5 101t-61.5 47t-142 14v49h528v-49q-96 0 -142 -14t-61.5 -47t-15.5 -101v-874q0 -258 -116.5 -422t-395.5 -164 q-281 0 -412 157t-131 423v880q0 68 -15 101t-60.5 47t-141.5 14zM740 1780l155 375h193l-285 -375h-63z" />
<glyph unicode="&#xdb;" horiz-adv-x="1509" d="M10 1589v49h668v-49q-96 0 -142.5 -14t-61.5 -47t-15 -101v-880q0 -244 91 -355.5t275 -111.5q176 0 271.5 117.5t95.5 355.5v874q0 68 -15.5 101t-61.5 47t-142 14v49h528v-49q-96 0 -142 -14t-61.5 -47t-15.5 -101v-874q0 -258 -116.5 -422t-395.5 -164 q-281 0 -412 157t-131 423v880q0 68 -15 101t-60.5 47t-141.5 14zM516 1780l194 375h199l195 -375h-66l-229 268l-230 -268h-63z" />
<glyph unicode="&#xdc;" horiz-adv-x="1509" d="M10 1589v49h668v-49q-96 0 -142.5 -14t-61.5 -47t-15 -101v-880q0 -244 91 -355.5t275 -111.5q176 0 271.5 117.5t95.5 355.5v874q0 68 -15.5 101t-61.5 47t-142 14v49h528v-49q-96 0 -142 -14t-61.5 -47t-15.5 -101v-874q0 -258 -116.5 -422t-395.5 -164 q-281 0 -412 157t-131 423v880q0 68 -15 101t-60.5 47t-141.5 14zM495 1929q0 49 36 85t85 36t85 -35.5t36 -85.5q0 -49 -36 -84.5t-85 -35.5t-85 35.5t-36 84.5zM884 1929q0 49 36 85t85 36t85 -35.5t36 -85.5q0 -49 -36 -84.5t-85 -35.5t-85 35.5t-36 84.5z" />
<glyph unicode="&#xdd;" horiz-adv-x="1376" d="M2 1589v49h629v-49q-106 0 -147.5 -11t-41.5 -40q0 -14 10.5 -38.5t22.5 -51.5l297 -608h6l279 606q12 29 22.5 54.5t10.5 39.5q0 27 -36 38t-126 11v49h446v-49q-90 0 -136 -27.5t-87 -115.5l-330 -719v-516q0 -68 15.5 -100.5t61.5 -47t142 -14.5v-49h-667v49 q96 0 141 14.5t60.5 47t15.5 100.5v510l-365 729q-43 86 -89 112.5t-134 26.5zM682 1780l155 375h193l-285 -375h-63z" />
<glyph unicode="&#xde;" horiz-adv-x="1253" d="M39 0v49q96 0 141 14.5t60.5 47t15.5 100.5v1216q0 68 -15.5 101t-60.5 47t-141 14v49h668v-49q-96 0 -142.5 -14t-62 -47t-15.5 -101v-92h152q272 0 423.5 -118.5t151.5 -344.5q0 -152 -66.5 -259t-183 -162.5t-264.5 -55.5q-117 0 -219 37v-221q0 -68 15.5 -100.5 t61.5 -47t142 -14.5v-49h-661zM483 520q100 -35 176 -35q158 0 242 106.5t84 280.5q0 182 -96 279.5t-252 97.5q-80 0 -117 -16t-37 -57v-656z" />
<glyph unicode="&#xdf;" horiz-adv-x="1171" d="M37 0v49q68 0 99.5 13.5t42.5 46t11 102.5v790h-137v68l137 10v135q0 240 116 352.5t296 112.5q168 0 277.5 -80.5t109.5 -212.5q0 -186 -201 -313q-82 -61 -110.5 -88t-28.5 -61q0 -37 37 -72t131 -100q94 -70 153.5 -123.5t103.5 -130t44 -172.5q0 -94 -43 -175 t-125 -129.5t-192 -48.5q-123 0 -246 62v354h51q0 -326 193 -326q88 0 141 54.5t53 152.5q0 76 -36.5 136.5t-83 101.5t-144.5 115q-88 68 -129 116.5t-41 114.5q0 53 28.5 94t117.5 139q68 74 100.5 138.5t32.5 146.5q0 111 -52.5 167t-140.5 56q-219 0 -219 -331v-1264 h-346z" />
<glyph unicode="&#xe0;" d="M57 209q0 113 70 195.5t167 138t251 125.5l43 18v119q0 127 -40 182t-118 55q-61 0 -99 -29.5t-38 -78.5q0 -18 6 -36.5t8 -23.5q14 -33 15 -61q0 -43 -27 -68.5t-74 -25.5q-53 0 -82.5 34.5t-29.5 92.5q0 76 46 139.5t126.5 101t181.5 37.5q152 0 236.5 -85t84.5 -248 v-605q0 -72 13.5 -98.5t40.5 -26.5q74 0 80 170h47q-10 -264 -191 -264q-186 0 -186 269v36q-35 -145 -114 -225t-189 -80q-106 0 -167 68.5t-61 173.5zM190 1651h193l155 -375h-63zM254 264q0 -66 28.5 -103.5t82.5 -37.5q65 0 124.5 63.5t98.5 190.5v241 q-160 -82 -247 -160.5t-87 -193.5z" />
<glyph unicode="&#xe1;" d="M57 209q0 113 70 195.5t167 138t251 125.5l43 18v119q0 127 -40 182t-118 55q-61 0 -99 -29.5t-38 -78.5q0 -18 6 -36.5t8 -23.5q14 -33 15 -61q0 -43 -27 -68.5t-74 -25.5q-53 0 -82.5 34.5t-29.5 92.5q0 76 46 139.5t126.5 101t181.5 37.5q152 0 236.5 -85t84.5 -248 v-605q0 -72 13.5 -98.5t40.5 -26.5q74 0 80 170h47q-10 -264 -191 -264q-186 0 -186 269v36q-35 -145 -114 -225t-189 -80q-106 0 -167 68.5t-61 173.5zM254 264q0 -66 28.5 -103.5t82.5 -37.5q65 0 124.5 63.5t98.5 190.5v241q-160 -82 -247 -160.5t-87 -193.5zM388 1276 l155 375h193l-285 -375h-63z" />
<glyph unicode="&#xe2;" d="M57 209q0 113 70 195.5t167 138t251 125.5l43 18v119q0 127 -40 182t-118 55q-61 0 -99 -29.5t-38 -78.5q0 -18 6 -36.5t8 -23.5q14 -33 15 -61q0 -43 -27 -68.5t-74 -25.5q-53 0 -82.5 34.5t-29.5 92.5q0 76 46 139.5t126.5 101t181.5 37.5q152 0 236.5 -85t84.5 -248 v-605q0 -72 13.5 -98.5t40.5 -26.5q74 0 80 170h47q-10 -264 -191 -264q-186 0 -186 269v36q-35 -145 -114 -225t-189 -80q-106 0 -167 68.5t-61 173.5zM164 1276l194 375h199l195 -375h-66l-229 268l-230 -268h-63zM254 264q0 -66 28.5 -103.5t82.5 -37.5q65 0 124.5 63.5 t98.5 190.5v241q-160 -82 -247 -160.5t-87 -193.5z" />
<glyph unicode="&#xe3;" d="M57 209q0 113 70 195.5t167 138t251 125.5l43 18v119q0 127 -40 182t-118 55q-61 0 -99 -29.5t-38 -78.5q0 -18 6 -36.5t8 -23.5q14 -33 15 -61q0 -43 -27 -68.5t-74 -25.5q-53 0 -82.5 34.5t-29.5 92.5q0 76 46 139.5t126.5 101t181.5 37.5q152 0 236.5 -85t84.5 -248 v-605q0 -72 13.5 -98.5t40.5 -26.5q74 0 80 170h47q-10 -264 -191 -264q-186 0 -186 269v36q-35 -145 -114 -225t-189 -80q-106 0 -167 68.5t-61 173.5zM135 1286q12 125 50 203t124 78q47 0 83 -18.5t85 -55.5q47 -35 78 -51.5t68 -16.5q53 0 76.5 37t31.5 109h50 q-12 -125 -50.5 -203t-124.5 -78q-47 0 -82.5 19.5t-87.5 56.5q-47 35 -76.5 50.5t-64.5 15.5q-53 0 -76.5 -37t-33.5 -109h-50zM254 264q0 -66 28.5 -103.5t82.5 -37.5q65 0 124.5 63.5t98.5 190.5v241q-160 -82 -247 -160.5t-87 -193.5z" />
<glyph unicode="&#xe4;" d="M57 209q0 113 70 195.5t167 138t251 125.5l43 18v119q0 127 -40 182t-118 55q-61 0 -99 -29.5t-38 -78.5q0 -18 6 -36.5t8 -23.5q14 -33 15 -61q0 -43 -27 -68.5t-74 -25.5q-53 0 -82.5 34.5t-29.5 92.5q0 76 46 139.5t126.5 101t181.5 37.5q152 0 236.5 -85t84.5 -248 v-605q0 -72 13.5 -98.5t40.5 -26.5q74 0 80 170h47q-10 -264 -191 -264q-186 0 -186 269v36q-35 -145 -114 -225t-189 -80q-106 0 -167 68.5t-61 173.5zM143 1425q0 49 36 85t85 36t85 -35.5t36 -85.5q0 -49 -36 -84.5t-85 -35.5t-85 35.5t-36 84.5zM254 264 q0 -66 28.5 -103.5t82.5 -37.5q65 0 124.5 63.5t98.5 190.5v241q-160 -82 -247 -160.5t-87 -193.5zM532 1425q0 49 36 85t85 36t85 -35.5t36 -85.5q0 -49 -36 -84.5t-85 -35.5t-85 35.5t-36 84.5z" />
<glyph unicode="&#xe5;" d="M57 209q0 113 70 195.5t167 138t251 125.5l43 18v119q0 127 -40 182t-118 55q-61 0 -99 -29.5t-38 -78.5q0 -18 6 -36.5t8 -23.5q14 -33 15 -61q0 -43 -27 -68.5t-74 -25.5q-53 0 -82.5 34.5t-29.5 92.5q0 76 46 139.5t126.5 101t181.5 37.5q152 0 236.5 -85t84.5 -248 v-605q0 -72 13.5 -98.5t40.5 -26.5q74 0 80 170h47q-10 -264 -191 -264q-186 0 -186 269v36q-35 -145 -114 -225t-189 -80q-106 0 -167 68.5t-61 173.5zM247 1495q0 86 60.5 143.5t150.5 57.5q88 0 147.5 -57.5t59.5 -143.5q0 -88 -59.5 -146.5t-147.5 -58.5 q-90 0 -150.5 58.5t-60.5 146.5zM254 264q0 -66 28.5 -103.5t82.5 -37.5q65 0 124.5 63.5t98.5 190.5v241q-160 -82 -247 -160.5t-87 -193.5zM325 1495q0 -57 38 -94t95 -37q56 0 93.5 37t37.5 94q0 55 -37.5 92t-93.5 37q-57 0 -95 -37t-38 -92z" />
<glyph unicode="&#xe6;" horiz-adv-x="1394" d="M57 217q0 102 64.5 179t157 128t237.5 115l64 29v151q0 121 -38 173t-110 52q-63 0 -102 -29.5t-39 -78.5q0 -25 12 -62q14 -33 14 -63q0 -41 -26.5 -66.5t-77.5 -25.5q-53 0 -81 30.5t-28 90.5q0 80 45.5 145.5t126 102t185.5 36.5q176 0 258 -118q100 117 244 116 q172 0 261 -144t89 -380h-539v-76q10 -186 75.5 -294.5t178.5 -108.5q80 0 146.5 73.5t101.5 245.5h49q-31 -240 -128 -355.5t-247 -115.5q-125 0 -215 82t-131 230q-78 -311 -321 -312q-102 0 -164 69.5t-62 180.5zM254 266q0 -68 28.5 -105.5t82.5 -37.5q63 0 122.5 59.5 t98.5 179.5q-12 74 -13 162q0 39 2 58q-117 -59 -175 -95t-102 -91.5t-44 -129.5zM774 682h342q0 354 -155 354q-167 0 -187 -354z" />
<glyph unicode="&#xe7;" horiz-adv-x="841" d="M66 524q0 172 49 307.5t142 213t222 77.5t209 -74.5t80 -191.5q0 -66 -28.5 -101.5t-80.5 -35.5q-45 0 -70.5 26.5t-25.5 67.5q0 16 2 29.5t4 23.5q8 41 9 66q0 51 -27 77.5t-74 26.5q-104 0 -156.5 -122.5t-52.5 -311.5q0 -211 64.5 -345t185.5 -134q80 0 144.5 74.5 t89.5 253.5h49q-14 -225 -99.5 -345t-214.5 -137l-28 -59q102 -8 166.5 -51t64.5 -131q0 -113 -106.5 -171.5t-261.5 -58.5q-37 0 -107 8l12 50q23 -2 66 -2q119 0 183.5 40.5t64.5 122.5q0 76 -54.5 108t-150.5 34l63 110q-156 20 -244.5 171t-88.5 384z" />
<glyph unicode="&#xe8;" horiz-adv-x="884" d="M66 524q0 164 47 300.5t134 217t206 80.5q172 0 262 -144t90 -380h-541v-4q0 -215 65.5 -345t190.5 -130q80 0 146.5 73.5t101.5 245.5h49q-31 -240 -128 -355.5t-247 -115.5q-115 0 -199.5 68.5t-130.5 194.5t-46 294zM188 1651h193l155 -375h-63zM266 682h342 q0 354 -155 354q-167 0 -187 -354z" />
<glyph unicode="&#xe9;" horiz-adv-x="884" d="M66 524q0 164 47 300.5t134 217t206 80.5q172 0 262 -144t90 -380h-541v-4q0 -215 65.5 -345t190.5 -130q80 0 146.5 73.5t101.5 245.5h49q-31 -240 -128 -355.5t-247 -115.5q-115 0 -199.5 68.5t-130.5 194.5t-46 294zM266 682h342q0 354 -155 354q-167 0 -187 -354z M383 1276l155 375h193l-285 -375h-63z" />
<glyph unicode="&#xea;" horiz-adv-x="884" d="M66 524q0 164 47 300.5t134 217t206 80.5q172 0 262 -144t90 -380h-541v-4q0 -215 65.5 -345t190.5 -130q80 0 146.5 73.5t101.5 245.5h49q-31 -240 -128 -355.5t-247 -115.5q-115 0 -199.5 68.5t-130.5 194.5t-46 294zM160 1276l194 375h199l195 -375h-66l-229 268 l-230 -268h-63zM266 682h342q0 354 -155 354q-167 0 -187 -354z" />
<glyph unicode="&#xeb;" horiz-adv-x="884" d="M66 524q0 164 47 300.5t134 217t206 80.5q172 0 262 -144t90 -380h-541v-4q0 -215 65.5 -345t190.5 -130q80 0 146.5 73.5t101.5 245.5h49q-31 -240 -128 -355.5t-247 -115.5q-115 0 -199.5 68.5t-130.5 194.5t-46 294zM139 1425q0 49 36 85t85 36t85 -35.5t36 -85.5 q0 -49 -36 -84.5t-85 -35.5t-85 35.5t-36 84.5zM266 682h342q0 354 -155 354q-167 0 -187 -354zM528 1425q0 49 36 85t85 36t85 -35.5t36 -85.5q0 -49 -36 -84.5t-85 -35.5t-85 35.5t-36 84.5z" />
<glyph unicode="&#xec;" horiz-adv-x="573" d="M6 1651h193l155 -375h-63zM55 0v49q63 0 94 13.5t41.5 46t10.5 102.5v631q0 82 -6.5 109.5t-36.5 27.5q-29 0 -78 -21l-19 48l304 120l32 -30v-885q0 -70 10.5 -102.5t41 -46t94.5 -13.5v-49h-488z" />
<glyph unicode="&#xed;" horiz-adv-x="573" d="M55 0v49q63 0 94 13.5t41.5 46t10.5 102.5v631q0 82 -6.5 109.5t-36.5 27.5q-29 0 -78 -21l-19 48l304 120l32 -30v-885q0 -70 10.5 -102.5t41 -46t94.5 -13.5v-49h-488zM203 1276l155 375h193l-285 -375h-63z" />
<glyph unicode="&#xee;" horiz-adv-x="573" d="M-20 1276l194 375h199l195 -375h-66l-229 268l-230 -268h-63zM55 0v49q63 0 94 13.5t41.5 46t10.5 102.5v631q0 82 -6.5 109.5t-36.5 27.5q-29 0 -78 -21l-19 48l304 120l32 -30v-885q0 -70 10.5 -102.5t41 -46t94.5 -13.5v-49h-488z" />
<glyph unicode="&#xef;" horiz-adv-x="573" d="M-42 1425q0 49 36 85t85 36t85 -35.5t36 -85.5q0 -49 -36 -84.5t-85 -35.5t-85 35.5t-36 84.5zM55 0v49q63 0 94 13.5t41.5 46t10.5 102.5v631q0 82 -6.5 109.5t-36.5 27.5q-29 0 -78 -21l-19 48l304 120l32 -30v-885q0 -70 10.5 -102.5t41 -46t94.5 -13.5v-49h-488z M347 1425q0 49 36 85t85 36t85 -35.5t36 -85.5q0 -49 -36 -84.5t-85 -35.5t-85 35.5t-36 84.5z" />
<glyph unicode="&#xf0;" horiz-adv-x="1003" d="M66 537q0 158 47 286.5t136 203.5t208 75q57 0 108 -23.5t82 -64.5q-63 176 -178 327l-221 -135l-27 49l213 131q-117 139 -262 244v49q207 -106 356 -235l230 141l28 -47l-215 -133q176 -164 271.5 -369t95.5 -446q0 -184 -57.5 -325.5t-160 -219.5t-231.5 -78 q-127 0 -223 75t-148 205t-52 290zM270 592q0 -236 63.5 -386.5t184.5 -150.5q117 0 164 133.5t47 374.5q0 168 -43 334q-61 125 -180 125q-127 0 -181.5 -121t-54.5 -309z" />
<glyph unicode="&#xf1;" horiz-adv-x="1124" d="M53 1004l164 65l139 57l39 -30v-189h6q78 106 152 160.5t172 54.5q109 0 167 -76.5t58 -220.5v-614q0 -70 10.5 -102.5t38 -46t86.5 -13.5v-49h-458v49q55 0 80.5 13.5t35 46t9.5 102.5v602q0 166 -121 166q-61 0 -117.5 -40t-118.5 -118v-610q0 -70 9.5 -102.5t35 -46 t80.5 -13.5v-49h-463v49q61 0 90 13.5t39.5 46t10.5 102.5v631q0 84 -6.5 111.5t-34.5 27.5q-27 0 -82 -25zM270 1286q12 125 50 203t124 78q47 0 83 -18.5t85 -55.5q47 -35 78 -51.5t68 -16.5q53 0 76.5 37t31.5 109h50q-12 -125 -50.5 -203t-124.5 -78q-47 0 -82.5 19.5 t-87.5 56.5q-47 35 -76.5 50.5t-64.5 15.5q-53 0 -76.5 -37t-33.5 -109h-50z" />
<glyph unicode="&#xf2;" horiz-adv-x="1009" d="M66 539q0 166 52 299t152.5 208.5t235.5 75.5q131 0 230.5 -72.5t154.5 -202.5t55 -296t-53 -299t-152.5 -209t-234.5 -76q-131 0 -231.5 73t-154.5 203t-54 296zM229 1651h193l155 -375h-63zM270 659q0 -147 30 -285t90.5 -227.5t146.5 -89.5q100 0 151 111t51 262 q0 147 -29.5 285.5t-89 227.5t-145.5 89q-102 0 -153.5 -110.5t-51.5 -262.5z" />
<glyph unicode="&#xf3;" horiz-adv-x="1009" d="M66 539q0 166 52 299t152.5 208.5t235.5 75.5q131 0 230.5 -72.5t154.5 -202.5t55 -296t-53 -299t-152.5 -209t-234.5 -76q-131 0 -231.5 73t-154.5 203t-54 296zM270 659q0 -147 30 -285t90.5 -227.5t146.5 -89.5q100 0 151 111t51 262q0 147 -29.5 285.5t-89 227.5 t-145.5 89q-102 0 -153.5 -110.5t-51.5 -262.5zM424 1276l155 375h193l-285 -375h-63z" />
<glyph unicode="&#xf4;" horiz-adv-x="1009" d="M66 539q0 166 52 299t152.5 208.5t235.5 75.5q131 0 230.5 -72.5t154.5 -202.5t55 -296t-53 -299t-152.5 -209t-234.5 -76q-131 0 -231.5 73t-154.5 203t-54 296zM203 1276l194 375h199l195 -375h-66l-229 268l-230 -268h-63zM270 659q0 -147 30 -285t90.5 -227.5 t146.5 -89.5q100 0 151 111t51 262q0 147 -29.5 285.5t-89 227.5t-145.5 89q-102 0 -153.5 -110.5t-51.5 -262.5z" />
<glyph unicode="&#xf5;" horiz-adv-x="1009" d="M66 539q0 166 52 299t152.5 208.5t235.5 75.5q131 0 230.5 -72.5t154.5 -202.5t55 -296t-53 -299t-152.5 -209t-234.5 -76q-131 0 -231.5 73t-154.5 203t-54 296zM174 1286q12 125 50 203t124 78q47 0 83 -18.5t85 -55.5q47 -35 78 -51.5t68 -16.5q53 0 76.5 37t31.5 109 h50q-12 -125 -50.5 -203t-124.5 -78q-47 0 -82.5 19.5t-87.5 56.5q-47 35 -76.5 50.5t-64.5 15.5q-53 0 -76.5 -37t-33.5 -109h-50zM270 659q0 -147 30 -285t90.5 -227.5t146.5 -89.5q100 0 151 111t51 262q0 147 -29.5 285.5t-89 227.5t-145.5 89q-102 0 -153.5 -110.5 t-51.5 -262.5z" />
<glyph unicode="&#xf6;" horiz-adv-x="1009" d="M66 539q0 166 52 299t152.5 208.5t235.5 75.5q131 0 230.5 -72.5t154.5 -202.5t55 -296t-53 -299t-152.5 -209t-234.5 -76q-131 0 -231.5 73t-154.5 203t-54 296zM182 1425q0 49 36 85t85 36t85 -35.5t36 -85.5q0 -49 -36 -84.5t-85 -35.5t-85 35.5t-36 84.5zM270 659 q0 -147 30 -285t90.5 -227.5t146.5 -89.5q100 0 151 111t51 262q0 147 -29.5 285.5t-89 227.5t-145.5 89q-102 0 -153.5 -110.5t-51.5 -262.5zM571 1425q0 49 36 85t85 36t85 -35.5t36 -85.5q0 -49 -36 -84.5t-85 -35.5t-85 35.5t-36 84.5z" />
<glyph unicode="&#xf7;" horiz-adv-x="978" d="M102 539v151h775v-151h-775zM395 252q0 39 28 67.5t66 28.5q39 0 67 -28.5t28 -67.5t-28 -67.5t-67 -28.5q-38 0 -66 28.5t-28 67.5zM395 979q0 39 28 67.5t66 28.5q39 0 67 -28.5t28 -67.5t-28 -67.5t-67 -28.5q-38 0 -66 28.5t-28 67.5z" />
<glyph unicode="&#xf8;" horiz-adv-x="1026" d="M72 539q0 166 53 299t153.5 208.5t235.5 75.5q145 0 250 -88l96 166l47 -31l-100 -174q70 -78 108.5 -192.5t38.5 -251.5q0 -166 -53 -299t-152.5 -209t-234.5 -76q-141 0 -250 86l-98 -172l-47 33l102 178q-72 78 -110.5 192.5t-38.5 254.5zM279 659q0 -204 53 -374 l338 583q-76 164 -187 164q-102 0 -153 -110.5t-51 -262.5zM358 217q76 -160 185 -160q102 0 153.5 111t51.5 262q0 201 -54 371z" />
<glyph unicode="&#xf9;" horiz-adv-x="1073" d="M18 1004l316 102l28 -27v-796q0 -90 29 -134.5t86 -44.5t116.5 43t113.5 115v578q0 80 -8.5 107.5t-43.5 27.5q-25 0 -80 -17l-14 46l318 102l26 -27v-835q0 -80 8.5 -109t38.5 -29q31 0 84 21l19 -47l-303 -113l-41 35l-4 174l-7 2q-133 -211 -313 -211 q-104 0 -163.5 79t-59.5 216v578q0 78 -9.5 106.5t-41.5 28.5q-25 0 -80 -17zM256 1651h193l155 -375h-63z" />
<glyph unicode="&#xfa;" horiz-adv-x="1073" d="M18 1004l316 102l28 -27v-796q0 -90 29 -134.5t86 -44.5t116.5 43t113.5 115v578q0 80 -8.5 107.5t-43.5 27.5q-25 0 -80 -17l-14 46l318 102l26 -27v-835q0 -80 8.5 -109t38.5 -29q31 0 84 21l19 -47l-303 -113l-41 35l-4 174l-7 2q-133 -211 -313 -211 q-104 0 -163.5 79t-59.5 216v578q0 78 -9.5 106.5t-41.5 28.5q-25 0 -80 -17zM453 1276l155 375h193l-285 -375h-63z" />
<glyph unicode="&#xfb;" horiz-adv-x="1073" d="M18 1004l316 102l28 -27v-796q0 -90 29 -134.5t86 -44.5t116.5 43t113.5 115v578q0 80 -8.5 107.5t-43.5 27.5q-25 0 -80 -17l-14 46l318 102l26 -27v-835q0 -80 8.5 -109t38.5 -29q31 0 84 21l19 -47l-303 -113l-41 35l-4 174l-7 2q-133 -211 -313 -211 q-104 0 -163.5 79t-59.5 216v578q0 78 -9.5 106.5t-41.5 28.5q-25 0 -80 -17zM229 1276l194 375h199l195 -375h-66l-229 268l-230 -268h-63z" />
<glyph unicode="&#xfc;" horiz-adv-x="1073" d="M18 1004l316 102l28 -27v-796q0 -90 29 -134.5t86 -44.5t116.5 43t113.5 115v578q0 80 -8.5 107.5t-43.5 27.5q-25 0 -80 -17l-14 46l318 102l26 -27v-835q0 -80 8.5 -109t38.5 -29q31 0 84 21l19 -47l-303 -113l-41 35l-4 174l-7 2q-133 -211 -313 -211 q-104 0 -163.5 79t-59.5 216v578q0 78 -9.5 106.5t-41.5 28.5q-25 0 -80 -17zM208 1425q0 49 36 85t85 36t85 -35.5t36 -85.5q0 -49 -36 -84.5t-85 -35.5t-85 35.5t-36 84.5zM597 1425q0 49 36 85t85 36t85 -35.5t36 -85.5q0 -49 -36 -84.5t-85 -35.5t-85 35.5t-36 84.5z " />
<glyph unicode="&#xfd;" horiz-adv-x="987" d="M6 1036v49h479v-49q-68 0 -93 -11t-25 -44q0 -27 20 -98l172 -602h10l170 602q20 72 21 98q0 33 -25.5 44t-93.5 11v49h338v-49q-63 0 -96 -30.5t-60 -122.5l-258 -871q-49 -162 -94 -264t-109.5 -163.5t-156.5 -63.5q-74 0 -122 40t-48 101q0 49 28.5 77t73.5 28 q35 0 57.5 -16.5t43.5 -45.5q18 -27 34.5 -37t38.5 -10q76 0 133 221q2 10 2 37q0 72 -18 158l-254 809q-31 94 -64.5 123.5t-103.5 29.5zM439 1276l155 375h193l-285 -375h-63z" />
<glyph unicode="&#xfe;" horiz-adv-x="1042" d="M20 -401q63 0 93 12t40.5 46t10.5 103v1626q0 76 -5 103t-30 27t-86 -31l-20 43l309 151l30 -28v-736h9q127 207 293 207q151 0 232 -147.5t81 -390.5q0 -174 -44 -312.5t-126 -217.5t-191 -79q-76 0 -142 38t-107 110h-5v-363q0 -70 10.5 -103.5t41 -45.5t94.5 -12v-50 h-488v50zM362 444q0 -111 27 -195.5t72 -129.5t100 -45q98 0 145.5 136t47.5 343t-45 317.5t-134 110.5q-59 0 -114 -45t-99 -119v-373z" />
<glyph unicode="&#xff;" horiz-adv-x="987" d="M6 1036v49h479v-49q-68 0 -93 -11t-25 -44q0 -27 20 -98l172 -602h10l170 602q20 72 21 98q0 33 -25.5 44t-93.5 11v49h338v-49q-63 0 -96 -30.5t-60 -122.5l-258 -871q-49 -162 -94 -264t-109.5 -163.5t-156.5 -63.5q-74 0 -122 40t-48 101q0 49 28.5 77t73.5 28 q35 0 57.5 -16.5t43.5 -45.5q18 -27 34.5 -37t38.5 -10q76 0 133 221q2 10 2 37q0 72 -18 158l-254 809q-31 94 -64.5 123.5t-103.5 29.5zM196 1425q0 49 36 85t85 36t85 -35.5t36 -85.5q0 -49 -36 -84.5t-85 -35.5t-85 35.5t-36 84.5zM585 1425q0 49 36 85t85 36t85 -35.5 t36 -85.5q0 -49 -36 -84.5t-85 -35.5t-85 35.5t-36 84.5z" />
<glyph unicode="&#x152;" horiz-adv-x="1947" d="M72 819q0 240 77.5 430.5t225 300t352.5 109.5q61 0 199 -10q82 -10 155 -11h703l6 -63l35 -330l-56 -6q-14 131 -38.5 196.5t-65.5 88t-119 22.5h-293q-94 0 -94 -94v-565h254q63 0 95 17.5t46.5 67.5t14.5 156h47v-555h-47q0 104 -14.5 154.5t-46 68t-95.5 17.5h-254 v-604q0 -72 18.5 -94.5t77.5 -22.5h297q80 0 129.5 29t86 107.5t77.5 236.5l60 -16l-101 -390l-16 -59h-707q-74 0 -155 -10q-137 -10 -199 -10q-205 0 -352.5 109.5t-225 300t-77.5 429.5zM322 819q0 -342 100 -549t291 -207q90 0 152.5 40t62.5 106v1243q0 127 -207 127 q-201 0 -300 -213t-99 -547z" />
<glyph unicode="&#x153;" horiz-adv-x="1687" d="M66 539q0 166 52 299t152.5 208.5t235.5 75.5q141 0 246.5 -85t154.5 -232q47 147 136.5 232t211.5 85q172 0 262.5 -144t90.5 -380h-543v-4q0 -215 66.5 -345t189.5 -130q80 0 147.5 74.5t102.5 244.5h47q-31 -240 -127 -355.5t-248 -115.5q-123 0 -213 79t-131 222 q-51 -139 -152.5 -220t-240.5 -81q-131 0 -231.5 73t-154.5 203t-54 296zM270 659q0 -147 30 -285t90.5 -227.5t146.5 -89.5q100 0 151 111t51 262q0 147 -29.5 285.5t-89 227.5t-145.5 89q-102 0 -153.5 -110.5t-51.5 -262.5zM1067 682h344q0 354 -158 354 q-166 0 -186 -354z" />
<glyph unicode="&#x178;" horiz-adv-x="1376" d="M2 1589v49h629v-49q-106 0 -147.5 -11t-41.5 -40q0 -14 10.5 -38.5t22.5 -51.5l297 -608h6l279 606q12 29 22.5 54.5t10.5 39.5q0 27 -36 38t-126 11v49h446v-49q-90 0 -136 -27.5t-87 -115.5l-330 -719v-516q0 -68 15.5 -100.5t61.5 -47t142 -14.5v-49h-667v49 q96 0 141 14.5t60.5 47t15.5 100.5v510l-365 729q-43 86 -89 112.5t-134 26.5zM440 1929q0 49 36 85t85 36t85 -35.5t36 -85.5q0 -49 -36 -84.5t-85 -35.5t-85 35.5t-36 84.5zM829 1929q0 49 36 85t85 36t85 -35.5t36 -85.5q0 -49 -36 -84.5t-85 -35.5t-85 35.5t-36 84.5z " />
<glyph unicode="&#x2c6;" horiz-adv-x="751" d="M82 1276l194 375h199l195 -375h-66l-229 268l-230 -268h-63z" />
<glyph unicode="&#x2dc;" horiz-adv-x="849" d="M102 1286q12 125 50 203t124 78q47 0 83 -18.5t85 -55.5q47 -35 78 -51.5t68 -16.5q53 0 76.5 37t31.5 109h50q-12 -125 -50.5 -203t-124.5 -78q-47 0 -82.5 19.5t-87.5 56.5q-47 35 -76.5 50.5t-64.5 15.5q-53 0 -76.5 -37t-33.5 -109h-50z" />
<glyph unicode="&#x2000;" horiz-adv-x="1100" />
<glyph unicode="&#x2001;" horiz-adv-x="2200" />
<glyph unicode="&#x2002;" horiz-adv-x="1100" />
<glyph unicode="&#x2003;" horiz-adv-x="2200" />
<glyph unicode="&#x2004;" horiz-adv-x="733" />
<glyph unicode="&#x2005;" horiz-adv-x="550" />
<glyph unicode="&#x2006;" horiz-adv-x="366" />
<glyph unicode="&#x2007;" horiz-adv-x="366" />
<glyph unicode="&#x2008;" horiz-adv-x="275" />
<glyph unicode="&#x2009;" horiz-adv-x="440" />
<glyph unicode="&#x200a;" horiz-adv-x="122" />
<glyph unicode="&#x2010;" horiz-adv-x="911" d="M102 479v148h707v-148h-707z" />
<glyph unicode="&#x2011;" horiz-adv-x="911" d="M102 479v148h707v-148h-707z" />
<glyph unicode="&#x2012;" horiz-adv-x="911" d="M102 479v148h707v-148h-707z" />
<glyph unicode="&#x2013;" horiz-adv-x="1228" d="M0 479v148h1229v-148h-1229z" />
<glyph unicode="&#x2014;" horiz-adv-x="2457" d="M0 479v148h2458v-148h-2458z" />
<glyph unicode="&#x2018;" horiz-adv-x="485" d="M94 1339q0 92 63.5 168t192.5 115v-53q-84 -23 -131 -70t-47 -98q0 -18 7 -28.5t18 -10.5q8 0 32.5 17.5t57.5 17.5q47 0 75.5 -32t28.5 -81q0 -53 -38 -90t-101 -37q-68 0 -113 50t-45 132z" />
<glyph unicode="&#x2019;" horiz-adv-x="485" d="M94 1563q0 55 38 92t101 37q68 0 113 -50t45 -132q0 -94 -62.5 -170t-193.5 -115v53q82 25 130 72t48 96q0 39 -24 39q-8 0 -33 -16.5t-57 -16.5q-47 0 -76 32t-29 79z" />
<glyph unicode="&#x201a;" horiz-adv-x="485" d="M94 82q0 55 38 92t101 37q68 0 113 -50t45 -132q0 -94 -62.5 -170t-193.5 -115v53q82 25 130 72t48 96q0 39 -24 39q-8 0 -33 -16.5t-57 -16.5q-47 0 -76 32t-29 79z" />
<glyph unicode="&#x201c;" horiz-adv-x="878" d="M94 1339q0 92 63.5 168t192.5 115v-53q-84 -23 -131 -70t-47 -98q0 -18 7 -28.5t18 -10.5q8 0 32.5 17.5t57.5 17.5q47 0 75.5 -32t28.5 -81q0 -53 -38 -90t-101 -37q-68 0 -113 50t-45 132zM487 1339q0 92 63.5 168t192.5 115v-53q-84 -23 -131 -70t-47 -98 q0 -18 7.5 -28.5t17.5 -10.5t33.5 17.5t56.5 17.5q47 0 75.5 -32t28.5 -81q0 -53 -37.5 -90t-101.5 -37q-68 0 -113 50t-45 132z" />
<glyph unicode="&#x201d;" horiz-adv-x="878" d="M94 1563q0 55 38 92t101 37q68 0 113 -50t45 -132q0 -94 -62.5 -170t-193.5 -115v53q82 25 130 72t48 96q0 39 -24 39q-8 0 -33 -16.5t-57 -16.5q-47 0 -76 32t-29 79zM487 1563q0 55 38 92t101 37q68 0 113 -50t45 -132q0 -94 -62.5 -170t-193.5 -115v53q82 25 130 72 t48 96q0 39 -24 39q-8 0 -33 -16.5t-57 -16.5q-47 0 -76 32t-29 79z" />
<glyph unicode="&#x201e;" horiz-adv-x="878" d="M94 82q0 55 38 92t101 37q68 0 113 -50t45 -132q0 -94 -62.5 -170t-193.5 -115v53q82 25 130 72t48 96q0 39 -24 39q-8 0 -33 -16.5t-57 -16.5q-47 0 -76 32t-29 79zM487 82q0 55 38 92t101 37q68 0 113 -50t45 -132q0 -94 -62.5 -170t-193.5 -115v53q82 25 130 72t48 96 q0 39 -24 39q-8 0 -33 -16.5t-57 -16.5q-47 0 -76 32t-29 79z" />
<glyph unicode="&#x2022;" horiz-adv-x="681" d="M102 745q0 70 35 130.5t95.5 95.5t129.5 35q70 0 130.5 -35t95.5 -95.5t35 -130.5q0 -109 -76 -184.5t-185 -75.5q-108 0 -184 76t-76 184z" />
<glyph unicode="&#x2026;" horiz-adv-x="1413" d="M102 88q0 49 35 85t86 36q49 0 85 -36t36 -85q0 -51 -36 -86t-85 -35q-51 0 -86 35t-35 86zM587 88q0 49 35 85t86 36q49 0 85 -36t36 -85q0 -51 -36 -86t-85 -35q-51 0 -86 35t-35 86zM1071 88q0 49 35 85t86 36q49 0 85 -36t36 -85q0 -51 -36 -86t-85 -35q-51 0 -86 35 t-35 86z" />
<glyph unicode="&#x202f;" horiz-adv-x="440" />
<glyph unicode="&#x2039;" horiz-adv-x="585" d="M94 600l348 494h50l-216 -494l216 -500h-50z" />
<glyph unicode="&#x203a;" horiz-adv-x="585" d="M94 100l215 500l-215 494h49l349 -494l-349 -500h-49z" />
<glyph unicode="&#x205f;" horiz-adv-x="550" />
<glyph unicode="&#x20ac;" horiz-adv-x="1320" d="M41 694l25 70h118v24q0 37 4 107h-147l25 70h129q23 209 97.5 370.5t193 252.5t272.5 91q221 0 395 -149v-381h-49q-16 446 -303 446q-160 0 -251 -172t-110 -458h498l-25 -70h-475q-2 -25 -2 -76v-55h436l-22 -70h-410q16 -289 106.5 -460t250.5 -171q150 0 247 144.5 t125 406.5h50q-35 -319 -141.5 -485t-338.5 -166q-162 0 -282.5 93.5t-189 258t-81.5 379.5h-145z" />
<glyph unicode="&#x2122;" horiz-adv-x="2359" d="M80 1339l33 238l10 61h819l8 -61l33 -238l-47 -6q-14 94 -34.5 141.5t-57.5 64.5t-103 17h-102q-16 0 -25.5 -9t-9.5 -25v-574q0 -68 11.5 -100.5t43 -47t99.5 -14.5v-49h-457v49q68 0 100.5 14.5t43 47.5t10.5 100v574q0 35 -35 34h-98q-66 0 -102 -17t-56.5 -63 t-34.5 -143zM1034 737v49q68 0 99.5 14.5t43 47.5t11.5 100v479q0 68 -11.5 101t-43 47t-99.5 14v49h350l263 -673h4l282 673h344v-49q-68 0 -100.5 -14t-42.5 -47t-10 -101v-479q0 -68 10 -100.5t43 -47t100 -14.5v-49h-458v49q68 0 99.5 14.5t42.5 47.5t11 100v551h-6 l-340 -803h-33l-317 803h-6v-551q0 -68 11 -100.5t43 -47t99 -14.5v-49h-389z" />
<glyph unicode="&#x25fc;" horiz-adv-x="1085" d="M0 0v1085h1085v-1085h-1085z" />
<glyph unicode="&#xfb01;" horiz-adv-x="1165" d="M37 0v49q68 0 99.5 13.5t42.5 46t11 102.5v790h-135v68l135 10v142q0 170 62.5 276.5t160 152.5t210.5 46q82 0 153.5 -27t113.5 -73t42 -103q0 -45 -29 -72.5t-78 -27.5q-39 0 -61.5 20.5t-61.5 79.5q-31 47 -59.5 70.5t-73.5 23.5q-82 0 -131 -70.5t-49 -242.5v-189 h332q139 0 244 37l26 -28v-883q0 -70 10.5 -102.5t40 -46t93.5 -13.5v-49h-488v49q63 0 94 13.5t41.5 46t10.5 102.5v633q0 53 -6.5 83.5t-31 52t-77.5 21.5h-289v-790q0 -70 14.5 -102.5t56.5 -46t130 -13.5v-49h-553z" />
<glyph unicode="&#xfb02;" horiz-adv-x="1179" d="M37 0v49q68 0 99.5 13.5t42.5 46t11 102.5v790h-135v68l135 10v176q0 152 53.5 248t137.5 140.5t178 44.5q96 0 179 -37t116 -95l119 91l28 -23v-1413q0 -70 10.5 -102.5t41 -46t94.5 -13.5v-49h-483v49q61 0 89.5 13.5t39 46t10.5 102.5v1188q-20 -4 -35 -4 q-39 0 -63.5 23.5t-53.5 74.5q-29 47 -54.5 70.5t-61.5 23.5q-70 0 -108 -69.5t-38 -243.5v-189h205v-84h-205v-790q0 -70 12.5 -102.5t49 -46t114.5 -13.5v-49h-528z" />
<glyph unicode="&#xfb03;" horiz-adv-x="1728" d="M39 0v49q63 0 94 13.5t41 46t10 102.5v790h-125v68l125 10v82q0 233 100.5 355t266.5 122q102 0 174 -35.5t98 -95.5q57 96 154.5 142.5t208.5 46.5q127 0 218 -58.5t91 -144.5q0 -45 -28.5 -72.5t-75.5 -27.5q-39 0 -60.5 19.5t-64.5 80.5q-31 47 -59.5 70.5t-73.5 23.5 q-180 0 -181 -313v-189h332q139 0 244 37l26 -28v-883q0 -70 10.5 -102.5t40 -46t93.5 -13.5v-49h-486v49q63 0 93 13.5t40.5 46t10.5 102.5v633q0 53 -6.5 83.5t-31 52t-77.5 21.5h-289v-790q0 -70 14.5 -102.5t56.5 -46t130 -13.5v-49h-551v49q68 0 99.5 13.5t43 46 t11.5 102.5v790h-375v-790q0 -70 14.5 -102.5t53 -46t122.5 -13.5v-49h-532zM381 1085h375v136q0 59 10 120q-8 -2 -25 -2q-80 0 -96 95q-8 57 -26.5 88.5t-73.5 31.5q-88 0 -126 -86t-38 -260v-123z" />
</font>
</defs>
</svg>
