<?xml version="1.0" standalone="no"?>
<!DOCTYPE svg PUBLIC "-//W3C//DTD SVG 1.1//EN" "http://www.w3.org/Graphics/SVG/1.1/DTD/svg11.dtd" >
<svg xmlns="http://www.w3.org/2000/svg" xmlns:xlink="http://www.w3.org/1999/xlink" version="1.1">
<metadata></metadata>
<defs>
<font id="yellix_triallight" horiz-adv-x="1226" >
<font-face units-per-em="2048" ascent="1638" descent="-410" />
<missing-glyph horiz-adv-x="526" />
<glyph horiz-adv-x="0" />
<glyph horiz-adv-x="682" />
<glyph unicode=" "  horiz-adv-x="526" />
<glyph unicode="&#x09;" horiz-adv-x="526" />
<glyph unicode="&#xa0;" horiz-adv-x="526" />
<glyph unicode="!" horiz-adv-x="432" d="M125 70q0 38 26 65t64 27q39 0 65.5 -26.5t26.5 -65.5q0 -38 -26 -64t-66 -26q-38 0 -64 26t-26 64zM164 1434h102l-6 -1080h-88z" />
<glyph unicode="&#x22;" horiz-adv-x="520" d="M102 1434h95l-13 -430h-69zM324 1434h94l-12 -430h-70z" />
<glyph unicode="#" horiz-adv-x="1298" d="M63 461v80h297l99 354h-314v78h336l129 461h86l-129 -461h312l129 461h84l-129 -461h272v-78h-295l-98 -354h311v-80h-334l-129 -461h-86l129 461h-311l-129 -461h-84l129 461h-275zM444 541h312l100 354h-311z" />
<glyph unicode="$" horiz-adv-x="1140" d="M117 432h90q0 -161 117.5 -263.5t298.5 -102.5q171 0 284 86.5t113 220.5q0 77 -30 134t-81 91t-116.5 58.5t-138.5 42t-145.5 35.5t-138 45.5t-116.5 65t-81 100.5t-30 147q0 140 104 237t271 119v231h86v-225q208 0 335.5 -110.5t127.5 -278.5h-90q-6 133 -110 218 t-263 85q-163 0 -267 -77.5t-104 -198.5q0 -70 30 -121t81 -81t117 -51.5t139 -38.5t145.5 -35.5t138.5 -48t117 -71.5t81 -111t30 -161q0 -168 -138.5 -280.5t-350.5 -112.5h-19v-226h-86v234q-179 29 -290 151t-111 293z" />
<glyph unicode="%" horiz-adv-x="1474" d="M162 1174q0 123 72 201.5t186 78.5q113 0 185.5 -78.5t72.5 -201.5t-73 -203t-185 -80q-114 0 -186 80t-72 203zM223 0l953 1434h77l-952 -1434h-78zM233 1174q0 -95 51.5 -155.5t135.5 -60.5q82 0 133 60.5t51 155.5q0 94 -50.5 153t-133.5 59q-84 0 -135.5 -59 t-51.5 -153zM799 262q0 123 72 202t186 79q113 0 185.5 -79t72.5 -202t-72.5 -202.5t-185.5 -79.5q-114 0 -186 79.5t-72 202.5zM870 262q0 -95 51.5 -155t135.5 -60q83 0 133.5 60t50.5 155q0 94 -50.5 153.5t-133.5 59.5q-84 0 -135.5 -59.5t-51.5 -153.5z" />
<glyph unicode="&#x26;" horiz-adv-x="1359" d="M76 354q0 82 26.5 148t78 115.5t103 82t126.5 68.5q-44 44 -71.5 75t-61 79t-50 99.5t-16.5 106.5q0 140 99 233t249 93q142 0 237 -93t95 -233q0 -44 -10.5 -83t-26.5 -69.5t-43.5 -60t-53 -50t-65 -44.5t-69 -39t-74.5 -37l364 -383l220 213h116l-278 -274l289 -301 h-115l-234 244l-43 -43q-118 -118 -213 -169.5t-215 -51.5q-154 0 -259 108t-105 266zM170 358q0 -123 78.5 -207.5t195.5 -84.5q89 0 173 45t180 139l57 55l-385 402q-69 -34 -115 -63t-92 -71t-69 -96t-23 -119zM295 1128q0 -42 15.5 -84.5t48 -86.5t59 -74t71.5 -76 q62 29 97.5 47t83 49.5t73 60.5t44 72t18.5 92q0 103 -71.5 173.5t-174.5 70.5q-110 0 -187 -70.5t-77 -173.5z" />
<glyph unicode="'" horiz-adv-x="299" d="M102 1434h95l-13 -430h-69z" />
<glyph unicode="(" horiz-adv-x="577" d="M156 578q0 310 109.5 579t293.5 410l53 -62q-168 -130 -269 -383t-101 -544q0 -292 100.5 -545t269.5 -383l-53 -62q-184 141 -293.5 410.5t-109.5 579.5z" />
<glyph unicode=")" horiz-adv-x="577" d="M-35 -350q169 131 270 383.5t101 544.5q0 290 -101 543.5t-270 383.5l53 62q184 -141 294 -410.5t110 -578.5q0 -310 -110 -579.5t-294 -410.5z" />
<glyph unicode="*" horiz-adv-x="960" d="M84 1147l20 65l340 -88v351h70v-351l340 88l18 -65l-337 -88l215 -316l-54 -41l-217 316l-217 -318l-55 43l217 316z" />
<glyph unicode="+" horiz-adv-x="1163" d="M162 588v82h377v377h82v-377h380v-82h-380v-381h-82v381h-377z" />
<glyph unicode="," horiz-adv-x="458" d="M125 -190l90 368h119l-141 -368h-68z" />
<glyph unicode="-" horiz-adv-x="593" d="M51 485v82h492v-82h-492z" />
<glyph unicode="." horiz-adv-x="432" d="M125 70q0 38 26 65t64 27q39 0 65.5 -26.5t26.5 -65.5q0 -38 -26 -64t-66 -26q-38 0 -64 26t-26 64z" />
<glyph unicode="/" horiz-adv-x="770" d="M23 0l630 1434h95l-631 -1434h-94z" />
<glyph unicode="0" horiz-adv-x="1212" d="M109 717q0 345 131.5 541t365.5 196t366 -196t132 -541t-132 -541t-366 -196t-365.5 196t-131.5 541zM201 717q0 -309 106.5 -480t298.5 -171t299 171t107 480t-107 480t-299 171t-298.5 -171t-106.5 -480z" />
<glyph unicode="1" horiz-adv-x="716" d="M106 1010v116l353 308h73v-1434h-92v1309z" />
<glyph unicode="2" horiz-adv-x="1107" d="M92 0v72l588 594q213 219 213 391q0 135 -93 223t-235 88q-163 0 -267 -95.5t-103 -256.5h-91q-3 199 128 318.5t333 119.5q183 0 302.5 -111.5t119.5 -285.5q0 -101 -63 -215.5t-179 -229.5l-522 -526h789v-86h-920z" />
<glyph unicode="3" horiz-adv-x="1081" d="M55 330h90q23 -119 124.5 -191.5t248.5 -72.5q164 0 269.5 104.5t105.5 265.5q0 92 -41.5 163.5t-112.5 110.5t-165.5 50t-200.5 -19v72l475 535h-756v86h885v-70l-488 -539q132 26 247 -18t183 -143t68 -228q0 -199 -133 -327.5t-336 -128.5q-185 0 -312.5 96 t-150.5 254z" />
<glyph unicode="4" horiz-adv-x="1144" d="M41 334v72l541 1028h102l-532 -1016h626v557h90v-557h213v-84h-213v-334h-90v334h-737z" />
<glyph unicode="5" horiz-adv-x="1058" d="M55 330h90q23 -116 124.5 -190t240.5 -74q155 0 263 105t108 257q0 157 -108 266t-263 109q-93 0 -173 -29t-126 -82h-78l68 742h686v-86h-606l-56 -564q47 45 126.5 72t164.5 27q193 0 325 -131t132 -326q0 -187 -134.5 -316.5t-328.5 -129.5q-180 0 -308 98t-147 252z " />
<glyph unicode="6" horiz-adv-x="1079" d="M76 444q0 78 31.5 173t89.5 188l393 629h102l-360 -570q113 45 221 45q118 0 224.5 -61t172.5 -169.5t66 -234.5q0 -193 -138 -328.5t-333 -135.5t-332 135.5t-137 328.5zM164 444q0 -156 111.5 -267t269.5 -111t270.5 111.5t112.5 266.5q0 156 -114.5 270.5 t-270.5 114.5q-145 0 -271 -59q-108 -177 -108 -326z" />
<glyph unicode="7" horiz-adv-x="997" d="M31 1348v86h913v-72l-647 -1362h-100l647 1348h-813z" />
<glyph unicode="8" horiz-adv-x="1081" d="M82 393q0 135 87.5 241.5t223.5 135.5q-110 32 -181 122.5t-71 199.5q0 157 112.5 257.5t287.5 100.5t287 -100.5t112 -257.5q0 -109 -70.5 -199.5t-179.5 -122.5q137 -32 224 -138t87 -239q0 -179 -129.5 -295t-330.5 -116q-199 0 -329 116t-130 295zM170 397 q0 -145 105 -238t266 -93q163 0 267.5 93t104.5 238q0 143 -105 235.5t-267 92.5q-161 0 -266 -92.5t-105 -235.5zM229 1090q0 -121 87.5 -199t224.5 -78t225 78t88 199t-88 199.5t-225 78.5q-136 0 -224 -78t-88 -200z" />
<glyph unicode="9" horiz-adv-x="1079" d="M63 989q0 193 138.5 329t333.5 136t332 -136t137 -329q0 -77 -31.5 -172t-89.5 -188l-394 -629h-102l361 569q-113 -45 -222 -45q-118 0 -224.5 61t-172.5 169.5t-66 234.5zM152 989q0 -156 114.5 -270.5t270.5 -114.5q142 0 270 60q108 177 108 325q0 156 -111 267.5 t-269 111.5t-270.5 -111.5t-112.5 -267.5z" />
<glyph unicode=":" horiz-adv-x="432" d="M125 70q0 38 26 65t64 27q39 0 65.5 -26.5t26.5 -65.5q0 -38 -26 -64t-66 -26q-38 0 -64 26t-26 64zM125 780q0 38 26 65t64 27q39 0 65.5 -26.5t26.5 -65.5q0 -38 -26 -64t-66 -26q-38 0 -64 26t-26 64z" />
<glyph unicode=";" horiz-adv-x="499" d="M125 -195l90 369h119l-141 -369h-68zM195 686q0 38 26 65t64 27q39 0 65.5 -26.5t26.5 -65.5q0 -38 -26 -64t-66 -26q-38 0 -64 26t-26 64z" />
<glyph unicode="&#x3c;" horiz-adv-x="1173" d="M162 688v74l850 393v-92l-740 -338l740 -336v-94z" />
<glyph unicode="=" horiz-adv-x="1163" d="M162 424v82h839v-82h-839zM162 758v82h839v-82h-839z" />
<glyph unicode="&#x3e;" horiz-adv-x="1173" d="M162 295v94l739 336l-739 338v92l850 -393v-74z" />
<glyph unicode="?" horiz-adv-x="978" d="M47 1020q0 189 126.5 311.5t318.5 122.5q182 0 300.5 -111t118.5 -282q0 -74 -23 -137t-59.5 -107.5t-81 -85t-89 -79t-81.5 -80t-60.5 -98t-24.5 -122.5h-89q0 78 23 143t59.5 110.5t81 86t89 78t81 77t59.5 93t23 117.5q0 136 -92 223.5t-235 87.5q-156 0 -255.5 -97.5 t-99.5 -250.5h-90zM362 70q0 38 26.5 65t64.5 27q39 0 65.5 -26.5t26.5 -65.5q0 -38 -26 -64t-66 -26q-38 0 -64.5 26t-26.5 64z" />
<glyph unicode="@" horiz-adv-x="1855" d="M102 483q0 172 63.5 325t173.5 262.5t264 173t329 63.5q168 0 306.5 -42t232.5 -113t158.5 -167t94 -202t29.5 -220q0 -235 -73.5 -362t-204.5 -127q-164 0 -220 137q-50 -68 -145.5 -113t-191.5 -45q-179 0 -302.5 127.5t-123.5 313.5t123.5 313t302.5 127q84 0 170 -37 t139 -94v115h80v-515q0 -142 41 -201t127 -59q98 0 151 109t53 311q0 94 -23 184t-78.5 179.5t-138.5 156.5t-214 108.5t-293 41.5q-159 0 -299 -58t-240 -157.5t-158 -238.5t-57 -296q1 -207 95.5 -374t261 -261t372.5 -94q132 0 247.5 40.5t166.5 105.5h102 q-66 -98 -208.5 -157.5t-307.5 -59.5q-171 0 -320.5 60.5t-256 165.5t-167.5 254t-61 320zM567 494q0 -152 104 -258.5t253 -106.5q94 0 182.5 44.5t128.5 111.5q-8 70 -8 118v310q-43 63 -128 104t-175 41q-150 0 -253.5 -105.5t-103.5 -258.5z" />
<glyph unicode="A" horiz-adv-x="1312" d="M33 0l575 1434h94l578 -1434h-100l-158 397h-733l-160 -397h-96zM324 483h663l-332 830z" />
<glyph unicode="B" horiz-adv-x="1212" d="M184 0v1434h480q163 0 277 -102.5t114 -248.5q0 -123 -76 -216.5t-188 -108.5q143 -11 242.5 -117t99.5 -252q0 -163 -117.5 -276t-288.5 -113h-543zM274 86h449q137 0 227 89.5t90 221.5q0 130 -91.5 220t-223.5 90h-451v-621zM274 786h390q125 0 212 84t87 205 q0 115 -87.5 194t-211.5 79h-390v-562z" />
<glyph unicode="C" horiz-adv-x="1566" d="M115 723q0 202 93 370t255 264.5t356 96.5q152 0 285 -59t224 -165.5t122 -242.5h-98q-47 169 -195.5 275t-337.5 106q-127 0 -240.5 -50t-195 -136t-129 -205.5t-47.5 -253.5q0 -136 47.5 -258t129 -209.5t195 -138.5t240.5 -51q196 0 344 111t191 290h100 q-49 -218 -225 -352.5t-410 -134.5q-195 0 -356.5 98t-254.5 268.5t-93 376.5z" />
<glyph unicode="D" horiz-adv-x="1417" d="M184 0v1434h424q145 0 273.5 -53.5t221 -146.5t146.5 -226t54 -285q0 -151 -54 -285.5t-146.5 -230.5t-221.5 -151.5t-273 -55.5h-424zM274 86h338q126 0 236.5 48.5t190 132.5t125.5 202.5t46 253.5q0 180 -78 323t-214.5 222.5t-305.5 79.5h-338v-1262z" />
<glyph unicode="E" horiz-adv-x="1081" d="M184 0v1434h768v-86h-678v-527h605v-86h-605v-649h678v-86h-768z" />
<glyph unicode="F" horiz-adv-x="1038" d="M184 0v1434h768v-86h-678v-533h605v-86h-605v-729h-90z" />
<glyph unicode="G" horiz-adv-x="1611" d="M115 723q0 126 34.5 239.5t99 202.5t152 154t197.5 100t231 35q153 0 287 -59t224.5 -165t121.5 -241h-100q-47 170 -195 274.5t-338 104.5q-178 0 -320 -83t-222 -230.5t-80 -331.5q0 -139 47.5 -261t130 -209t199 -137t250.5 -50q175 0 318 69t218 189v329h-479v86h571 v-442q-84 -147 -252.5 -232t-378.5 -85q-203 0 -367 96.5t-256.5 266.5t-92.5 380z" />
<glyph unicode="H" horiz-adv-x="1439" d="M184 0v1434h90v-643h891v643h92v-1434h-92v705h-891v-705h-90z" />
<glyph unicode="I" horiz-adv-x="458" d="M184 0v1434h90v-1434h-90z" />
<glyph unicode="J" horiz-adv-x="589" d="M43 -18v84h31q126 0 188 83t62 254v1031h92v-1045q0 -203 -83 -306t-243 -103q-7 0 -23.5 1t-23.5 1z" />
<glyph unicode="K" horiz-adv-x="1189" d="M184 0v1434h90v-666l689 666h122l-712 -684l780 -750h-127l-752 731v-731h-90z" />
<glyph unicode="L" horiz-adv-x="1116" d="M184 0v1434h90v-1348h756v-86h-846z" />
<glyph unicode="M" horiz-adv-x="1761" d="M184 0v1434h103l598 -1301l600 1301h92v-1434h-92v1241l-570 -1241h-71l-570 1241v-1241h-90z" />
<glyph unicode="N" horiz-adv-x="1454" d="M184 0v1434h97l899 -1284v1284h90v-1434h-96l-900 1284v-1284h-90z" />
<glyph unicode="O" horiz-adv-x="1665" d="M115 723q0 151 56 286.5t151.5 233t228 154.5t280.5 57q149 0 282 -57t229 -154.5t152 -233t56 -286.5q0 -154 -56 -292t-152 -236.5t-229 -156.5t-282 -58q-148 0 -280.5 58t-228 156.5t-151.5 236.5t-56 292zM207 723q0 -182 82.5 -333t226 -237.5t315.5 -86.5 q173 0 317 86.5t227 237.5t83 333q0 134 -49 253.5t-132.5 205.5t-199.5 136t-246 50q-172 0 -315.5 -85t-226 -233.5t-82.5 -326.5z" />
<glyph unicode="P" horiz-adv-x="1218" d="M184 0v1434h555q167 0 281.5 -113t114.5 -279t-114.5 -279.5t-281.5 -113.5h-465v-649h-90zM274 735h465q127 0 215 89t88 218t-87.5 217.5t-215.5 88.5h-465v-613z" />
<glyph unicode="Q" horiz-adv-x="1671" d="M115 723q0 151 56 286.5t151.5 233t228 154.5t280.5 57q149 0 282 -57t229 -154.5t152 -233t56 -286.5q0 -158 -58 -297.5t-161 -241.5l144 -184h-105l-100 129q-192 -149 -439 -149q-148 0 -280.5 58t-228 156.5t-151.5 236.5t-56 292zM207 723q0 -182 82.5 -333 t226 -237.5t315.5 -86.5q218 0 383 133l-362 465h104l320 -410q86 91 134 212t48 257q0 134 -49 253.5t-132.5 205.5t-199.5 136t-246 50q-172 0 -315.5 -85t-226 -233.5t-82.5 -326.5z" />
<glyph unicode="R" horiz-adv-x="1230" d="M184 0v1434h504q178 0 295 -111.5t117 -280.5q0 -170 -108.5 -279.5t-280.5 -117.5l444 -645h-111l-436 645h-334v-645h-90zM274 731h414q140 0 231 87.5t91 223.5q0 133 -91 219.5t-231 86.5h-414v-617z" />
<glyph unicode="S" horiz-adv-x="1218" d="M117 432h90q0 -161 117.5 -263.5t298.5 -102.5q171 0 284 86.5t113 220.5q0 77 -30 134t-81 91t-116.5 58.5t-138.5 42t-145.5 35.5t-138 45.5t-116.5 65t-81 100.5t-30 147q0 158 130.5 260t330.5 102q208 0 335.5 -110.5t127.5 -278.5h-90q-6 133 -110 218t-263 85 q-163 0 -267 -77.5t-104 -198.5q0 -70 30 -121t81 -81t117 -51.5t139 -38.5t145.5 -35.5t138.5 -48t117 -71.5t81 -111t30 -161q0 -168 -138.5 -280.5t-350.5 -112.5q-220 0 -363 128t-143 324z" />
<glyph unicode="T" horiz-adv-x="1208" d="M68 1348v86h1073v-86h-492v-1348h-90v1348h-491z" />
<glyph unicode="U" horiz-adv-x="1441" d="M184 528v906h90v-906q0 -199 126.5 -329.5t320.5 -130.5q192 0 318 130.5t126 329.5v906h92v-906q0 -236 -152 -392t-384 -156t-384.5 156t-152.5 392z" />
<glyph unicode="V" horiz-adv-x="1267" d="M43 1434h98l494 -1311l491 1311h97l-545 -1434h-88z" />
<glyph unicode="W" horiz-adv-x="2084" d="M43 1434h98l434 -1309l431 1309h88l422 -1309l430 1309h96l-481 -1434h-91l-423 1307l-429 -1307h-88z" />
<glyph unicode="X" horiz-adv-x="1183" d="M43 0l496 743l-459 691h106l406 -611l405 611h105l-457 -689l494 -745h-107l-440 664l-442 -664h-107z" />
<glyph unicode="Y" horiz-adv-x="1216" d="M43 1434h111l458 -684l455 684h107l-517 -775v-659h-92v659z" />
<glyph unicode="Z" horiz-adv-x="1177" d="M63 0v72l924 1276h-872v86h981v-72l-920 -1276h928v-86h-1041z" />
<glyph unicode="[" horiz-adv-x="608" d="M162 -356v1904h385v-78h-299v-1751h299v-75h-385z" />
<glyph unicode="\" horiz-adv-x="749" d="M-10 1434h94l631 -1434h-94z" />
<glyph unicode="]" horiz-adv-x="610" d="M63 -281h299v1751h-299v78h386v-1904h-386v75z" />
<glyph unicode="^" horiz-adv-x="1064" d="M102 606l394 850h73l394 -850h-95l-336 740l-337 -740h-93z" />
<glyph unicode="_" horiz-adv-x="970" d="M41 -20h889v-82h-889v82z" />
<glyph unicode="`" horiz-adv-x="485" d="M102 1391h119l162 -275h-88z" />
<glyph unicode="a" d="M96 498q0 144 66.5 262t183 185t258.5 67q114 0 221 -55.5t152 -135.5v170h88v-991h-88v170q-48 -80 -154 -135t-219 -55q-217 0 -362.5 148t-145.5 370zM184 498q0 -187 122.5 -311t307.5 -124q108 0 211 58t152 147v455q-47 90 -150.5 148.5t-212.5 58.5 q-185 0 -307.5 -123t-122.5 -309z" />
<glyph unicode="b" d="M162 0v1434h90v-609q46 79 152 133t219 54q142 0 258.5 -67t182.5 -185t66 -262q0 -222 -145 -370t-362 -148q-112 0 -217.5 54t-153.5 134v-168h-90zM252 264q49 -88 151 -144.5t209 -56.5q185 0 307.5 124t122.5 311q0 186 -122.5 309t-307.5 123q-108 0 -210.5 -57 t-149.5 -146v-463z" />
<glyph unicode="c" horiz-adv-x="1148" d="M96 496q0 143 67.5 261.5t184.5 186.5t258 68q160 0 288 -92t159 -230h-92q-26 103 -127.5 171.5t-227.5 68.5q-178 0 -300 -125.5t-122 -308.5q0 -182 122 -307.5t300 -125.5q126 0 228.5 69t128.5 179h90q-26 -146 -155 -238.5t-292 -92.5q-141 0 -258 68t-184.5 186.5 t-67.5 261.5z" />
<glyph unicode="d" d="M96 498q0 144 66.5 262t183 185t258.5 67q113 0 219 -54t152 -133v609h90v-1434h-90v168q-48 -80 -153.5 -134t-217.5 -54q-217 0 -362.5 148t-145.5 370zM184 498q0 -187 122.5 -311t307.5 -124q107 0 209.5 56.5t151.5 144.5v463q-47 88 -150 145.5t-211 57.5 q-185 0 -307.5 -123t-122.5 -309z" />
<glyph unicode="e" horiz-adv-x="1157" d="M94 502q0 140 66.5 257.5t181.5 185t252 67.5q200 0 334.5 -136.5t134.5 -340.5q0 -23 -2 -31h-879q0 -193 116.5 -318t297.5 -125q140 0 243.5 66.5t127.5 177.5h88q-29 -146 -157.5 -235.5t-303.5 -89.5q-214 0 -357 149t-143 373zM188 582h781q-9 151 -115.5 250.5 t-261.5 99.5q-156 0 -267.5 -97.5t-136.5 -252.5z" />
<glyph unicode="f" horiz-adv-x="675" d="M45 909v82h203v148q0 158 79 233.5t224 75.5q30 0 80 -8v-82q-27 8 -70 8q-109 0 -167 -52.5t-58 -174.5v-148h295v-82h-295v-909h-88v909h-203z" />
<glyph unicode="g" d="M96 500q0 219 145.5 365.5t362.5 146.5q114 0 221 -55t152 -134v168h88v-966q0 -203 -131.5 -328t-343.5 -125q-118 0 -219 40t-165 119.5t-65 184.5h86q1 -117 104.5 -189.5t256.5 -72.5q172 0 279.5 102t107.5 269v67h2v82q-48 -80 -154 -134t-219 -54 q-217 0 -362.5 146.5t-145.5 367.5zM184 500q0 -186 122.5 -309t307.5 -123q108 0 211 57.5t152 146.5v453q-47 89 -150.5 147t-212.5 58q-185 0 -307.5 -122t-122.5 -308z" />
<glyph unicode="h" horiz-adv-x="1202" d="M162 0v1434h90v-611q54 86 157 137.5t222 51.5q183 0 296 -120.5t113 -316.5v-575h-90v567q0 161 -92 261t-240 100q-115 0 -213.5 -54t-152.5 -147v-727h-90z" />
<glyph unicode="i" horiz-adv-x="413" d="M129 1325q0 31 23.5 53.5t56.5 22.5q30 0 54 -23t24 -53q0 -33 -24 -55.5t-54 -22.5q-34 0 -57 22t-23 56zM162 0v991h90v-991h-90z" />
<glyph unicode="j" horiz-adv-x="413" d="M-6 -338h22q74 0 110 57.5t36 180.5v1091h90v-1097q0 -161 -55.5 -239.5t-169.5 -78.5q-21 0 -33 2v84zM127 1325q0 31 23.5 53.5t56.5 22.5q30 0 54 -23t24 -53q0 -33 -24 -55.5t-54 -22.5q-34 0 -57 22t-23 56z" />
<glyph unicode="k" horiz-adv-x="983" d="M162 0v1434h90v-895l536 452h119l-561 -471l592 -520h-123l-563 500v-500h-90z" />
<glyph unicode="l" horiz-adv-x="413" d="M162 0v1434h90v-1434h-90z" />
<glyph unicode="m" horiz-adv-x="1886" d="M162 0v991h88v-168q21 33 49.5 62.5t70 60t100 48.5t124.5 18q126 0 216 -55t134 -158q69 91 164 152t213 61q186 0 294.5 -114.5t108.5 -311.5v-586h-88v575q0 164 -87 259.5t-238 95.5q-101 0 -194.5 -60.5t-145.5 -148.5q13 -49 16 -129v-592h-88v575 q0 164 -86.5 259.5t-234.5 95.5q-106 0 -193.5 -55.5t-134.5 -145.5v-729h-88z" />
<glyph unicode="n" horiz-adv-x="1202" d="M162 0v991h88v-174q52 89 156.5 142t226.5 53q183 0 296 -120.5t113 -316.5v-575h-90v567q0 161 -91.5 261t-239.5 100q-117 0 -217.5 -57t-153.5 -152v-719h-88z" />
<glyph unicode="o" horiz-adv-x="1214" d="M94 496q0 143 68 261.5t185.5 186.5t258.5 68t258.5 -68t185.5 -186.5t68 -261.5t-68 -261.5t-185.5 -186.5t-258.5 -68t-258.5 68t-185.5 186.5t-68 261.5zM182 496q0 -182 123 -307.5t301 -125.5q177 0 300.5 126t123.5 307q0 182 -123 307t-301 125 q-179 0 -301.5 -124.5t-122.5 -307.5z" />
<glyph unicode="p" d="M162 -393v1384h90v-168q48 80 153.5 134.5t217.5 54.5q217 0 362 -148t145 -370q0 -144 -66 -262t-182.5 -185t-258.5 -67q-113 0 -219 53.5t-152 132.5v-559h-90zM252 264q47 -89 149.5 -146t210.5 -57q185 0 307.5 123.5t122.5 309.5q0 187 -122.5 310.5t-307.5 123.5 q-107 0 -209 -56.5t-151 -144.5v-463z" />
<glyph unicode="q" d="M96 494q0 222 145.5 370t362.5 148q112 0 217.5 -54.5t153.5 -134.5v168h90v-1384h-90v559q-46 -79 -152 -132.5t-219 -53.5q-142 0 -258.5 67t-183 185t-66.5 262zM184 494q0 -186 122.5 -309.5t307.5 -123.5q108 0 211 57.5t150 145.5v463q-49 88 -151.5 144.5 t-209.5 56.5q-185 0 -307.5 -123.5t-122.5 -310.5z" />
<glyph unicode="r" horiz-adv-x="688" d="M162 0v991h90v-172q44 87 123 140t162 53q51 0 94 -15v-84q-53 17 -99 17q-74 0 -151 -56.5t-129 -152.5v-721h-90z" />
<glyph unicode="s" horiz-adv-x="915" d="M76 274h88q12 -97 91 -156t196 -59q121 0 197.5 58.5t76.5 150.5q0 67 -34.5 110t-89.5 63t-121 33.5t-132.5 29.5t-121.5 41.5t-89.5 78.5t-34.5 132q0 113 93.5 184.5t242.5 71.5q137 0 236.5 -72t116.5 -190h-93q-13 82 -87 134t-175 52q-107 0 -176.5 -49.5 t-69.5 -126.5q0 -64 34.5 -104.5t89.5 -59t121 -31t132.5 -29t121.5 -43t89.5 -82.5t34.5 -139q0 -127 -101 -209.5t-257 -82.5t-259 79.5t-120 214.5z" />
<glyph unicode="t" horiz-adv-x="686" d="M35 909v82h201v281h90v-281h292v-82h-292v-608q0 -122 57.5 -174.5t167.5 -52.5q40 0 67 8v-82q-46 -8 -79 -8q-145 0 -224 75.5t-79 233.5v608h-201z" />
<glyph unicode="u" horiz-adv-x="1202" d="M162 416v575h90v-567q0 -161 92 -261t240 -100q116 0 216 55.5t152 149.5v723h88v-991h-88v170q-52 -87 -156 -138.5t-225 -51.5q-183 0 -296 120t-113 316z" />
<glyph unicode="v" horiz-adv-x="1026" d="M43 991h98l371 -891l373 891h96l-428 -991h-82z" />
<glyph unicode="w" horiz-adv-x="1605" d="M43 991h94l312 -880l313 880h80l317 -880l309 880h95l-365 -991h-80l-315 883l-318 -883h-77z" />
<glyph unicode="x" horiz-adv-x="968" d="M55 0l377 510l-354 481h104l303 -409l301 409h105l-354 -479l376 -512h-104l-326 440l-325 -440h-103z" />
<glyph unicode="y" horiz-adv-x="1021" d="M43 991h96l371 -893l373 893h96l-584 -1388h-94l166 391z" />
<glyph unicode="z" horiz-adv-x="1019" d="M74 0v72l735 837h-688v82h803v-71l-736 -838l738 2v-84h-852z" />
<glyph unicode="{" horiz-adv-x="716" d="M41 565v60q87 23 144 90t57 145v383q0 138 80 220.5t208 84.5h125v-78h-125q-91 0 -148.5 -61.5t-57.5 -165.5v-379q0 -86 -48.5 -161t-123.5 -107q76 -36 124 -110t48 -158v-379q0 -104 57.5 -167t148.5 -63h125v-75h-125q-128 0 -208 83t-80 222v381q0 79 -56.5 145.5 t-144.5 89.5z" />
<glyph unicode="|" horiz-adv-x="413" d="M162 -397v2035h90v-2035h-90z" />
<glyph unicode="}" horiz-adv-x="716" d="M61 -281h125q91 0 149 63t58 167v379q0 84 48 158t124 110q-75 32 -123.5 107t-48.5 161v379q0 104 -58 165.5t-149 61.5h-125v78h125q128 -2 208.5 -84.5t80.5 -220.5v-383q0 -78 57 -145t144 -90v-60q-88 -23 -144.5 -89.5t-56.5 -145.5v-381q0 -139 -80.5 -222 t-208.5 -83h-125v75z" />
<glyph unicode="~" horiz-adv-x="1142" d="M162 543q12 103 69.5 166t137.5 63q46 0 105 -24t106 -53t100.5 -53t89.5 -24q53 0 88 39.5t45 120.5l78 -10q-12 -103 -69.5 -166t-137.5 -63q-43 0 -100 24t-103.5 52.5t-102 52.5t-95.5 24q-51 0 -86 -39.5t-47 -120.5z" />
<glyph unicode="&#xa1;" horiz-adv-x="432" d="M125 1364q0 38 26 64t64 26q40 0 66 -26t26 -64q0 -39 -26.5 -65.5t-65.5 -26.5q-38 0 -64 27t-26 65zM164 0l8 1079h88l6 -1079h-102z" />
<glyph unicode="&#xa2;" horiz-adv-x="1105" d="M96 496q0 204 132 349.5t329 164.5v229h90v-229q148 -12 262.5 -101.5t143.5 -218.5h-92q-26 103 -127.5 171.5t-227.5 68.5q-178 0 -300 -125.5t-122 -308.5q0 -182 122 -307.5t300 -125.5q126 0 228.5 69t128.5 179h90q-24 -136 -139 -226.5t-267 -102.5v-228h-90v228 q-197 19 -329 164.5t-132 349.5z" />
<glyph unicode="&#xa3;" horiz-adv-x="1210" d="M184 0v86q187 129 187 379v227h-170v78h170v287q0 172 105 284.5t269 112.5q144 0 244 -76t115 -200h-92q-9 86 -83 138t-184 52q-124 0 -203 -89.5t-79 -229.5v-279h444v-78h-444v-227q0 -260 -168 -379h829v-86h-940z" />
<glyph unicode="&#xa4;" horiz-adv-x="1536" d="M162 172l217 217q-121 140 -121 324q0 190 123 329l-219 218l61 61l219 -217q139 123 332 123q187 0 324 -121l215 215l61 -61l-215 -216q123 -142 123 -331q0 -187 -123 -326l215 -215l-61 -61l-215 215q-139 -123 -324 -123q-190 0 -334 125l-217 -217zM340 713 q0 -175 127.5 -301.5t306.5 -126.5q177 0 301.5 125t124.5 303q0 181 -124.5 306.5t-301.5 125.5q-180 0 -307 -126t-127 -306z" />
<glyph unicode="&#xa5;" horiz-adv-x="1216" d="M43 1434h111l458 -684l455 684h107l-472 -707h347v-78h-392v-649h-92v649h-395v78h350z" />
<glyph unicode="&#xa6;" horiz-adv-x="413" d="M162 334h90v-731h-90v731zM162 907v731h90v-731h-90z" />
<glyph unicode="&#xa7;" horiz-adv-x="1345" d="M184 12h80q0 -156 118 -255t300 -99q171 0 284 83.5t113 213.5q0 67 -24.5 118.5t-66 83t-97 57t-118 39.5t-128.5 31.5t-128.5 32.5t-118 43t-97 62.5t-66 91t-24.5 129.5q0 137 108 231q-108 83 -108 236q0 151 128 248.5t325 97.5q203 0 328.5 -105t125.5 -266h-82 q-6 128 -109.5 209.5t-262.5 81.5q-163 0 -267 -74.5t-104 -191.5q0 -67 30 -116t80 -78t115.5 -49.5t137.5 -36.5t144 -33.5t137.5 -46t115.5 -68.5t80 -106t30 -154q0 -125 -90 -225q90 -90 90 -242q0 -161 -137 -268t-344 -107q-217 0 -357.5 121.5t-140.5 310.5z M293 643q0 -87 48.5 -143t132 -85t172 -48.5t192 -49t168.5 -69.5q73 73 73 174q0 78 -34 135.5t-86 89t-127.5 56.5t-145.5 39.5t-153 37.5t-138 49q-102 -70 -102 -186z" />
<glyph unicode="&#xa8;" horiz-adv-x="632" d="M102 1325q0 31 23.5 53.5t56.5 22.5q30 0 54 -23t24 -53q0 -33 -24 -55.5t-54 -22.5q-34 0 -57 22t-23 56zM373 1325q0 31 23.5 53.5t56.5 22.5q30 0 53.5 -23t23.5 -53q0 -33 -23.5 -55.5t-53.5 -22.5q-34 0 -57 22t-23 56z" />
<glyph unicode="&#xa9;" horiz-adv-x="1701" d="M115 717q0 200 99 369.5t268.5 268.5t367.5 99q201 0 371 -99t269 -268.5t99 -369.5t-99 -369.5t-269 -268.5t-371 -99q-198 0 -367.5 99t-268.5 268.5t-99 369.5zM174 717q0 -138 54 -264t145 -217t216.5 -145t262.5 -54t262.5 54t216 145t144 217t53.5 264t-53.5 264 t-144 217t-216 145t-262.5 54t-262.5 -54t-216.5 -145t-145 -217t-54 -264zM434 721q0 186 120.5 310t303.5 124q118 0 214.5 -54t133.5 -140l-55 -29q-37 73 -116 116.5t-177 43.5q-154 0 -255 -106t-101 -265q0 -161 101 -270t255 -109q103 0 185.5 49t117.5 131l58 -26 q-36 -97 -136.5 -156t-224.5 -59q-183 0 -303.5 125.5t-120.5 314.5z" />
<glyph unicode="&#xaa;" horiz-adv-x="731" d="M57 1141q0 133 86 222t215 89q63 0 124 -30t89 -74v92h66v-596h-66v92q-28 -44 -89 -74.5t-124 -30.5q-128 0 -214.5 89.5t-86.5 220.5zM119 1141q0 -105 71.5 -176.5t176.5 -71.5q60 0 118 32t86 81v272q-28 51 -86.5 82t-117.5 31q-105 0 -176.5 -71.5t-71.5 -178.5z " />
<glyph unicode="&#xab;" horiz-adv-x="1255" d="M94 500v67l549 432v-98l-467 -366l467 -367v-100zM586 500v67l549 432v-98l-467 -366l467 -367v-100z" />
<glyph unicode="&#xac;" horiz-adv-x="1189" d="M162 598v84h866v-502h-86v418h-780z" />
<glyph unicode="&#xad;" horiz-adv-x="593" d="M51 485v82h492v-82h-492z" />
<glyph unicode="&#xae;" horiz-adv-x="1642" d="M115 717q0 200 99 369.5t268.5 268.5t367.5 99q201 0 371 -99t269 -268.5t99 -369.5t-99 -369.5t-269 -268.5t-371 -99q-198 0 -367.5 99t-268.5 268.5t-99 369.5zM174 717q0 -138 54 -264t145 -217t216.5 -145t262.5 -54t262.5 54t216 145t144 217t53.5 264t-53.5 264 t-144 217t-216 145t-262.5 54t-262.5 -54t-216.5 -145t-145 -217t-54 -264zM594 293v850h301q105 0 175.5 -68t70.5 -168q0 -99 -61.5 -164t-159.5 -73l258 -377h-78l-254 377h-187v-377h-65zM657 1079l2 -348h234q78 0 130 50.5t52 125.5t-52 123.5t-130 48.5h-236z" />
<glyph unicode="&#xaf;" horiz-adv-x="860" d="M102 1151v76h656v-76h-656z" />
<glyph unicode="&#xb0;" horiz-adv-x="804" d="M117 1176q0 115 82.5 196.5t199.5 81.5q116 0 198.5 -81.5t82.5 -196.5q0 -117 -83 -201t-198 -84q-117 0 -199.5 84t-82.5 201zM184 1176q0 -90 63 -154t152 -64q88 0 150.5 64.5t62.5 153.5q0 87 -62.5 148.5t-150.5 61.5q-89 0 -152 -61t-63 -149z" />
<glyph unicode="&#xb1;" horiz-adv-x="1163" d="M162 0v82h839v-82h-839zM162 631v82h377v377h82v-377h380v-82h-380v-381h-82v381h-377z" />
<glyph unicode="&#xb2;" horiz-adv-x="641" d="M55 573v52l346 348q127 130 127 229q0 78 -53 129t-135 51q-96 0 -155 -56.5t-58 -149.5h-66q-3 123 76.5 196.5t202.5 73.5q111 0 184.5 -68.5t73.5 -173.5q0 -126 -149 -272l-293 -295h454v-64h-555z" />
<glyph unicode="&#xb3;" horiz-adv-x="651" d="M31 776h67q12 -68 71 -109.5t144 -41.5q94 0 154.5 60.5t60.5 154.5q0 105 -90 155.5t-217 18.5v49l277 307h-445v64h537v-50l-283 -313q120 21 204.5 -49t84.5 -186q0 -120 -80 -197.5t-203 -77.5q-113 0 -190.5 59.5t-91.5 155.5z" />
<glyph unicode="&#xb4;" horiz-adv-x="485" d="M102 1116l162 275h119l-193 -275h-88z" />
<glyph unicode="&#xb5;" horiz-adv-x="1202" d="M162 -397v1388h90v-567q0 -161 92 -261t240 -100q116 0 216 55.5t152 149.5v723h88v-991h-88v170q-52 -87 -156 -138.5t-225 -51.5q-206 0 -319 147v-524h-90z" />
<glyph unicode="&#xb6;" horiz-adv-x="1263" d="M86 1044q0 163 115.5 276.5t281.5 113.5h715v-86h-154v-1745h-90v1745h-200v-1745h-88v1046h-183q-166 0 -281.5 115.5t-115.5 279.5zM178 1044q0 -128 88.5 -218.5t214.5 -90.5h185v613h-185q-126 0 -214.5 -89t-88.5 -215z" />
<glyph unicode="&#xb7;" horiz-adv-x="432" d="M125 522q0 38 26 65t64 27q39 0 65.5 -26.5t26.5 -65.5q0 -38 -26 -64t-66 -26q-38 0 -64 26t-26 64z" />
<glyph unicode="&#xb8;" horiz-adv-x="483" d="M102 -365q87 11 138 47t60.5 88t-26 119t-114.5 136h76q75 -62 111.5 -129.5t33 -124t-34 -103t-89 -73t-132.5 -27.5z" />
<glyph unicode="&#xb9;" horiz-adv-x="385" d="M31 1235v74l198 125h52v-861h-68v779z" />
<glyph unicode="&#xba;" horiz-adv-x="724" d="M57 1141q0 131 88 221t217 90q128 0 217 -90.5t89 -220.5t-89 -220t-217 -90q-129 0 -217 89.5t-88 220.5zM119 1141q0 -104 70 -176t173 -72q102 0 173 72t71 176q0 105 -71 177.5t-173 72.5q-103 0 -173 -72t-70 -178z" />
<glyph unicode="&#xbb;" horiz-adv-x="1255" d="M121 68v100l467 367l-467 366v98l549 -432v-67zM612 68v100l467 367l-467 366v98l549 -432v-67z" />
<glyph unicode="&#xbc;" horiz-adv-x="1597" d="M31 1235v74l198 125h52v-861h-68v779zM135 0l952 1434h78l-952 -1434h-78zM928 199v49l323 612h74l-317 -598h360v320h66v-320h127v-63h-127v-199h-66v199h-440z" />
<glyph unicode="&#xbd;" horiz-adv-x="1482" d="M31 1235v74l198 125h52v-861h-68v779zM135 0l952 1434h78l-952 -1434h-78zM942 0v51l346 348q127 130 127 230q0 78 -53 129t-135 51q-96 0 -155 -57t-58 -150h-66q-3 123 76.5 196.5t202.5 73.5q111 0 184.5 -68t73.5 -173q0 -126 -150 -273l-293 -295h455v-63h-555z " />
<glyph unicode="&#xbe;" horiz-adv-x="1837" d="M31 776h67q12 -68 71 -109.5t144 -41.5q94 0 154.5 60.5t60.5 154.5q0 105 -90 155.5t-217 18.5v49l277 307h-445v64h537v-50l-283 -313q120 21 204.5 -49t84.5 -186q0 -120 -80 -197.5t-203 -77.5q-113 0 -190.5 59.5t-91.5 155.5zM377 0l952 1434h78l-952 -1434h-78z M1169 199v49l324 612h74l-318 -598h361v320h65v-320h127v-63h-127v-199h-65v199h-441z" />
<glyph unicode="&#xbf;" horiz-adv-x="974" d="M63 373q0 74 23 137t59.5 107.5t81 84.5t89.5 79t82 80t60.5 97.5t24.5 122.5h88q0 -78 -23 -143t-59.5 -110.5t-80.5 -85.5t-88.5 -77.5t-81 -77t-59.5 -93t-23 -117.5q0 -136 92 -223.5t235 -87.5q156 0 255.5 97.5t99.5 250.5h90q0 -189 -126.5 -311.5t-318.5 -122.5 q-182 0 -301 111t-119 282zM430 1364q0 38 26 64t66 26q38 0 64 -26t26 -64t-26 -65t-64 -27q-39 0 -65.5 26.5t-26.5 65.5z" />
<glyph unicode="&#xc0;" horiz-adv-x="1312" d="M33 0l575 1434h94l578 -1434h-100l-158 397h-733l-160 -397h-96zM324 483h663l-332 830zM428 1833h119l162 -274h-88z" />
<glyph unicode="&#xc1;" horiz-adv-x="1312" d="M33 0l575 1434h94l578 -1434h-100l-158 397h-733l-160 -397h-96zM324 483h663l-332 830zM594 1559l162 274h118l-192 -274h-88z" />
<glyph unicode="&#xc2;" horiz-adv-x="1312" d="M33 0l575 1434h94l578 -1434h-100l-158 397h-733l-160 -397h-96zM324 483h663l-332 830zM426 1577l180 274h105l178 -274h-82l-150 209l-149 -209h-82z" />
<glyph unicode="&#xc3;" horiz-adv-x="1312" d="M33 0l575 1434h94l578 -1434h-100l-158 397h-733l-160 -397h-96zM324 483h663l-332 830zM342 1593q4 85 52 138t118 53q37 0 79.5 -19t74 -42.5t68 -42.5t63.5 -19q45 0 73 34t27 87l76 -10q-4 -85 -52.5 -138t-117.5 -53q-39 0 -81 19.5t-72.5 43t-67.5 43t-66 19.5 q-45 0 -72 -34t-26 -89z" />
<glyph unicode="&#xc4;" horiz-adv-x="1312" d="M33 0l575 1434h94l578 -1434h-100l-158 397h-733l-160 -397h-96zM324 483h663l-332 830zM444 1673q0 31 23.5 53.5t56.5 22.5q30 0 54 -23t24 -53q0 -33 -24 -55.5t-54 -22.5q-34 0 -57 22t-23 56zM713 1673q0 31 23.5 53.5t56.5 22.5q30 0 53.5 -23t23.5 -53 q0 -33 -23.5 -55.5t-53.5 -22.5q-34 0 -57 22t-23 56z" />
<glyph unicode="&#xc5;" horiz-adv-x="1312" d="M33 0l575 1434h94l578 -1434h-100l-158 397h-733l-160 -397h-96zM324 483h663l-332 830zM434 1772q0 94 63 154.5t160 60.5q98 0 162 -60.5t64 -154.5t-64 -155t-162 -61q-97 0 -160 61t-63 155zM500 1772q0 -65 45 -108.5t112 -43.5q69 0 113.5 43.5t44.5 108.5 t-44.5 108t-113.5 43q-67 0 -112 -43t-45 -108z" />
<glyph unicode="&#xc6;" horiz-adv-x="1871" d="M33 0l909 1434h799v-86h-676v-527h602v-86h-602v-649h676v-86h-766v410h-580l-258 -410h-104zM446 492h529v837z" />
<glyph unicode="&#xc7;" horiz-adv-x="1566" d="M115 723q0 202 93 370t255 264.5t356 96.5q152 0 285 -59t224 -165.5t122 -242.5h-98q-47 169 -195.5 275t-337.5 106q-127 0 -240.5 -50t-195 -136t-129 -205.5t-47.5 -253.5q0 -136 47.5 -258t129 -209.5t195 -138.5t240.5 -51q196 0 344 111t191 290h100 q-46 -203 -204 -335.5t-373 -149.5q57 -59 81 -120.5t14.5 -112.5t-41 -92.5t-87.5 -64.5t-125 -24l-23 67q107 13 159.5 62.5t39 124t-93.5 158.5q-143 4 -270 63t-218.5 157.5t-144.5 234.5t-53 288z" />
<glyph unicode="&#xc8;" horiz-adv-x="1081" d="M184 0v1434h768v-86h-678v-527h605v-86h-605v-649h678v-86h-768zM338 1833h119l161 -274h-88z" />
<glyph unicode="&#xc9;" horiz-adv-x="1081" d="M184 0v1434h768v-86h-678v-527h605v-86h-605v-649h678v-86h-768zM504 1559l162 274h118l-192 -274h-88z" />
<glyph unicode="&#xca;" horiz-adv-x="1081" d="M184 0v1434h768v-86h-678v-527h605v-86h-605v-649h678v-86h-768zM336 1577l180 274h105l178 -274h-82l-150 209l-149 -209h-82z" />
<glyph unicode="&#xcb;" horiz-adv-x="1081" d="M184 0v1434h768v-86h-678v-527h605v-86h-605v-649h678v-86h-768zM354 1673q0 31 23.5 53.5t56.5 22.5q30 0 54 -23t24 -53q0 -33 -24 -55.5t-54 -22.5q-34 0 -57 22t-23 56zM623 1673q0 31 23 53.5t56 22.5q30 0 54 -23t24 -53q0 -33 -24 -55.5t-54 -22.5q-34 0 -56.5 22 t-22.5 56z" />
<glyph unicode="&#xcc;" horiz-adv-x="458" d="M0 1833h119l162 -274h-88zM184 0v1434h90v-1434h-90z" />
<glyph unicode="&#xcd;" horiz-adv-x="458" d="M166 1559l162 274h118l-192 -274h-88zM184 0v1434h90v-1434h-90z" />
<glyph unicode="&#xce;" horiz-adv-x="458" d="M-2 1577l180 274h105l178 -274h-82l-150 209l-149 -209h-82zM184 0v1434h90v-1434h-90z" />
<glyph unicode="&#xcf;" horiz-adv-x="458" d="M16 1673q0 31 23.5 53.5t56.5 22.5q30 0 54 -23t24 -53q0 -33 -24 -55.5t-54 -22.5q-34 0 -57 22t-23 56zM184 0v1434h90v-1434h-90zM285 1673q0 31 23.5 53.5t56.5 22.5q30 0 53.5 -23t23.5 -53q0 -33 -23.5 -55.5t-53.5 -22.5q-34 0 -57 22t-23 56z" />
<glyph unicode="&#xd0;" horiz-adv-x="1417" d="M-59 688v70h243v676h424q145 0 273.5 -53.5t221 -146.5t146.5 -226t54 -285q0 -151 -54 -285.5t-146.5 -230.5t-221.5 -151.5t-273 -55.5h-424v688h-243zM274 86h338q126 0 236.5 48.5t190 132.5t125.5 202.5t46 253.5q0 180 -78 323t-214.5 222.5t-305.5 79.5h-338v-590 h252v-70h-252v-602z" />
<glyph unicode="&#xd1;" horiz-adv-x="1454" d="M184 0v1434h97l899 -1284v1284h90v-1434h-96l-900 1284v-1284h-90zM416 1593q4 85 52 138t118 53q37 0 79.5 -19t73.5 -42.5t67.5 -42.5t63.5 -19q45 0 73.5 34t27.5 87l76 -10q-4 -85 -52.5 -138t-117.5 -53q-39 0 -81 19.5t-72.5 43t-67.5 43t-66 19.5q-45 0 -72 -34 t-26 -89z" />
<glyph unicode="&#xd2;" horiz-adv-x="1665" d="M115 723q0 151 56 286.5t151.5 233t228 154.5t280.5 57q149 0 282 -57t229 -154.5t152 -233t56 -286.5q0 -154 -56 -292t-152 -236.5t-229 -156.5t-282 -58q-148 0 -280.5 58t-228 156.5t-151.5 236.5t-56 292zM207 723q0 -182 82.5 -333t226 -237.5t315.5 -86.5 q173 0 317 86.5t227 237.5t83 333q0 134 -49 253.5t-132.5 205.5t-199.5 136t-246 50q-172 0 -315.5 -85t-226 -233.5t-82.5 -326.5zM602 1833h119l162 -274h-88z" />
<glyph unicode="&#xd3;" horiz-adv-x="1665" d="M115 723q0 151 56 286.5t151.5 233t228 154.5t280.5 57q149 0 282 -57t229 -154.5t152 -233t56 -286.5q0 -154 -56 -292t-152 -236.5t-229 -156.5t-282 -58q-148 0 -280.5 58t-228 156.5t-151.5 236.5t-56 292zM207 723q0 -182 82.5 -333t226 -237.5t315.5 -86.5 q173 0 317 86.5t227 237.5t83 333q0 134 -49 253.5t-132.5 205.5t-199.5 136t-246 50q-172 0 -315.5 -85t-226 -233.5t-82.5 -326.5zM768 1559l162 274h119l-193 -274h-88z" />
<glyph unicode="&#xd4;" horiz-adv-x="1665" d="M115 723q0 151 56 286.5t151.5 233t228 154.5t280.5 57q149 0 282 -57t229 -154.5t152 -233t56 -286.5q0 -154 -56 -292t-152 -236.5t-229 -156.5t-282 -58q-148 0 -280.5 58t-228 156.5t-151.5 236.5t-56 292zM207 723q0 -182 82.5 -333t226 -237.5t315.5 -86.5 q173 0 317 86.5t227 237.5t83 333q0 134 -49 253.5t-132.5 205.5t-199.5 136t-246 50q-172 0 -315.5 -85t-226 -233.5t-82.5 -326.5zM600 1577l180 274h105l178 -274h-82l-150 209l-149 -209h-82z" />
<glyph unicode="&#xd5;" horiz-adv-x="1665" d="M115 723q0 151 56 286.5t151.5 233t228 154.5t280.5 57q149 0 282 -57t229 -154.5t152 -233t56 -286.5q0 -154 -56 -292t-152 -236.5t-229 -156.5t-282 -58q-148 0 -280.5 58t-228 156.5t-151.5 236.5t-56 292zM207 723q0 -182 82.5 -333t226 -237.5t315.5 -86.5 q173 0 317 86.5t227 237.5t83 333q0 134 -49 253.5t-132.5 205.5t-199.5 136t-246 50q-172 0 -315.5 -85t-226 -233.5t-82.5 -326.5zM516 1593q4 85 52 138t118 53q37 0 79.5 -19t74 -42.5t68 -42.5t63.5 -19q45 0 73 34t27 87l76 -10q-4 -85 -52.5 -138t-117.5 -53 q-39 0 -81 19.5t-72.5 43t-67.5 43t-66 19.5q-45 0 -72 -34t-26 -89z" />
<glyph unicode="&#xd6;" horiz-adv-x="1665" d="M115 723q0 151 56 286.5t151.5 233t228 154.5t280.5 57q149 0 282 -57t229 -154.5t152 -233t56 -286.5q0 -154 -56 -292t-152 -236.5t-229 -156.5t-282 -58q-148 0 -280.5 58t-228 156.5t-151.5 236.5t-56 292zM207 723q0 -182 82.5 -333t226 -237.5t315.5 -86.5 q173 0 317 86.5t227 237.5t83 333q0 134 -49 253.5t-132.5 205.5t-199.5 136t-246 50q-172 0 -315.5 -85t-226 -233.5t-82.5 -326.5zM618 1673q0 31 23.5 53.5t56.5 22.5q30 0 54 -23t24 -53q0 -33 -24 -55.5t-54 -22.5q-34 0 -57 22t-23 56zM887 1673q0 31 23.5 53.5 t56.5 22.5q30 0 53.5 -23t23.5 -53q0 -33 -23.5 -55.5t-53.5 -22.5q-34 0 -57 22t-23 56z" />
<glyph unicode="&#xd7;" horiz-adv-x="1032" d="M162 346l295 295l-293 293l57 59l295 -293l293 293l59 -59l-293 -293l295 -295l-59 -59l-295 295l-295 -295z" />
<glyph unicode="&#xd8;" horiz-adv-x="1665" d="M115 723q0 151 56 286.5t151.5 233t228 154.5t280.5 57q244 0 433 -143l147 178l64 -53l-148 -179q106 -101 164.5 -239t58.5 -295q0 -154 -56 -292t-152 -236.5t-229 -156.5t-282 -58q-241 0 -434 147l-143 -174l-64 53l146 176q-104 101 -162.5 241.5t-58.5 299.5z M207 723q0 -138 48.5 -259.5t137.5 -211.5l815 991q-167 125 -377 125q-172 0 -315.5 -85t-226 -233.5t-82.5 -326.5zM455 197q166 -131 376 -131q173 0 317 86.5t227 237.5t83 333q0 136 -49.5 256t-138.5 209z" />
<glyph unicode="&#xd9;" horiz-adv-x="1441" d="M184 528v906h90v-906q0 -199 126.5 -329.5t320.5 -130.5q192 0 318 130.5t126 329.5v906h92v-906q0 -236 -152 -392t-384 -156t-384.5 156t-152.5 392zM492 1833h118l162 -274h-88z" />
<glyph unicode="&#xda;" horiz-adv-x="1441" d="M184 528v906h90v-906q0 -199 126.5 -329.5t320.5 -130.5q192 0 318 130.5t126 329.5v906h92v-906q0 -236 -152 -392t-384 -156t-384.5 156t-152.5 392zM657 1559l162 274h119l-193 -274h-88z" />
<glyph unicode="&#xdb;" horiz-adv-x="1441" d="M184 528v906h90v-906q0 -199 126.5 -329.5t320.5 -130.5q192 0 318 130.5t126 329.5v906h92v-906q0 -236 -152 -392t-384 -156t-384.5 156t-152.5 392zM489 1577l181 274h104l178 -274h-82l-149 209l-150 -209h-82z" />
<glyph unicode="&#xdc;" horiz-adv-x="1441" d="M184 528v906h90v-906q0 -199 126.5 -329.5t320.5 -130.5q192 0 318 130.5t126 329.5v906h92v-906q0 -236 -152 -392t-384 -156t-384.5 156t-152.5 392zM508 1673q0 31 23.5 53.5t56.5 22.5q30 0 54 -23t24 -53q0 -33 -24 -55.5t-54 -22.5q-34 0 -57 22t-23 56zM776 1673 q0 31 23.5 53.5t56.5 22.5q30 0 54 -23t24 -53q0 -33 -24 -55.5t-54 -22.5q-34 0 -57 22t-23 56z" />
<glyph unicode="&#xdd;" horiz-adv-x="1216" d="M43 1434h111l458 -684l455 684h107l-517 -775v-659h-92v659zM547 1559l162 274h118l-192 -274h-88z" />
<glyph unicode="&#xde;" horiz-adv-x="1212" d="M184 0v1434h90v-322h465q167 0 281.5 -112.5t114.5 -278.5t-114.5 -279.5t-281.5 -113.5h-465v-328h-90zM274 414h465q127 0 215 89t88 218t-87.5 217t-215.5 88h-465v-612z" />
<glyph unicode="&#xdf;" horiz-adv-x="1200" d="M162 0v1040q0 189 125 301.5t325 112.5q174 0 297 -112.5t123 -268.5q0 -127 -76.5 -216t-195.5 -101q153 -12 250.5 -113t97.5 -250q0 -164 -115 -278.5t-278 -114.5h-305v86h301q129 0 218 90t89 217q0 136 -100 224t-269 88h-239v83h233q126 0 212.5 82t86.5 201 q0 122 -96 210.5t-236 88.5q-155 0 -255.5 -92.5t-100.5 -237.5v-1040h-92z" />
<glyph unicode="&#xe0;" d="M96 498q0 144 66.5 262t183 185t258.5 67q114 0 221 -55.5t152 -135.5v170h88v-991h-88v170q-48 -80 -154 -135t-219 -55q-217 0 -362.5 148t-145.5 370zM184 498q0 -187 122.5 -311t307.5 -124q108 0 211 58t152 147v455q-47 90 -150.5 148.5t-212.5 58.5 q-185 0 -307.5 -123t-122.5 -309zM403 1391h119l162 -275h-88z" />
<glyph unicode="&#xe1;" d="M96 498q0 144 66.5 262t183 185t258.5 67q114 0 221 -55.5t152 -135.5v170h88v-991h-88v170q-48 -80 -154 -135t-219 -55q-217 0 -362.5 148t-145.5 370zM184 498q0 -187 122.5 -311t307.5 -124q108 0 211 58t152 147v455q-47 90 -150.5 148.5t-212.5 58.5 q-185 0 -307.5 -123t-122.5 -309zM569 1116l162 275h119l-193 -275h-88z" />
<glyph unicode="&#xe2;" d="M96 498q0 144 66.5 262t183 185t258.5 67q114 0 221 -55.5t152 -135.5v170h88v-991h-88v170q-48 -80 -154 -135t-219 -55q-217 0 -362.5 148t-145.5 370zM184 498q0 -187 122.5 -311t307.5 -124q108 0 211 58t152 147v455q-47 90 -150.5 148.5t-212.5 58.5 q-185 0 -307.5 -123t-122.5 -309zM399 1135l181 274h104l178 -274h-82l-149 208l-150 -208h-82z" />
<glyph unicode="&#xe3;" d="M96 498q0 144 66.5 262t183 185t258.5 67q114 0 221 -55.5t152 -135.5v170h88v-991h-88v170q-48 -80 -154 -135t-219 -55q-217 0 -362.5 148t-145.5 370zM184 498q0 -187 122.5 -311t307.5 -124q108 0 211 58t152 147v455q-47 90 -150.5 148.5t-212.5 58.5 q-185 0 -307.5 -123t-122.5 -309zM315 1151q4 85 52 137.5t118 52.5q37 0 79.5 -19t74 -42t68 -42t63.5 -19q45 0 73 33.5t27 86.5l76 -10q-4 -85 -52.5 -137.5t-117.5 -52.5q-39 0 -81 19.5t-72.5 43t-67.5 43t-66 19.5q-45 0 -72 -34t-26 -89z" />
<glyph unicode="&#xe4;" d="M96 498q0 144 66.5 262t183 185t258.5 67q114 0 221 -55.5t152 -135.5v170h88v-991h-88v170q-48 -80 -154 -135t-219 -55q-217 0 -362.5 148t-145.5 370zM184 498q0 -187 122.5 -311t307.5 -124q108 0 211 58t152 147v455q-47 90 -150.5 148.5t-212.5 58.5 q-185 0 -307.5 -123t-122.5 -309zM420 1325q0 31 23.5 53.5t56.5 22.5q30 0 54 -23t24 -53q0 -33 -24 -55.5t-54 -22.5q-34 0 -57 22t-23 56zM688 1325q0 31 23.5 53.5t56.5 22.5q30 0 54 -23t24 -53q0 -33 -24 -55.5t-54 -22.5q-34 0 -57 22t-23 56z" />
<glyph unicode="&#xe5;" d="M96 498q0 144 66.5 262t183 185t258.5 67q114 0 221 -55.5t152 -135.5v170h88v-991h-88v170q-48 -80 -154 -135t-219 -55q-217 0 -362.5 148t-145.5 370zM184 498q0 -187 122.5 -311t307.5 -124q108 0 211 58t152 147v455q-47 90 -150.5 148.5t-212.5 58.5 q-185 0 -307.5 -123t-122.5 -309zM408 1329q0 94 63 154.5t160 60.5q98 0 161.5 -60.5t63.5 -154.5t-63.5 -154.5t-161.5 -60.5q-97 0 -160 60.5t-63 154.5zM473 1329q0 -65 45.5 -108t112.5 -43q69 0 113 43t44 108t-44.5 108.5t-112.5 43.5q-67 0 -112.5 -43.5 t-45.5 -108.5z" />
<glyph unicode="&#xe6;" horiz-adv-x="2041" d="M96 498q0 144 66.5 262t183 185t258.5 67q114 0 221 -55.5t152 -135.5v170h88v-198q69 102 177 160.5t235 58.5q200 0 334.5 -136.5t134.5 -340.5q0 -23 -2 -31h-879q0 -193 116.5 -318t297.5 -125q140 0 243 66.5t127 177.5h88q-29 -146 -157 -235.5t-303 -89.5 q-129 0 -237 58t-175 159v-197h-88v170q-48 -80 -154 -135t-219 -55q-217 0 -362.5 148t-145.5 370zM184 498q0 -187 122.5 -311t307.5 -124q108 0 211 58t152 147v455q-47 90 -150.5 148.5t-212.5 58.5q-185 0 -307.5 -123t-122.5 -309zM1071 582h780q-9 151 -115 250.5 t-261 99.5q-156 0 -267.5 -97.5t-136.5 -252.5z" />
<glyph unicode="&#xe7;" horiz-adv-x="1148" d="M96 496q0 143 67.5 261.5t184.5 186.5t258 68q160 0 288 -92t159 -230h-92q-26 103 -127.5 171.5t-227.5 68.5q-178 0 -300 -125.5t-122 -308.5q0 -182 122 -307.5t300 -125.5q126 0 228.5 69t128.5 179h90q-26 -145 -153.5 -237t-289.5 -94q56 -59 80 -120.5t14.5 -112 t-41.5 -91.5t-87.5 -64t-124.5 -24l-23 67q108 13 160 63.5t36.5 127t-98.5 160.5q-186 28 -308 171.5t-122 338.5z" />
<glyph unicode="&#xe8;" horiz-adv-x="1157" d="M94 502q0 140 66.5 257.5t181.5 185t252 67.5q200 0 334.5 -136.5t134.5 -340.5q0 -23 -2 -31h-879q0 -193 116.5 -318t297.5 -125q140 0 243.5 66.5t127.5 177.5h88q-29 -146 -157.5 -235.5t-303.5 -89.5q-214 0 -357 149t-143 373zM188 582h781q-9 151 -115.5 250.5 t-261.5 99.5q-156 0 -267.5 -97.5t-136.5 -252.5zM356 1391h119l162 -275h-88z" />
<glyph unicode="&#xe9;" horiz-adv-x="1157" d="M94 502q0 140 66.5 257.5t181.5 185t252 67.5q200 0 334.5 -136.5t134.5 -340.5q0 -23 -2 -31h-879q0 -193 116.5 -318t297.5 -125q140 0 243.5 66.5t127.5 177.5h88q-29 -146 -157.5 -235.5t-303.5 -89.5q-214 0 -357 149t-143 373zM188 582h781q-9 151 -115.5 250.5 t-261.5 99.5q-156 0 -267.5 -97.5t-136.5 -252.5zM522 1116l162 275h119l-193 -275h-88z" />
<glyph unicode="&#xea;" horiz-adv-x="1157" d="M94 502q0 140 66.5 257.5t181.5 185t252 67.5q200 0 334.5 -136.5t134.5 -340.5q0 -23 -2 -31h-879q0 -193 116.5 -318t297.5 -125q140 0 243.5 66.5t127.5 177.5h88q-29 -146 -157.5 -235.5t-303.5 -89.5q-214 0 -357 149t-143 373zM188 582h781q-9 151 -115.5 250.5 t-261.5 99.5q-156 0 -267.5 -97.5t-136.5 -252.5zM354 1135l181 274h104l178 -274h-82l-149 208l-150 -208h-82z" />
<glyph unicode="&#xeb;" horiz-adv-x="1157" d="M94 502q0 140 66.5 257.5t181.5 185t252 67.5q200 0 334.5 -136.5t134.5 -340.5q0 -23 -2 -31h-879q0 -193 116.5 -318t297.5 -125q140 0 243.5 66.5t127.5 177.5h88q-29 -146 -157.5 -235.5t-303.5 -89.5q-214 0 -357 149t-143 373zM188 582h781q-9 151 -115.5 250.5 t-261.5 99.5q-156 0 -267.5 -97.5t-136.5 -252.5zM375 1325q0 31 23.5 53.5t56.5 22.5q30 0 53.5 -23t23.5 -53q0 -33 -23.5 -55.5t-53.5 -22.5q-34 0 -57 22t-23 56zM643 1325q0 31 23.5 53.5t56.5 22.5q30 0 54 -23t24 -53q0 -33 -24 -55.5t-54 -22.5q-34 0 -57 22t-23 56 z" />
<glyph unicode="&#xec;" horiz-adv-x="413" d="M-20 1391h118l162 -275h-88zM162 0v991h90v-991h-90z" />
<glyph unicode="&#xed;" horiz-adv-x="413" d="M145 1116l162 275h119l-193 -275h-88zM162 0v991h90v-991h-90z" />
<glyph unicode="&#xee;" horiz-adv-x="413" d="M-23 1135l181 274h104l178 -274h-82l-149 208l-150 -208h-82zM162 0v991h90v-991h-90z" />
<glyph unicode="&#xef;" horiz-adv-x="413" d="M-2 1325q0 31 23.5 53.5t56.5 22.5q30 0 54 -23t24 -53q0 -33 -24 -55.5t-54 -22.5q-34 0 -57 22t-23 56zM162 0v991h90v-991h-90zM266 1325q0 31 23.5 53.5t56.5 22.5q30 0 54 -23t24 -53q0 -33 -24 -55.5t-54 -22.5q-34 0 -57 22t-23 56z" />
<glyph unicode="&#xf0;" horiz-adv-x="1306" d="M96 498q0 142 66.5 260.5t182.5 186t255 67.5q161 0 278 -81t164 -224v514h-276v69h276v144h88v-144h279v-69h-279v-707q0 -238 -147.5 -386t-372.5 -148q-144 0 -262 69t-185 187.5t-67 261.5zM180 498q0 -183 124.5 -309t305.5 -126q189 0 310.5 123t121.5 312 q0 188 -121.5 310t-310.5 122q-181 0 -305.5 -125t-124.5 -307z" />
<glyph unicode="&#xf1;" horiz-adv-x="1202" d="M162 0v991h88v-174q52 89 156.5 142t226.5 53q183 0 296 -120.5t113 -316.5v-575h-90v567q0 161 -91.5 261t-239.5 100q-117 0 -217.5 -57t-153.5 -152v-719h-88zM274 1151q4 85 52 137.5t118 52.5q37 0 79.5 -19t74 -42t68 -42t63.5 -19q45 0 73 33.5t27 86.5l76 -10 q-4 -85 -52.5 -137.5t-117.5 -52.5q-49 0 -102 31.5t-100.5 62.5t-83.5 31q-45 0 -72.5 -34t-26.5 -89z" />
<glyph unicode="&#xf2;" horiz-adv-x="1214" d="M94 496q0 143 68 261.5t185.5 186.5t258.5 68t258.5 -68t185.5 -186.5t68 -261.5t-68 -261.5t-185.5 -186.5t-258.5 -68t-258.5 68t-185.5 186.5t-68 261.5zM182 496q0 -182 123 -307.5t301 -125.5q177 0 300.5 126t123.5 307q0 182 -123 307t-301 125 q-179 0 -301.5 -124.5t-122.5 -307.5zM377 1391h119l161 -275h-88z" />
<glyph unicode="&#xf3;" horiz-adv-x="1214" d="M94 496q0 143 68 261.5t185.5 186.5t258.5 68t258.5 -68t185.5 -186.5t68 -261.5t-68 -261.5t-185.5 -186.5t-258.5 -68t-258.5 68t-185.5 186.5t-68 261.5zM182 496q0 -182 123 -307.5t301 -125.5q177 0 300.5 126t123.5 307q0 182 -123 307t-301 125 q-179 0 -301.5 -124.5t-122.5 -307.5zM545 1116l162 275h118l-192 -275h-88z" />
<glyph unicode="&#xf4;" horiz-adv-x="1214" d="M94 496q0 143 68 261.5t185.5 186.5t258.5 68t258.5 -68t185.5 -186.5t68 -261.5t-68 -261.5t-185.5 -186.5t-258.5 -68t-258.5 68t-185.5 186.5t-68 261.5zM182 496q0 -182 123 -307.5t301 -125.5q177 0 300.5 126t123.5 307q0 182 -123 307t-301 125 q-179 0 -301.5 -124.5t-122.5 -307.5zM375 1135l180 274h104l179 -274h-82l-150 208l-149 -208h-82z" />
<glyph unicode="&#xf5;" horiz-adv-x="1214" d="M94 496q0 143 68 261.5t185.5 186.5t258.5 68t258.5 -68t185.5 -186.5t68 -261.5t-68 -261.5t-185.5 -186.5t-258.5 -68t-258.5 68t-185.5 186.5t-68 261.5zM182 496q0 -182 123 -307.5t301 -125.5q177 0 300.5 126t123.5 307q0 182 -123 307t-301 125 q-179 0 -301.5 -124.5t-122.5 -307.5zM291 1151q4 85 52 137.5t118 52.5q47 0 100.5 -30.5t102 -61t81.5 -30.5q45 0 73.5 33.5t27.5 86.5l76 -10q-4 -85 -52.5 -137.5t-117.5 -52.5q-39 0 -81 19.5t-72.5 43t-67.5 43t-66 19.5q-45 0 -72 -34t-26 -89z" />
<glyph unicode="&#xf6;" horiz-adv-x="1214" d="M94 496q0 143 68 261.5t185.5 186.5t258.5 68t258.5 -68t185.5 -186.5t68 -261.5t-68 -261.5t-185.5 -186.5t-258.5 -68t-258.5 68t-185.5 186.5t-68 261.5zM182 496q0 -182 123 -307.5t301 -125.5q177 0 300.5 126t123.5 307q0 182 -123 307t-301 125 q-179 0 -301.5 -124.5t-122.5 -307.5zM395 1325q0 31 23.5 53.5t56.5 22.5q30 0 54 -23t24 -53q0 -33 -24 -55.5t-54 -22.5q-34 0 -57 22t-23 56zM664 1325q0 31 23 53.5t56 22.5q30 0 54 -23t24 -53q0 -33 -24 -55.5t-54 -22.5q-34 0 -56.5 22t-22.5 56z" />
<glyph unicode="&#xf7;" horiz-adv-x="1163" d="M162 600v82h839v-82h-839zM492 319q0 39 26 66t64 27q39 0 65.5 -27t26.5 -66q0 -38 -26 -64t-66 -26q-38 0 -64 26t-26 64zM492 958q0 39 26 66t64 27q39 0 65.5 -27t26.5 -66q0 -38 -26 -64t-66 -26q-38 0 -64 26t-26 64z" />
<glyph unicode="&#xf8;" horiz-adv-x="1214" d="M94 496q0 143 68 261.5t185.5 186.5t258.5 68q165 0 299 -94l105 126l55 -43l-107 -129q75 -71 117.5 -167.5t42.5 -208.5q0 -143 -68 -261.5t-185.5 -186.5t-258.5 -68q-169 0 -301 96l-104 -125l-51 43l102 125q-74 72 -116 169.5t-42 207.5zM182 496q0 -185 125 -310 l543 664q-108 78 -244 78q-179 0 -301.5 -124.5t-122.5 -307.5zM358 143q110 -80 248 -80q177 0 300.5 126t123.5 307q0 182 -127 309z" />
<glyph unicode="&#xf9;" horiz-adv-x="1202" d="M162 416v575h90v-567q0 -161 92 -261t240 -100q116 0 216 55.5t152 149.5v723h88v-991h-88v170q-52 -87 -156 -138.5t-225 -51.5q-183 0 -296 120t-113 316zM381 1391h119l162 -275h-89z" />
<glyph unicode="&#xfa;" horiz-adv-x="1202" d="M162 416v575h90v-567q0 -161 92 -261t240 -100q116 0 216 55.5t152 149.5v723h88v-991h-88v170q-52 -87 -156 -138.5t-225 -51.5q-183 0 -296 120t-113 316zM547 1116l162 275h118l-192 -275h-88z" />
<glyph unicode="&#xfb;" horiz-adv-x="1202" d="M162 416v575h90v-567q0 -161 92 -261t240 -100q116 0 216 55.5t152 149.5v723h88v-991h-88v170q-52 -87 -156 -138.5t-225 -51.5q-183 0 -296 120t-113 316zM377 1135l180 274h105l178 -274h-82l-150 208l-149 -208h-82z" />
<glyph unicode="&#xfc;" horiz-adv-x="1202" d="M162 416v575h90v-567q0 -161 92 -261t240 -100q116 0 216 55.5t152 149.5v723h88v-991h-88v170q-52 -87 -156 -138.5t-225 -51.5q-183 0 -296 120t-113 316zM397 1325q0 31 23.5 53.5t56.5 22.5q30 0 54 -23t24 -53q0 -33 -24 -55.5t-54 -22.5q-34 0 -57 22t-23 56z M668 1325q0 31 23.5 53.5t56.5 22.5q30 0 53.5 -23t23.5 -53q0 -33 -23.5 -55.5t-53.5 -22.5q-34 0 -57 22t-23 56z" />
<glyph unicode="&#xfd;" horiz-adv-x="1021" d="M43 991h96l371 -893l373 893h96l-584 -1388h-94l166 391zM461 1116l162 275h118l-192 -275h-88z" />
<glyph unicode="&#xfe;" d="M162 -397v1831h90v-611q48 80 153.5 134.5t217.5 54.5q217 0 362 -148t145 -370q0 -144 -66 -262t-182.5 -185t-258.5 -67q-113 0 -219 53.5t-152 132.5v-563h-90zM252 264q47 -89 149.5 -146t210.5 -57q185 0 307.5 123.5t122.5 309.5q0 187 -122.5 310.5t-307.5 123.5 q-107 0 -209 -56.5t-151 -144.5v-463z" />
<glyph unicode="&#xff;" horiz-adv-x="1021" d="M43 991h96l371 -893l373 893h96l-584 -1388h-94l166 391zM313 1325q0 31 23.5 53.5t56.5 22.5q30 0 54 -23t24 -53q0 -33 -24 -55.5t-54 -22.5q-34 0 -57 22t-23 56zM582 1325q0 31 23.5 53.5t56.5 22.5q30 0 53.5 -23t23.5 -53q0 -33 -23.5 -55.5t-53.5 -22.5 q-34 0 -57 22t-23 56z" />
<glyph unicode="&#x152;" horiz-adv-x="2039" d="M115 723q0 152 53.5 285t146.5 226t221 146.5t273 53.5h1102v-86h-678v-527h604v-86h-604v-649h678v-86h-1102q-193 0 -352 94.5t-250.5 260.5t-91.5 368zM207 723q0 -135 46 -253.5t125.5 -202.5t190 -132.5t236.5 -48.5h338v1262h-338q-169 0 -305.5 -79.5 t-214.5 -222.5t-78 -323z" />
<glyph unicode="&#x153;" horiz-adv-x="2091" d="M94 496q0 143 68 261.5t185.5 186.5t258.5 68q155 0 279.5 -81.5t185.5 -217.5q59 135 182 217t275 82q200 0 334.5 -136.5t134.5 -340.5q0 -23 -2 -31h-877v-8v-29q11 -179 126 -292.5t286 -113.5q140 0 243.5 66.5t127.5 177.5h88q-29 -146 -157.5 -235.5t-303.5 -89.5 q-154 0 -275.5 81t-179.5 218q-62 -136 -187.5 -217.5t-279.5 -81.5q-141 0 -258.5 68t-185.5 186.5t-68 261.5zM182 496q0 -182 123 -307.5t301 -125.5q168 0 290 115.5t134 286.5q-2 12 -2 37v28q-12 170 -133 284t-289 114q-179 0 -301.5 -124.5t-122.5 -307.5zM1122 582 h781q-9 151 -115.5 250.5t-261.5 99.5q-156 0 -267.5 -97.5t-136.5 -252.5z" />
<glyph unicode="&#x178;" horiz-adv-x="1216" d="M43 1434h111l458 -684l455 684h107l-517 -775v-659h-92v659zM397 1673q0 31 23.5 53.5t56.5 22.5q30 0 54 -23t24 -53q0 -33 -24 -55.5t-54 -22.5q-34 0 -57 22t-23 56zM666 1673q0 31 23 53.5t56 22.5q30 0 54 -23t24 -53q0 -33 -24 -55.5t-54 -22.5q-34 0 -56.5 22 t-22.5 56z" />
<glyph unicode="&#x2c6;" horiz-adv-x="667" d="M102 1135l181 274h104l178 -274h-82l-149 208l-150 -208h-82z" />
<glyph unicode="&#x2dc;" horiz-adv-x="837" d="M104 1151q4 85 52 137.5t118 52.5q37 0 79.5 -19t74 -42t68 -42t63.5 -19q45 0 73 33.5t27 86.5l76 -10q-4 -85 -52.5 -137.5t-117.5 -52.5q-49 0 -102 31.5t-100.5 62.5t-83.5 31q-45 0 -72.5 -34t-26.5 -89z" />
<glyph unicode="&#x2000;" horiz-adv-x="993" />
<glyph unicode="&#x2001;" horiz-adv-x="1987" />
<glyph unicode="&#x2002;" horiz-adv-x="993" />
<glyph unicode="&#x2003;" horiz-adv-x="1987" />
<glyph unicode="&#x2004;" horiz-adv-x="662" />
<glyph unicode="&#x2005;" horiz-adv-x="496" />
<glyph unicode="&#x2006;" horiz-adv-x="331" />
<glyph unicode="&#x2007;" horiz-adv-x="331" />
<glyph unicode="&#x2008;" horiz-adv-x="248" />
<glyph unicode="&#x2009;" horiz-adv-x="397" />
<glyph unicode="&#x200a;" horiz-adv-x="110" />
<glyph unicode="&#x2010;" horiz-adv-x="593" d="M51 485v82h492v-82h-492z" />
<glyph unicode="&#x2011;" horiz-adv-x="593" d="M51 485v82h492v-82h-492z" />
<glyph unicode="&#x2012;" horiz-adv-x="593" d="M51 485v82h492v-82h-492z" />
<glyph unicode="&#x2013;" horiz-adv-x="1107" d="M102 485v82h904v-82h-904z" />
<glyph unicode="&#x2014;" horiz-adv-x="2252" d="M102 485v82h2048v-82h-2048z" />
<glyph unicode="&#x2018;" horiz-adv-x="391" d="M102 1192q0 21 21 68l117 241h55l-80 -219q31 -9 49.5 -33t18.5 -57q0 -38 -26 -64t-64 -26q-39 0 -65 26t-26 64z" />
<glyph unicode="&#x2019;" horiz-adv-x="391" d="M96 1102l80 219q-31 9 -49 33t-18 57q0 38 26 64t64 26q39 0 64.5 -25.5t25.5 -64.5q0 -21 -21 -68l-116 -241h-56z" />
<glyph unicode="&#x201a;" horiz-adv-x="391" d="M96 -190l80 219q-31 9 -49 33t-18 57q0 38 26 64t64 26q39 0 64.5 -25.5t25.5 -64.5q0 -21 -21 -68l-116 -241h-56z" />
<glyph unicode="&#x201c;" horiz-adv-x="663" d="M102 1192q0 21 21 68l117 241h55l-80 -219q31 -9 49.5 -33t18.5 -57q0 -38 -26 -64t-64 -26q-39 0 -65 26t-26 64zM375 1192q0 23 20 68l117 241h55l-80 -219q31 -9 49.5 -33t18.5 -57q0 -38 -26 -64t-64 -26q-39 0 -64.5 25.5t-25.5 64.5z" />
<glyph unicode="&#x201d;" horiz-adv-x="663" d="M96 1102l80 219q-31 9 -49 33t-18 57q0 38 26 64t64 26q39 0 64.5 -25.5t25.5 -64.5q0 -21 -21 -68l-116 -241h-56zM367 1102l79 219q-31 9 -49 33t-18 57q0 38 26 64t64 26q39 0 64.5 -25.5t25.5 -64.5q0 -23 -20 -68l-117 -241h-55z" />
<glyph unicode="&#x201e;" horiz-adv-x="663" d="M96 -190l80 219q-31 9 -49 33t-18 57q0 38 26 64t64 26q39 0 64.5 -25.5t25.5 -64.5q0 -21 -21 -68l-116 -241h-56zM367 -190l79 219q-31 9 -49 33t-18 57q0 38 26 64t64 26q39 0 64.5 -25.5t25.5 -64.5q0 -23 -20 -68l-117 -241h-55z" />
<glyph unicode="&#x2022;" horiz-adv-x="571" d="M80 500q0 88 58.5 146.5t146.5 58.5t147.5 -58.5t59.5 -146.5q0 -89 -59.5 -148t-147.5 -59t-146.5 59t-58.5 148z" />
<glyph unicode="&#x2026;" horiz-adv-x="1091" d="M125 70q0 38 26 65t64 27q39 0 65.5 -26.5t26.5 -65.5q0 -38 -26 -64t-66 -26q-38 0 -64 26t-26 64zM467 70q0 38 26 65t64 27q39 0 65.5 -26.5t26.5 -65.5q0 -38 -26 -64t-66 -26q-38 0 -64 26t-26 64zM784 70q0 38 26 65t64 27q40 0 66.5 -27t26.5 -65t-26.5 -64 t-66.5 -26q-38 0 -64 26t-26 64z" />
<glyph unicode="&#x202f;" horiz-adv-x="397" />
<glyph unicode="&#x2039;" horiz-adv-x="745" d="M94 500v67l549 432v-98l-467 -366l467 -367v-100z" />
<glyph unicode="&#x203a;" horiz-adv-x="765" d="M123 68v100l467 367l-467 366v98l549 -432v-67z" />
<glyph unicode="&#x205f;" horiz-adv-x="496" />
<glyph unicode="&#x20ac;" horiz-adv-x="1683" d="M68 684v80h196q9 192 103.5 350t253 249t346.5 91q152 0 284.5 -59t223.5 -165.5t122 -242.5h-98q-47 169 -195 275t-337 106q-122 0 -232.5 -46.5t-191 -127t-130.5 -192.5t-57 -238h746l-37 -80h-711q9 -173 91.5 -314.5t220.5 -222.5t301 -81q195 0 343 110.5 t191 290.5h101q-49 -218 -225 -352.5t-410 -134.5q-141 0 -268.5 54.5t-221 147.5t-151 224t-64.5 278h-194z" />
<glyph unicode="&#x2122;" horiz-adv-x="1822" d="M39 1370v64h649v-64h-291v-797h-67v797h-291zM850 573v861h70l364 -756l363 756h71v-861h-67v709l-338 -709h-56l-339 709v-709h-68z" />
<glyph unicode="&#x25fc;" horiz-adv-x="993" d="M0 0v993h993v-993h-993z" />
</font>
</defs>
</svg>
